<?xml version="1.0" encoding="UTF-8" standalone="no"?>
<?xml-stylesheet href="spot.css" type="text/css"?>
<!DOCTYPE svg PUBLIC "-//W3C//DTD SVG 1.1//EN"
 "http://www.w3.org/Graphics/SVG/1.1/DTD/svg11.dtd">
<!-- Generated by graphviz version 2.40.1 (20161225.0304)
 -->
<!-- Title: | F G a F G b Pages: 1 -->
<svg width="429pt" height="257pt"
 viewBox="0.00 0.00 429.00 256.78" xmlns="http://www.w3.org/2000/svg" xmlns:xlink="http://www.w3.org/1999/xlink">
<g id="graph0" class="graph" transform="scale(1 1) rotate(0) translate(4 252.7798)">
<title>| F G a F G b</title>
<polygon fill="#ffffff" stroke="transparent" points="-4,4 -4,-252.7798 425,-252.7798 425,4 -4,4"/>
<text text-anchor="start" x="113.5" y="-236.1798" font-family="Lato" font-size="12.00" fill="#000000">(Fin(</text>
<text text-anchor="start" x="136.5" y="-236.1798" font-family="Lato" font-size="12.00" fill="#1f78b4">⓿</text>
<text text-anchor="start" x="150.5" y="-236.1798" font-family="Lato" font-size="12.00" fill="#000000">) &amp; Inf(</text>
<text text-anchor="start" x="185.5" y="-236.1798" font-family="Lato" font-size="12.00" fill="#ff4da0">❶</text>
<text text-anchor="start" x="199.5" y="-236.1798" font-family="Lato" font-size="12.00" fill="#000000">)) | (Fin(</text>
<text text-anchor="start" x="237.5" y="-236.1798" font-family="Lato" font-size="12.00" fill="#ff7f00">❷</text>
<text text-anchor="start" x="251.5" y="-236.1798" font-family="Lato" font-size="12.00" fill="#000000">) &amp; Inf(</text>
<text text-anchor="start" x="286.5" y="-236.1798" font-family="Lato" font-size="12.00" fill="#6a3d9a">❸</text>
<text text-anchor="start" x="300.5" y="-236.1798" font-family="Lato" font-size="12.00" fill="#000000">))</text>
<text text-anchor="start" x="186.5" y="-224.1798" font-family="Lato" font-size="12.00" fill="#000000">[Rabin 2]</text>
<!-- I -->
<!-- 0 -->
<g id="node2" class="node">
<title>0</title>
<path fill="#ffffa0" stroke="#000000" d="M70,-61.7798C70,-61.7798 50,-61.7798 50,-61.7798 44,-61.7798 38,-55.7798 38,-49.7798 38,-49.7798 38,-37.7798 38,-37.7798 38,-31.7798 44,-25.7798 50,-25.7798 50,-25.7798 70,-25.7798 70,-25.7798 76,-25.7798 82,-31.7798 82,-37.7798 82,-37.7798 82,-49.7798 82,-49.7798 82,-55.7798 76,-61.7798 70,-61.7798"/>
<text text-anchor="start" x="56.5" y="-47.1798" font-family="Lato" font-size="12.00" fill="#000000">0</text>
<text text-anchor="start" x="46" y="-35.1798" font-family="Lato" font-size="12.00" fill="#1f78b4">⓿</text>
<text text-anchor="start" x="60" y="-35.1798" font-family="Lato" font-size="12.00" fill="#ff7f00">❷</text>
</g>
<!-- I&#45;&gt;0 -->
<g id="edge1" class="edge">
<title>I&#45;&gt;0</title>
<path fill="none" stroke="#000000" d="M1.1682,-43.7798C4.2491,-43.7798 17.4946,-43.7798 30.6388,-43.7798"/>
<polygon fill="#000000" stroke="#000000" points="37.8655,-43.7798 30.8656,-46.9299 34.3655,-43.7798 30.8655,-43.7799 30.8655,-43.7799 30.8655,-43.7799 34.3655,-43.7798 30.8655,-40.6299 37.8655,-43.7798 37.8655,-43.7798"/>
</g>
<!-- 0&#45;&gt;0 -->
<g id="edge2" class="edge">
<title>0&#45;&gt;0</title>
<path fill="none" stroke="#000000" d="M52.7637,-61.9325C51.6504,-71.3189 54.0625,-79.7798 60,-79.7798 64.3604,-79.7798 66.8194,-75.2167 67.3773,-69.0751"/>
<polygon fill="#000000" stroke="#000000" points="67.2363,-61.9325 70.5239,-68.869 67.3054,-65.4318 67.3745,-68.9311 67.3745,-68.9311 67.3745,-68.9311 67.3054,-65.4318 64.2251,-68.9933 67.2363,-61.9325 67.2363,-61.9325"/>
<text text-anchor="start" x="43" y="-83.1798" font-family="Lato" font-size="12.00" fill="#000000">!a &amp; !b</text>
</g>
<!-- 1 -->
<g id="node3" class="node">
<title>1</title>
<path fill="#ffffa0" stroke="#000000" d="M184,-155.7798C184,-155.7798 164,-155.7798 164,-155.7798 158,-155.7798 152,-149.7798 152,-143.7798 152,-143.7798 152,-131.7798 152,-131.7798 152,-125.7798 158,-119.7798 164,-119.7798 164,-119.7798 184,-119.7798 184,-119.7798 190,-119.7798 196,-125.7798 196,-131.7798 196,-131.7798 196,-143.7798 196,-143.7798 196,-149.7798 190,-155.7798 184,-155.7798"/>
<text text-anchor="start" x="170.5" y="-141.1798" font-family="Lato" font-size="12.00" fill="#000000">1</text>
<text text-anchor="start" x="160" y="-129.1798" font-family="Lato" font-size="12.00" fill="#ff4da0">❶</text>
<text text-anchor="start" x="174" y="-129.1798" font-family="Lato" font-size="12.00" fill="#ff7f00">❷</text>
</g>
<!-- 0&#45;&gt;1 -->
<g id="edge3" class="edge">
<title>0&#45;&gt;1</title>
<path fill="none" stroke="#000000" d="M65.6941,-62.0797C71.6972,-78.4381 82.7148,-101.9063 100,-115.7798 112.7554,-126.0175 130.1651,-131.494 144.8934,-134.422"/>
<polygon fill="#000000" stroke="#000000" points="151.8761,-135.6645 144.4325,-137.5394 148.4303,-135.0513 144.9844,-134.4381 144.9844,-134.4381 144.9844,-134.4381 148.4303,-135.0513 145.5362,-131.3369 151.8761,-135.6645 151.8761,-135.6645"/>
<text text-anchor="start" x="101.5" y="-135.1798" font-family="Lato" font-size="12.00" fill="#000000">a &amp; !b</text>
</g>
<!-- 2 -->
<g id="node4" class="node">
<title>2</title>
<path fill="#ffffa0" stroke="#000000" d="M409,-92.7798C409,-92.7798 389,-92.7798 389,-92.7798 383,-92.7798 377,-86.7798 377,-80.7798 377,-80.7798 377,-68.7798 377,-68.7798 377,-62.7798 383,-56.7798 389,-56.7798 389,-56.7798 409,-56.7798 409,-56.7798 415,-56.7798 421,-62.7798 421,-68.7798 421,-68.7798 421,-80.7798 421,-80.7798 421,-86.7798 415,-92.7798 409,-92.7798"/>
<text text-anchor="start" x="395.5" y="-78.1798" font-family="Lato" font-size="12.00" fill="#000000">2</text>
<text text-anchor="start" x="385" y="-66.1798" font-family="Lato" font-size="12.00" fill="#1f78b4">⓿</text>
<text text-anchor="start" x="399" y="-66.1798" font-family="Lato" font-size="12.00" fill="#6a3d9a">❸</text>
</g>
<!-- 0&#45;&gt;2 -->
<g id="edge4" class="edge">
<title>0&#45;&gt;2</title>
<path fill="none" stroke="#000000" d="M82.1513,-35.4045C87.8867,-33.563 94.1081,-31.846 100,-30.7798 164.7634,-19.0596 182.588,-18.5047 248,-25.7798 298.2592,-31.3696 312.0566,-31.9769 359,-50.7798 362.8529,-52.3231 366.7663,-54.2103 370.5615,-56.2419"/>
<polygon fill="#000000" stroke="#000000" points="376.8055,-59.7621 369.1607,-59.0683 373.7566,-58.0432 370.7077,-56.3243 370.7077,-56.3243 370.7077,-56.3243 373.7566,-58.0432 372.2547,-53.5803 376.8055,-59.7621 376.8055,-59.7621"/>
<text text-anchor="start" x="215.5" y="-29.1798" font-family="Lato" font-size="12.00" fill="#000000">!a &amp; b</text>
</g>
<!-- 3 -->
<g id="node5" class="node">
<title>3</title>
<path fill="#ffffa0" stroke="#000000" d="M298,-92.7798C298,-92.7798 278,-92.7798 278,-92.7798 272,-92.7798 266,-86.7798 266,-80.7798 266,-80.7798 266,-68.7798 266,-68.7798 266,-62.7798 272,-56.7798 278,-56.7798 278,-56.7798 298,-56.7798 298,-56.7798 304,-56.7798 310,-62.7798 310,-68.7798 310,-68.7798 310,-80.7798 310,-80.7798 310,-86.7798 304,-92.7798 298,-92.7798"/>
<text text-anchor="start" x="284.5" y="-78.1798" font-family="Lato" font-size="12.00" fill="#000000">3</text>
<text text-anchor="start" x="274" y="-66.1798" font-family="Lato" font-size="12.00" fill="#ff4da0">❶</text>
<text text-anchor="start" x="288" y="-66.1798" font-family="Lato" font-size="12.00" fill="#6a3d9a">❸</text>
</g>
<!-- 0&#45;&gt;3 -->
<g id="edge5" class="edge">
<title>0&#45;&gt;3</title>
<path fill="none" stroke="#000000" d="M82.2767,-46.8086C123.7579,-52.4486 212.8029,-64.5556 258.9452,-70.8294"/>
<polygon fill="#000000" stroke="#000000" points="265.9685,-71.7843 258.6079,-73.9624 262.5004,-71.3127 259.0323,-70.8411 259.0323,-70.8411 259.0323,-70.8411 262.5004,-71.3127 259.4568,-67.7198 265.9685,-71.7843 265.9685,-71.7843"/>
<text text-anchor="start" x="160" y="-65.1798" font-family="Lato" font-size="12.00" fill="#000000">a &amp; b</text>
</g>
<!-- 1&#45;&gt;0 -->
<g id="edge6" class="edge">
<title>1&#45;&gt;0</title>
<path fill="none" stroke="#000000" d="M157.3805,-119.6355C150.5131,-112.6725 142.2391,-104.9291 134,-98.7798 120.1274,-88.4258 114.0765,-89.8548 100,-79.7798 94.5323,-75.8664 88.9775,-71.3081 83.8167,-66.7769"/>
<polygon fill="#000000" stroke="#000000" points="78.3942,-61.9024 85.7059,-64.2395 80.9971,-64.2422 83.6,-66.5821 83.6,-66.5821 83.6,-66.5821 80.9971,-64.2422 81.4942,-68.9247 78.3942,-61.9024 78.3942,-61.9024"/>
<text text-anchor="start" x="100" y="-102.1798" font-family="Lato" font-size="12.00" fill="#000000">!a &amp; !b</text>
</g>
<!-- 1&#45;&gt;1 -->
<g id="edge7" class="edge">
<title>1&#45;&gt;1</title>
<path fill="none" stroke="#000000" d="M163.8691,-155.9325C162.3105,-165.3189 165.6875,-173.7798 174,-173.7798 180.1045,-173.7798 183.5472,-169.2167 184.3282,-163.0751"/>
<polygon fill="#000000" stroke="#000000" points="184.1309,-155.9325 187.473,-162.8428 184.2275,-159.4312 184.3242,-162.9298 184.3242,-162.9298 184.3242,-162.9298 184.2275,-159.4312 181.1754,-163.0169 184.1309,-155.9325 184.1309,-155.9325"/>
<text text-anchor="start" x="158.5" y="-177.1798" font-family="Lato" font-size="12.00" fill="#000000">a &amp; !b</text>
</g>
<!-- 1&#45;&gt;2 -->
<g id="edge8" class="edge">
<title>1&#45;&gt;2</title>
<path fill="none" stroke="#000000" d="M186.2426,-156.0119C193.2457,-164.8366 202.8527,-174.6173 214,-179.7798 272.4778,-206.8617 307.0787,-217.954 359,-179.7798 372.2009,-170.0741 385.301,-127.8928 392.7482,-100.0365"/>
<polygon fill="#000000" stroke="#000000" points="394.6053,-92.9452 395.8791,-100.5149 393.7186,-96.331 392.8318,-99.7168 392.8318,-99.7168 392.8318,-99.7168 393.7186,-96.331 389.7846,-98.9188 394.6053,-92.9452 394.6053,-92.9452"/>
<text text-anchor="start" x="272.5" y="-207.1798" font-family="Lato" font-size="12.00" fill="#000000">!a &amp; b</text>
</g>
<!-- 1&#45;&gt;3 -->
<g id="edge9" class="edge">
<title>1&#45;&gt;3</title>
<path fill="none" stroke="#000000" d="M196.2493,-134.23C211.6072,-131.07 232.0531,-125.4118 248,-115.7798 255.7142,-111.1204 262.9794,-104.6218 269.1468,-98.1701"/>
<polygon fill="#000000" stroke="#000000" points="274.055,-92.8031 271.6555,-100.0946 271.693,-95.3859 269.331,-97.9688 269.331,-97.9688 269.331,-97.9688 271.693,-95.3859 267.0064,-95.8429 274.055,-92.8031 274.055,-92.8031"/>
<text text-anchor="start" x="217" y="-132.1798" font-family="Lato" font-size="12.00" fill="#000000">a &amp; b</text>
</g>
<!-- 2&#45;&gt;0 -->
<g id="edge10" class="edge">
<title>2&#45;&gt;0</title>
<path fill="none" stroke="#000000" d="M384.6759,-56.6884C377.6818,-48.9338 368.6898,-40.3882 359,-34.7798 314.7709,-9.1802 298.6589,-11.5049 248,-4.7798 182.4144,3.9269 162.5775,.6991 100,-20.7798 96.1169,-22.1126 92.1855,-23.8336 88.3806,-25.7339"/>
<polygon fill="#000000" stroke="#000000" points="82.1278,-29.0643 86.8252,-22.9933 85.217,-27.4189 88.3061,-25.7735 88.3061,-25.7735 88.3061,-25.7735 85.217,-27.4189 89.787,-28.5537 82.1278,-29.0643 82.1278,-29.0643"/>
<text text-anchor="start" x="214" y="-8.1798" font-family="Lato" font-size="12.00" fill="#000000">!a &amp; !b</text>
</g>
<!-- 2&#45;&gt;1 -->
<g id="edge11" class="edge">
<title>2&#45;&gt;1</title>
<path fill="none" stroke="#000000" d="M376.8928,-92.5429C359.6344,-105.5478 334.542,-122.6308 310,-132.7798 270.2118,-149.2337 256.8466,-150.0224 214,-145.7798 210.5687,-145.44 206.9958,-144.9401 203.4592,-144.3533"/>
<polygon fill="#000000" stroke="#000000" points="196.3079,-143.0501 203.7593,-141.2062 199.7512,-143.6777 203.1945,-144.3052 203.1945,-144.3052 203.1945,-144.3052 199.7512,-143.6777 202.6298,-147.4041 196.3079,-143.0501 196.3079,-143.0501"/>
<text text-anchor="start" x="272.5" y="-149.1798" font-family="Lato" font-size="12.00" fill="#000000">a &amp; !b</text>
</g>
<!-- 2&#45;&gt;2 -->
<g id="edge12" class="edge">
<title>2&#45;&gt;2</title>
<path fill="none" stroke="#000000" d="M389.231,-92.9325C387.728,-102.3189 390.9844,-110.7798 399,-110.7798 404.8865,-110.7798 408.2062,-106.2167 408.9593,-100.0751"/>
<polygon fill="#000000" stroke="#000000" points="408.769,-92.9325 412.1044,-99.8461 408.8623,-96.4313 408.9555,-99.93 408.9555,-99.93 408.9555,-99.93 408.8623,-96.4313 405.8066,-100.0139 408.769,-92.9325 408.769,-92.9325"/>
<text text-anchor="start" x="383.5" y="-114.1798" font-family="Lato" font-size="12.00" fill="#000000">!a &amp; b</text>
</g>
<!-- 2&#45;&gt;3 -->
<g id="edge13" class="edge">
<title>2&#45;&gt;3</title>
<path fill="none" stroke="#000000" d="M376.8427,-74.7798C359.7618,-74.7798 335.9856,-74.7798 317.3277,-74.7798"/>
<polygon fill="#000000" stroke="#000000" points="310.1957,-74.7798 317.1958,-71.6299 313.6957,-74.7798 317.1957,-74.7799 317.1957,-74.7799 317.1957,-74.7799 313.6957,-74.7798 317.1957,-77.9299 310.1957,-74.7798 310.1957,-74.7798"/>
<text text-anchor="start" x="329.5" y="-78.1798" font-family="Lato" font-size="12.00" fill="#000000">a &amp; b</text>
</g>
<!-- 3&#45;&gt;0 -->
<g id="edge14" class="edge">
<title>3&#45;&gt;0</title>
<path fill="none" stroke="#000000" d="M265.6416,-63.3007C247.4328,-54.6309 220.7755,-43.4546 196,-38.7798 159.7682,-31.9433 117.172,-35.2997 89.4344,-38.9625"/>
<polygon fill="#000000" stroke="#000000" points="82.3695,-39.9447 88.869,-35.8607 85.8362,-39.4627 89.3028,-38.9807 89.3028,-38.9807 89.3028,-38.9807 85.8362,-39.4627 89.7366,-42.1007 82.3695,-39.9447 82.3695,-39.9447"/>
<text text-anchor="start" x="157" y="-42.1798" font-family="Lato" font-size="12.00" fill="#000000">!a &amp; !b</text>
</g>
<!-- 3&#45;&gt;1 -->
<g id="edge15" class="edge">
<title>3&#45;&gt;1</title>
<path fill="none" stroke="#000000" d="M265.8286,-79.1564C250.5065,-82.8349 230.0713,-89.0766 214,-98.7798 207.0073,-103.0017 200.2865,-108.6666 194.4154,-114.3682"/>
<polygon fill="#000000" stroke="#000000" points="189.279,-119.5743 191.9529,-112.3789 191.7371,-117.0828 194.1953,-114.5913 194.1953,-114.5913 194.1953,-114.5913 191.7371,-117.0828 196.4376,-116.8036 189.279,-119.5743 189.279,-119.5743"/>
<text text-anchor="start" x="215.5" y="-102.1798" font-family="Lato" font-size="12.00" fill="#000000">a &amp; !b</text>
</g>
<!-- 3&#45;&gt;2 -->
<g id="edge16" class="edge">
<title>3&#45;&gt;2</title>
<path fill="none" stroke="#000000" d="M310.3353,-63.431C315.9606,-61.0965 322.085,-58.9846 328,-57.7798 341.5006,-55.0299 345.4994,-55.0299 359,-57.7798 362.6045,-58.514 366.2867,-59.585 369.8863,-60.838"/>
<polygon fill="#000000" stroke="#000000" points="376.6647,-63.431 369.0012,-63.872 373.3957,-62.1805 370.1267,-60.9299 370.1267,-60.9299 370.1267,-60.9299 373.3957,-62.1805 371.2522,-57.9878 376.6647,-63.431 376.6647,-63.431"/>
<text text-anchor="start" x="328" y="-61.1798" font-family="Lato" font-size="12.00" fill="#000000">!a &amp; b</text>
</g>
<!-- 3&#45;&gt;3 -->
<g id="edge17" class="edge">
<title>3&#45;&gt;3</title>
<path fill="none" stroke="#000000" d="M278.231,-92.9325C276.728,-102.3189 279.9844,-110.7798 288,-110.7798 293.8865,-110.7798 297.2062,-106.2167 297.9593,-100.0751"/>
<polygon fill="#000000" stroke="#000000" points="297.769,-92.9325 301.1044,-99.8461 297.8623,-96.4313 297.9555,-99.93 297.9555,-99.93 297.9555,-99.93 297.8623,-96.4313 294.8066,-100.0139 297.769,-92.9325 297.769,-92.9325"/>
<text text-anchor="start" x="274" y="-114.1798" font-family="Lato" font-size="12.00" fill="#000000">a &amp; b</text>
</g>
</g>
</svg>
