<?xml version="1.0" encoding="UTF-8" standalone="no"?>
<?xml-stylesheet href="spot.css" type="text/css"?>
<!DOCTYPE svg PUBLIC "-//W3C//DTD SVG 1.1//EN"
 "http://www.w3.org/Graphics/SVG/1.1/DTD/svg11.dtd">
<!-- Generated by graphviz version 2.40.1 (20161225.0304)
 -->
<!-- Pages: 1 -->
<svg width="164pt" height="107pt"
 viewBox="0.00 0.00 164.00 107.06" xmlns="http://www.w3.org/2000/svg" xmlns:xlink="http://www.w3.org/1999/xlink">
<g id="graph0" class="graph" transform="scale(1 1) rotate(0) translate(4 103.0619)">
<polygon fill="#ffffff" stroke="transparent" points="-4,4 -4,-103.0619 160,-103.0619 160,4 -4,4"/>
<text text-anchor="start" x="39" y="-86.4619" font-family="Lato" font-size="12.00" fill="#000000">Fin(</text>
<text text-anchor="start" x="59" y="-86.4619" font-family="Lato" font-size="12.00" fill="#1f78b4">⓿</text>
<text text-anchor="start" x="73" y="-86.4619" font-family="Lato" font-size="12.00" fill="#000000">)|Fin(</text>
<text text-anchor="start" x="99" y="-86.4619" font-family="Lato" font-size="12.00" fill="#ff4da0">❶</text>
<text text-anchor="start" x="113" y="-86.4619" font-family="Lato" font-size="12.00" fill="#000000">)</text>
<text text-anchor="start" x="33" y="-74.4619" font-family="Lato" font-size="12.00" fill="#000000">[gen. co&#45;Büchi 2]</text>
<!-- I -->
<!-- 0 -->
<g id="node2" class="node">
<title>0</title>
<path fill="#ffffa0" stroke="#000000" d="M62,-36.0619C62,-36.0619 50,-36.0619 50,-36.0619 44,-36.0619 38,-30.0619 38,-24.0619 38,-24.0619 38,-12.0619 38,-12.0619 38,-6.0619 44,-.0619 50,-.0619 50,-.0619 62,-.0619 62,-.0619 68,-.0619 74,-6.0619 74,-12.0619 74,-12.0619 74,-24.0619 74,-24.0619 74,-30.0619 68,-36.0619 62,-36.0619"/>
<text text-anchor="start" x="52.5" y="-21.4619" font-family="Lato" font-size="12.00" fill="#000000">0</text>
<text text-anchor="start" x="49" y="-8.4619" font-family="Lato" font-size="12.00" fill="#1f78b4">⓿</text>
</g>
<!-- I&#45;&gt;0 -->
<g id="edge1" class="edge">
<title>I&#45;&gt;0</title>
<path fill="none" stroke="#000000" d="M1.1233,-18.0619C4.178,-18.0619 17.9448,-18.0619 30.9241,-18.0619"/>
<polygon fill="#000000" stroke="#000000" points="37.9807,-18.0619 30.9808,-21.212 34.4807,-18.0619 30.9807,-18.062 30.9807,-18.062 30.9807,-18.062 34.4807,-18.0619 30.9807,-14.912 37.9807,-18.0619 37.9807,-18.0619"/>
</g>
<!-- 0&#45;&gt;0 -->
<g id="edge2" class="edge">
<title>0&#45;&gt;0</title>
<path fill="none" stroke="#000000" d="M49.4873,-36.2146C48.4854,-45.6009 50.6563,-54.0619 56,-54.0619 59.9243,-54.0619 62.1375,-49.4988 62.6395,-43.3572"/>
<polygon fill="#000000" stroke="#000000" points="62.5127,-36.2146 65.7866,-43.1575 62.5749,-39.714 62.6371,-43.2135 62.6371,-43.2135 62.6371,-43.2135 62.5749,-39.714 59.4876,-43.2694 62.5127,-36.2146 62.5127,-36.2146"/>
<text text-anchor="start" x="52.5" y="-57.4619" font-family="Lato" font-size="12.00" fill="#000000">a</text>
</g>
<!-- 1 -->
<g id="node3" class="node">
<title>1</title>
<path fill="#ffffa0" stroke="#000000" d="M144,-36.0619C144,-36.0619 132,-36.0619 132,-36.0619 126,-36.0619 120,-30.0619 120,-24.0619 120,-24.0619 120,-12.0619 120,-12.0619 120,-6.0619 126,-.0619 132,-.0619 132,-.0619 144,-.0619 144,-.0619 150,-.0619 156,-6.0619 156,-12.0619 156,-12.0619 156,-24.0619 156,-24.0619 156,-30.0619 150,-36.0619 144,-36.0619"/>
<text text-anchor="start" x="134.5" y="-21.4619" font-family="Lato" font-size="12.00" fill="#000000">1</text>
<text text-anchor="start" x="131" y="-8.4619" font-family="Lato" font-size="12.00" fill="#ff4da0">❶</text>
</g>
<!-- 0&#45;&gt;1 -->
<g id="edge3" class="edge">
<title>0&#45;&gt;1</title>
<path fill="none" stroke="#000000" d="M74.1985,-18.0619C85.5578,-18.0619 100.3412,-18.0619 112.8169,-18.0619"/>
<polygon fill="#000000" stroke="#000000" points="119.8524,-18.0619 112.8525,-21.212 116.3524,-18.0619 112.8524,-18.062 112.8524,-18.062 112.8524,-18.062 116.3524,-18.0619 112.8524,-14.912 119.8524,-18.0619 119.8524,-18.0619"/>
<text text-anchor="start" x="92" y="-21.4619" font-family="Lato" font-size="12.00" fill="#000000">!a</text>
</g>
<!-- 1&#45;&gt;0 -->
<g id="edge4" class="edge">
<title>1&#45;&gt;0</title>
<path fill="none" stroke="#000000" d="M119.9835,-6.2126C111.6286,-2.077 101.4708,1.0619 92,-1.0619 88.2063,-1.9126 84.3417,-3.2102 80.6205,-4.7172"/>
<polygon fill="#000000" stroke="#000000" points="74.1235,-7.6048 79.2408,-1.8833 77.3218,-6.1833 80.5202,-4.7618 80.5202,-4.7618 80.5202,-4.7618 77.3218,-6.1833 81.7995,-7.6403 74.1235,-7.6048 74.1235,-7.6048"/>
<text text-anchor="start" x="92" y="-4.4619" font-family="Lato" font-size="12.00" fill="#000000">!b</text>
</g>
<!-- 1&#45;&gt;1 -->
<g id="edge5" class="edge">
<title>1&#45;&gt;1</title>
<path fill="none" stroke="#000000" d="M130.7637,-36.2146C129.6504,-45.6009 132.0625,-54.0619 138,-54.0619 142.3604,-54.0619 144.8194,-49.4988 145.3773,-43.3572"/>
<polygon fill="#000000" stroke="#000000" points="145.2363,-36.2146 148.5239,-43.151 145.3054,-39.7139 145.3745,-43.2132 145.3745,-43.2132 145.3745,-43.2132 145.3054,-39.7139 142.2251,-43.2754 145.2363,-36.2146 145.2363,-36.2146"/>
<text text-anchor="start" x="134.5" y="-57.4619" font-family="Lato" font-size="12.00" fill="#000000">b</text>
</g>
</g>
</svg>
