<?xml version="1.0" encoding="UTF-8" standalone="no"?>
<?xml-stylesheet href="spot.css" type="text/css"?>
<!DOCTYPE svg PUBLIC "-//W3C//DTD SVG 1.1//EN"
 "http://www.w3.org/Graphics/SVG/1.1/DTD/svg11.dtd">
<!-- Generated by graphviz version 2.40.1 (20161225.0304)
 -->
<!-- Pages: 1 -->
<svg width="243pt" height="157pt"
 viewBox="0.00 0.00 243.00 156.60" xmlns="http://www.w3.org/2000/svg" xmlns:xlink="http://www.w3.org/1999/xlink">
<g id="graph0" class="graph" transform="scale(1 1) rotate(0) translate(4 152.6016)">
<polygon fill="#ffffff" stroke="transparent" points="-4,4 -4,-152.6016 239,-152.6016 239,4 -4,4"/>
<text text-anchor="start" x="49" y="-136.0016" font-family="Lato" font-size="12.00" fill="#000000">Inf(</text>
<text text-anchor="start" x="67" y="-136.0016" font-family="Lato" font-size="12.00" fill="#ff7f00">❷</text>
<text text-anchor="start" x="81" y="-136.0016" font-family="Lato" font-size="12.00" fill="#000000">) | (Fin(</text>
<text text-anchor="start" x="116" y="-136.0016" font-family="Lato" font-size="12.00" fill="#ff4da0">❶</text>
<text text-anchor="start" x="130" y="-136.0016" font-family="Lato" font-size="12.00" fill="#000000">) &amp; Inf(</text>
<text text-anchor="start" x="165" y="-136.0016" font-family="Lato" font-size="12.00" fill="#1f78b4">⓿</text>
<text text-anchor="start" x="179" y="-136.0016" font-family="Lato" font-size="12.00" fill="#000000">))</text>
<text text-anchor="start" x="67" y="-124.0016" font-family="Lato" font-size="12.00" fill="#000000">[parity max even 3]</text>
<!-- I -->
<!-- 0 -->
<g id="node2" class="node">
<title>0</title>
<path fill="#ffffa0" stroke="#000000" d="M62,-36.6016C62,-36.6016 50,-36.6016 50,-36.6016 44,-36.6016 38,-30.6016 38,-24.6016 38,-24.6016 38,-12.6016 38,-12.6016 38,-6.6016 44,-.6016 50,-.6016 50,-.6016 62,-.6016 62,-.6016 68,-.6016 74,-6.6016 74,-12.6016 74,-12.6016 74,-24.6016 74,-24.6016 74,-30.6016 68,-36.6016 62,-36.6016"/>
<text text-anchor="start" x="52.5" y="-22.0016" font-family="Lato" font-size="12.00" fill="#000000">0</text>
<text text-anchor="start" x="49" y="-9.0016" font-family="Lato" font-size="12.00" fill="#ff7f00">❷</text>
</g>
<!-- I&#45;&gt;0 -->
<g id="edge1" class="edge">
<title>I&#45;&gt;0</title>
<path fill="none" stroke="#000000" d="M1.1233,-18.6016C4.178,-18.6016 17.9448,-18.6016 30.9241,-18.6016"/>
<polygon fill="#000000" stroke="#000000" points="37.9807,-18.6016 30.9808,-21.7517 34.4807,-18.6017 30.9807,-18.6017 30.9807,-18.6017 30.9807,-18.6017 34.4807,-18.6017 30.9807,-15.4517 37.9807,-18.6016 37.9807,-18.6016"/>
</g>
<!-- 1 -->
<g id="node3" class="node">
<title>1</title>
<path fill="#ffffa0" stroke="#000000" d="M144,-85.6016C144,-85.6016 132,-85.6016 132,-85.6016 126,-85.6016 120,-79.6016 120,-73.6016 120,-73.6016 120,-61.6016 120,-61.6016 120,-55.6016 126,-49.6016 132,-49.6016 132,-49.6016 144,-49.6016 144,-49.6016 150,-49.6016 156,-55.6016 156,-61.6016 156,-61.6016 156,-73.6016 156,-73.6016 156,-79.6016 150,-85.6016 144,-85.6016"/>
<text text-anchor="start" x="134.5" y="-71.0016" font-family="Lato" font-size="12.00" fill="#000000">1</text>
<text text-anchor="start" x="131" y="-58.0016" font-family="Lato" font-size="12.00" fill="#ff4da0">❶</text>
</g>
<!-- 0&#45;&gt;1 -->
<g id="edge2" class="edge">
<title>0&#45;&gt;1</title>
<path fill="none" stroke="#000000" d="M74.1985,-29.4763C85.7702,-36.3911 100.895,-45.4291 113.514,-52.9698"/>
<polygon fill="#000000" stroke="#000000" points="119.8524,-56.7573 112.2277,-55.8706 116.848,-54.962 113.8435,-53.1666 113.8435,-53.1666 113.8435,-53.1666 116.848,-54.962 115.4593,-50.4626 119.8524,-56.7573 119.8524,-56.7573"/>
<text text-anchor="start" x="92" y="-49.0016" font-family="Lato" font-size="12.00" fill="#000000">!b</text>
</g>
<!-- 2 -->
<g id="node4" class="node">
<title>2</title>
<path fill="#ffffa0" stroke="#000000" d="M223,-36.6016C223,-36.6016 211,-36.6016 211,-36.6016 205,-36.6016 199,-30.6016 199,-24.6016 199,-24.6016 199,-12.6016 199,-12.6016 199,-6.6016 205,-.6016 211,-.6016 211,-.6016 223,-.6016 223,-.6016 229,-.6016 235,-6.6016 235,-12.6016 235,-12.6016 235,-24.6016 235,-24.6016 235,-30.6016 229,-36.6016 223,-36.6016"/>
<text text-anchor="start" x="213.5" y="-22.0016" font-family="Lato" font-size="12.00" fill="#000000">2</text>
<text text-anchor="start" x="210" y="-9.0016" font-family="Lato" font-size="12.00" fill="#ff4da0">❶</text>
</g>
<!-- 0&#45;&gt;2 -->
<g id="edge3" class="edge">
<title>0&#45;&gt;2</title>
<path fill="none" stroke="#000000" d="M74.1558,-18.6016C102.7821,-18.6016 158.5101,-18.6016 191.2567,-18.6016"/>
<polygon fill="#000000" stroke="#000000" points="198.6635,-18.6016 191.6636,-21.7517 195.1635,-18.6017 191.6635,-18.6017 191.6635,-18.6017 191.6635,-18.6017 195.1635,-18.6017 191.6635,-15.4517 198.6635,-18.6016 198.6635,-18.6016"/>
<text text-anchor="start" x="134.5" y="-22.0016" font-family="Lato" font-size="12.00" fill="#000000">b</text>
</g>
<!-- 1&#45;&gt;1 -->
<g id="edge4" class="edge">
<title>1&#45;&gt;1</title>
<path fill="none" stroke="#000000" d="M131.1255,-85.7543C130.0679,-95.1407 132.3594,-103.6016 138,-103.6016 142.1423,-103.6016 144.4785,-99.0386 145.0084,-92.897"/>
<polygon fill="#000000" stroke="#000000" points="144.8745,-85.7543 148.1552,-92.694 144.9402,-89.2537 145.0058,-92.7531 145.0058,-92.7531 145.0058,-92.7531 144.9402,-89.2537 141.8563,-92.8122 144.8745,-85.7543 144.8745,-85.7543"/>
<text text-anchor="start" x="133" y="-107.0016" font-family="Lato" font-size="12.00" fill="#000000">!b</text>
</g>
<!-- 1&#45;&gt;2 -->
<g id="edge5" class="edge">
<title>1&#45;&gt;2</title>
<path fill="none" stroke="#000000" d="M156.3228,-56.2369C167.0912,-49.5577 180.841,-41.0293 192.5281,-33.7804"/>
<polygon fill="#000000" stroke="#000000" points="198.7766,-29.9047 194.4883,-36.2713 195.8023,-31.7496 192.828,-33.5945 192.828,-33.5945 192.828,-33.5945 195.8023,-31.7496 191.1676,-30.9176 198.7766,-29.9047 198.7766,-29.9047"/>
<text text-anchor="start" x="174" y="-47.0016" font-family="Lato" font-size="12.00" fill="#000000">b</text>
</g>
<!-- 2&#45;&gt;0 -->
<g id="edge6" class="edge">
<title>2&#45;&gt;0</title>
<path fill="none" stroke="#000000" d="M198.8548,-12.1458C186.8643,-8.2299 170.7049,-3.6124 156,-1.6016 140.1475,.566 135.8654,.4696 120,-1.6016 106.9723,-3.3024 92.8219,-6.8725 81.1474,-10.304"/>
<polygon fill="#000000" stroke="#000000" points="74.2305,-12.4047 80.013,-7.3564 77.5794,-11.3876 80.9284,-10.3704 80.9284,-10.3704 80.9284,-10.3704 77.5794,-11.3876 81.8438,-13.3845 74.2305,-12.4047 74.2305,-12.4047"/>
<text text-anchor="start" x="134.5" y="-5.0016" font-family="Lato" font-size="12.00" fill="#000000">a</text>
</g>
<!-- 2&#45;&gt;2 -->
<g id="edge7" class="edge">
<title>2&#45;&gt;2</title>
<path fill="none" stroke="#000000" d="M210.1255,-36.7543C209.0679,-46.1407 211.3594,-54.6016 217,-54.6016 221.1423,-54.6016 223.4785,-50.0386 224.0084,-43.897"/>
<polygon fill="#000000" stroke="#000000" points="223.8745,-36.7543 227.1552,-43.694 223.9402,-40.2537 224.0058,-43.7531 224.0058,-43.7531 224.0058,-43.7531 223.9402,-40.2537 220.8563,-43.8122 223.8745,-36.7543 223.8745,-36.7543"/>
<text text-anchor="start" x="212" y="-58.0016" font-family="Lato" font-size="12.00" fill="#000000">!a</text>
</g>
</g>
</svg>
