<?xml version="1.0" encoding="UTF-8" standalone="no"?>
<?xml-stylesheet href="spot.css" type="text/css"?>
<!DOCTYPE svg PUBLIC "-//W3C//DTD SVG 1.1//EN"
 "http://www.w3.org/Graphics/SVG/1.1/DTD/svg11.dtd">
<!-- Generated by graphviz version 2.40.1 (20161225.0304)
 -->
<!-- Pages: 1 -->
<svg width="264pt" height="140pt"
 viewBox="0.00 0.00 264.00 140.00" xmlns="http://www.w3.org/2000/svg" xmlns:xlink="http://www.w3.org/1999/xlink">
<g id="graph0" class="graph" transform="scale(1 1) rotate(0) translate(4 136)">
<polygon fill="#ffffff" stroke="transparent" points="-4,4 -4,-136 260,-136 260,4 -4,4"/>
<text text-anchor="start" x="59.5" y="-119.4" font-family="Lato" font-size="12.00" fill="#000000">Inf(</text>
<text text-anchor="start" x="77.5" y="-119.4" font-family="Lato" font-size="12.00" fill="#ff7f00">❷</text>
<text text-anchor="start" x="91.5" y="-119.4" font-family="Lato" font-size="12.00" fill="#000000">) | (Fin(</text>
<text text-anchor="start" x="126.5" y="-119.4" font-family="Lato" font-size="12.00" fill="#ff4da0">❶</text>
<text text-anchor="start" x="140.5" y="-119.4" font-family="Lato" font-size="12.00" fill="#000000">) &amp; Inf(</text>
<text text-anchor="start" x="175.5" y="-119.4" font-family="Lato" font-size="12.00" fill="#1f78b4">⓿</text>
<text text-anchor="start" x="189.5" y="-119.4" font-family="Lato" font-size="12.00" fill="#000000">))</text>
<text text-anchor="start" x="77.5" y="-107.4" font-family="Lato" font-size="12.00" fill="#000000">[parity max even 3]</text>
<!-- I -->
<!-- 0 -->
<g id="node2" class="node">
<title>0</title>
<path fill="#ffffa0" stroke="#000000" d="M62,-36C62,-36 50,-36 50,-36 44,-36 38,-30 38,-24 38,-24 38,-12 38,-12 38,-6 44,0 50,0 50,0 62,0 62,0 68,0 74,-6 74,-12 74,-12 74,-24 74,-24 74,-30 68,-36 62,-36"/>
<text text-anchor="middle" x="56" y="-14.9" font-family="Lato" font-size="12.00" fill="#000000">0</text>
</g>
<!-- I&#45;&gt;0 -->
<g id="edge1" class="edge">
<title>I&#45;&gt;0</title>
<path fill="none" stroke="#000000" d="M1.1233,-18C4.178,-18 17.9448,-18 30.9241,-18"/>
<polygon fill="#000000" stroke="#000000" points="37.9807,-18 30.9808,-21.1501 34.4807,-18 30.9807,-18.0001 30.9807,-18.0001 30.9807,-18.0001 34.4807,-18 30.9807,-14.8501 37.9807,-18 37.9807,-18"/>
</g>
<!-- 0&#45;&gt;0 -->
<g id="edge2" class="edge">
<title>0&#45;&gt;0</title>
<path fill="none" stroke="#000000" d="M49.4873,-36.1527C48.4854,-45.5391 50.6563,-54 56,-54 59.9243,-54 62.1375,-49.437 62.6395,-43.2953"/>
<polygon fill="#000000" stroke="#000000" points="62.5127,-36.1527 65.7866,-43.0956 62.5749,-39.6522 62.6371,-43.1516 62.6371,-43.1516 62.6371,-43.1516 62.5749,-39.6522 59.4876,-43.2076 62.5127,-36.1527 62.5127,-36.1527"/>
<text text-anchor="start" x="51" y="-57.4" font-family="Lato" font-size="12.00" fill="#000000">!b</text>
</g>
<!-- 1 -->
<g id="node3" class="node">
<title>1</title>
<path fill="#ffffa0" stroke="#000000" d="M141,-69C141,-69 129,-69 129,-69 123,-69 117,-63 117,-57 117,-57 117,-45 117,-45 117,-39 123,-33 129,-33 129,-33 141,-33 141,-33 147,-33 153,-39 153,-45 153,-45 153,-57 153,-57 153,-63 147,-69 141,-69"/>
<text text-anchor="middle" x="135" y="-47.9" font-family="Lato" font-size="12.00" fill="#000000">1</text>
</g>
<!-- 0&#45;&gt;1 -->
<g id="edge3" class="edge">
<title>0&#45;&gt;1</title>
<path fill="none" stroke="#000000" d="M74.3228,-25.6538C84.9915,-30.1104 98.5867,-35.7894 110.2029,-40.6417"/>
<polygon fill="#000000" stroke="#000000" points="116.7766,-43.3877 109.1033,-43.5961 113.547,-42.0386 110.3175,-40.6895 110.3175,-40.6895 110.3175,-40.6895 113.547,-42.0386 111.5317,-37.7829 116.7766,-43.3877 116.7766,-43.3877"/>
<text text-anchor="start" x="92" y="-38.4" font-family="Lato" font-size="12.00" fill="#000000">b</text>
</g>
<!-- 1&#45;&gt;1 -->
<g id="edge4" class="edge">
<title>1&#45;&gt;1</title>
<path fill="none" stroke="#000000" d="M128.1255,-69.1527C127.0679,-78.5391 129.3594,-87 135,-87 139.1423,-87 141.4785,-82.437 142.0084,-76.2953"/>
<polygon fill="#000000" stroke="#000000" points="141.8745,-69.1527 145.1552,-76.0924 141.9402,-72.6521 142.0058,-76.1515 142.0058,-76.1515 142.0058,-76.1515 141.9402,-72.6521 138.8563,-76.2106 141.8745,-69.1527 141.8745,-69.1527"/>
<text text-anchor="start" x="130" y="-90.4" font-family="Lato" font-size="12.00" fill="#000000">!a</text>
</g>
<!-- 2 -->
<g id="node4" class="node">
<title>2</title>
<path fill="#ffffa0" stroke="#000000" d="M244,-53C244,-53 232,-53 232,-53 226,-53 220,-47 220,-41 220,-41 220,-29 220,-29 220,-23 226,-17 232,-17 232,-17 244,-17 244,-17 250,-17 256,-23 256,-29 256,-29 256,-41 256,-41 256,-47 250,-53 244,-53"/>
<text text-anchor="start" x="234.5" y="-38.4" font-family="Lato" font-size="12.00" fill="#000000">2</text>
<text text-anchor="start" x="231" y="-25.4" font-family="Lato" font-size="12.00" fill="#1f78b4">⓿</text>
</g>
<!-- 1&#45;&gt;2 -->
<g id="edge5" class="edge">
<title>1&#45;&gt;2</title>
<path fill="none" stroke="#000000" d="M153.1059,-52.1109C166.6971,-52.548 185.6918,-52.3121 202,-49 205.6042,-48.268 209.3164,-47.2071 212.9249,-45.9918"/>
<polygon fill="#000000" stroke="#000000" points="219.6807,-43.5104 214.196,-48.8808 216.3953,-44.7172 213.1099,-45.9239 213.1099,-45.9239 213.1099,-45.9239 216.3953,-44.7172 212.0238,-42.9671 219.6807,-43.5104 219.6807,-43.5104"/>
<text text-anchor="start" x="183" y="-55.4" font-family="Lato" font-size="12.00" fill="#000000">a</text>
</g>
<!-- 2&#45;&gt;0 -->
<g id="edge6" class="edge">
<title>2&#45;&gt;0</title>
<path fill="none" stroke="#000000" d="M219.7415,-28.2629C202.7372,-22.3705 176.5429,-14.26 153,-11 137.1512,-8.8054 132.9739,-10.0865 117,-11 105.2402,-11.6725 92.2672,-13.0687 81.3195,-14.4385"/>
<polygon fill="#000000" stroke="#000000" points="74.1036,-15.3733 80.6408,-11.35 77.5746,-14.9236 81.0456,-14.4739 81.0456,-14.4739 81.0456,-14.4739 77.5746,-14.9236 81.4504,-17.5977 74.1036,-15.3733 74.1036,-15.3733"/>
<text text-anchor="start" x="122.5" y="-14.4" font-family="Lato" font-size="12.00" fill="#000000">a | !b</text>
</g>
<!-- 2&#45;&gt;1 -->
<g id="edge7" class="edge">
<title>2&#45;&gt;1</title>
<path fill="none" stroke="#000000" d="M219.8087,-31.4225C206.1738,-29.4019 187.1619,-27.9967 171,-32 167.2271,-32.9345 163.4137,-34.3445 159.7514,-35.9825"/>
<polygon fill="#000000" stroke="#000000" points="153.3636,-39.1237 158.2551,-33.2079 156.5044,-37.5792 159.6452,-36.0347 159.6452,-36.0347 159.6452,-36.0347 156.5044,-37.5792 161.0353,-38.8614 153.3636,-39.1237 153.3636,-39.1237"/>
<text text-anchor="start" x="171" y="-35.4" font-family="Lato" font-size="12.00" fill="#000000">!a &amp; b</text>
</g>
</g>
</svg>
