<?xml version="1.0" encoding="UTF-8" standalone="no"?>
<?xml-stylesheet href="spot.css" type="text/css"?>
<!DOCTYPE svg PUBLIC "-//W3C//DTD SVG 1.1//EN"
 "http://www.w3.org/Graphics/SVG/1.1/DTD/svg11.dtd">
<!-- Generated by graphviz version 2.40.1 (20161225.0304)
 -->
<!-- Pages: 1 -->
<svg width="218pt" height="107pt"
 viewBox="0.00 0.00 218.00 107.43" xmlns="http://www.w3.org/2000/svg" xmlns:xlink="http://www.w3.org/1999/xlink">
<g id="graph0" class="graph" transform="scale(1 1) rotate(0) translate(4 103.4273)">
<polygon fill="#ffffff" stroke="transparent" points="-4,4 -4,-103.4273 214,-103.4273 214,4 -4,4"/>
<text text-anchor="start" x="8" y="-86.8273" font-family="Lato" font-size="12.00" fill="#000000">(Fin(</text>
<text text-anchor="start" x="31" y="-86.8273" font-family="Lato" font-size="12.00" fill="#1f78b4">⓿</text>
<text text-anchor="start" x="45" y="-86.8273" font-family="Lato" font-size="12.00" fill="#000000">) &amp; Inf(</text>
<text text-anchor="start" x="80" y="-86.8273" font-family="Lato" font-size="12.00" fill="#ff4da0">❶</text>
<text text-anchor="start" x="94" y="-86.8273" font-family="Lato" font-size="12.00" fill="#000000">)) | (Fin(</text>
<text text-anchor="start" x="132" y="-86.8273" font-family="Lato" font-size="12.00" fill="#ff7f00">❷</text>
<text text-anchor="start" x="146" y="-86.8273" font-family="Lato" font-size="12.00" fill="#000000">) &amp; Inf(</text>
<text text-anchor="start" x="181" y="-86.8273" font-family="Lato" font-size="12.00" fill="#6a3d9a">❸</text>
<text text-anchor="start" x="195" y="-86.8273" font-family="Lato" font-size="12.00" fill="#000000">))</text>
<text text-anchor="start" x="81" y="-74.8273" font-family="Lato" font-size="12.00" fill="#000000">[Rabin 2]</text>
<!-- I -->
<!-- 0 -->
<g id="node2" class="node">
<title>0</title>
<path fill="#ffffa0" stroke="#000000" d="M89,-36.4273C89,-36.4273 69,-36.4273 69,-36.4273 63,-36.4273 57,-30.4273 57,-24.4273 57,-24.4273 57,-12.4273 57,-12.4273 57,-6.4273 63,-.4273 69,-.4273 69,-.4273 89,-.4273 89,-.4273 95,-.4273 101,-6.4273 101,-12.4273 101,-12.4273 101,-24.4273 101,-24.4273 101,-30.4273 95,-36.4273 89,-36.4273"/>
<text text-anchor="start" x="75.5" y="-21.8273" font-family="Lato" font-size="12.00" fill="#000000">0</text>
<text text-anchor="start" x="65" y="-9.8273" font-family="Lato" font-size="12.00" fill="#ff4da0">❶</text>
<text text-anchor="start" x="79" y="-9.8273" font-family="Lato" font-size="12.00" fill="#ff7f00">❷</text>
</g>
<!-- I&#45;&gt;0 -->
<g id="edge1" class="edge">
<title>I&#45;&gt;0</title>
<path fill="none" stroke="#000000" d="M20.1682,-18.4273C23.2491,-18.4273 36.4946,-18.4273 49.6388,-18.4273"/>
<polygon fill="#000000" stroke="#000000" points="56.8655,-18.4273 49.8656,-21.5774 53.3655,-18.4274 49.8655,-18.4274 49.8655,-18.4274 49.8655,-18.4274 53.3655,-18.4274 49.8655,-15.2774 56.8655,-18.4273 56.8655,-18.4273"/>
</g>
<!-- 0&#45;&gt;0 -->
<g id="edge2" class="edge">
<title>0&#45;&gt;0</title>
<path fill="none" stroke="#000000" d="M71.7637,-36.58C70.6504,-45.9664 73.0625,-54.4273 79,-54.4273 83.3604,-54.4273 85.8194,-49.8643 86.3773,-43.7227"/>
<polygon fill="#000000" stroke="#000000" points="86.2363,-36.58 89.5239,-43.5165 86.3054,-40.0794 86.3745,-43.5787 86.3745,-43.5787 86.3745,-43.5787 86.3054,-40.0794 83.2251,-43.6409 86.2363,-36.58 86.2363,-36.58"/>
<text text-anchor="start" x="75.5" y="-57.8273" font-family="Lato" font-size="12.00" fill="#000000">a</text>
</g>
<!-- 1 -->
<g id="node3" class="node">
<title>1</title>
<path fill="#ffffa0" stroke="#000000" d="M179,-36.4273C179,-36.4273 159,-36.4273 159,-36.4273 153,-36.4273 147,-30.4273 147,-24.4273 147,-24.4273 147,-12.4273 147,-12.4273 147,-6.4273 153,-.4273 159,-.4273 159,-.4273 179,-.4273 179,-.4273 185,-.4273 191,-6.4273 191,-12.4273 191,-12.4273 191,-24.4273 191,-24.4273 191,-30.4273 185,-36.4273 179,-36.4273"/>
<text text-anchor="start" x="165.5" y="-21.8273" font-family="Lato" font-size="12.00" fill="#000000">1</text>
<text text-anchor="start" x="155" y="-9.8273" font-family="Lato" font-size="12.00" fill="#1f78b4">⓿</text>
<text text-anchor="start" x="169" y="-9.8273" font-family="Lato" font-size="12.00" fill="#6a3d9a">❸</text>
</g>
<!-- 0&#45;&gt;1 -->
<g id="edge3" class="edge">
<title>0&#45;&gt;1</title>
<path fill="none" stroke="#000000" d="M101.2472,-18.4273C112.8219,-18.4273 127.1219,-18.4273 139.597,-18.4273"/>
<polygon fill="#000000" stroke="#000000" points="146.6968,-18.4273 139.6969,-21.5774 143.1968,-18.4274 139.6968,-18.4274 139.6968,-18.4274 139.6968,-18.4274 143.1968,-18.4274 139.6968,-15.2774 146.6968,-18.4273 146.6968,-18.4273"/>
<text text-anchor="start" x="119" y="-21.8273" font-family="Lato" font-size="12.00" fill="#000000">!a</text>
</g>
<!-- 1&#45;&gt;0 -->
<g id="edge4" class="edge">
<title>1&#45;&gt;0</title>
<path fill="none" stroke="#000000" d="M146.6647,-7.0786C141.0394,-4.7441 134.915,-2.6321 129,-1.4273 121.9924,0 114.6133,-1.0206 107.7397,-3.13"/>
<polygon fill="#000000" stroke="#000000" points="101.067,-5.552 106.5722,-.2026 104.357,-4.3578 107.647,-3.1636 107.647,-3.1636 107.647,-3.1636 104.357,-4.3578 108.7218,-6.1246 101.067,-5.552 101.067,-5.552"/>
<text text-anchor="start" x="119" y="-4.8273" font-family="Lato" font-size="12.00" fill="#000000">!b</text>
</g>
<!-- 1&#45;&gt;1 -->
<g id="edge5" class="edge">
<title>1&#45;&gt;1</title>
<path fill="none" stroke="#000000" d="M161.04,-36.58C159.8154,-45.9664 162.4688,-54.4273 169,-54.4273 173.7964,-54.4273 176.5014,-49.8643 177.115,-43.7227"/>
<polygon fill="#000000" stroke="#000000" points="176.96,-36.58 180.2612,-43.51 177.036,-40.0792 177.1119,-43.5784 177.1119,-43.5784 177.1119,-43.5784 177.036,-40.0792 173.9627,-43.6468 176.96,-36.58 176.96,-36.58"/>
<text text-anchor="start" x="165.5" y="-57.8273" font-family="Lato" font-size="12.00" fill="#000000">b</text>
</g>
</g>
</svg>
