<?xml version="1.0" encoding="UTF-8" standalone="no"?>
<?xml-stylesheet href="spot.css" type="text/css"?>
<!DOCTYPE svg PUBLIC "-//W3C//DTD SVG 1.1//EN"
 "http://www.w3.org/Graphics/SVG/1.1/DTD/svg11.dtd">
<!-- Generated by graphviz version 2.40.1 (20161225.0304)
 -->
<!-- Pages: 1 -->
<svg width="161pt" height="107pt"
 viewBox="0.00 0.00 161.00 107.00" xmlns="http://www.w3.org/2000/svg" xmlns:xlink="http://www.w3.org/1999/xlink">
<g id="graph0" class="graph" transform="scale(1 1) rotate(0) translate(4 103)">
<polygon fill="#ffffff" stroke="transparent" points="-4,4 -4,-103 157,-103 157,4 -4,4"/>
<text text-anchor="start" x="37" y="-86.4" font-family="Lato" font-size="12.00" fill="#000000">Inf(</text>
<text text-anchor="start" x="55" y="-86.4" font-family="Lato" font-size="12.00" fill="#1f78b4">⓿</text>
<text text-anchor="start" x="69" y="-86.4" font-family="Lato" font-size="12.00" fill="#000000">)&amp;Inf(</text>
<text text-anchor="start" x="98" y="-86.4" font-family="Lato" font-size="12.00" fill="#ff4da0">❶</text>
<text text-anchor="start" x="112" y="-86.4" font-family="Lato" font-size="12.00" fill="#000000">)</text>
<text text-anchor="start" x="40" y="-74.4" font-family="Lato" font-size="12.00" fill="#000000">[gen. Büchi 2]</text>
<!-- I -->
<!-- 0 -->
<g id="node2" class="node">
<title>0</title>
<path fill="#ffffa0" stroke="#000000" d="M62,-36C62,-36 50,-36 50,-36 44,-36 38,-30 38,-24 38,-24 38,-12 38,-12 38,-6 44,0 50,0 50,0 62,0 62,0 68,0 74,-6 74,-12 74,-12 74,-24 74,-24 74,-30 68,-36 62,-36"/>
<text text-anchor="start" x="52.5" y="-21.4" font-family="Lato" font-size="12.00" fill="#000000">0</text>
<text text-anchor="start" x="49" y="-8.4" font-family="Lato" font-size="12.00" fill="#ff4da0">❶</text>
</g>
<!-- I&#45;&gt;0 -->
<g id="edge1" class="edge">
<title>I&#45;&gt;0</title>
<path fill="none" stroke="#000000" d="M1.1233,-18C4.178,-18 17.9448,-18 30.9241,-18"/>
<polygon fill="#000000" stroke="#000000" points="37.9807,-18 30.9808,-21.1501 34.4807,-18 30.9807,-18.0001 30.9807,-18.0001 30.9807,-18.0001 34.4807,-18 30.9807,-14.8501 37.9807,-18 37.9807,-18"/>
</g>
<!-- 0&#45;&gt;0 -->
<g id="edge2" class="edge">
<title>0&#45;&gt;0</title>
<path fill="none" stroke="#000000" d="M49.4873,-36.1527C48.4854,-45.5391 50.6563,-54 56,-54 59.9243,-54 62.1375,-49.437 62.6395,-43.2953"/>
<polygon fill="#000000" stroke="#000000" points="62.5127,-36.1527 65.7866,-43.0956 62.5749,-39.6522 62.6371,-43.1516 62.6371,-43.1516 62.6371,-43.1516 62.5749,-39.6522 59.4876,-43.2076 62.5127,-36.1527 62.5127,-36.1527"/>
<text text-anchor="start" x="51" y="-57.4" font-family="Lato" font-size="12.00" fill="#000000">!a</text>
</g>
<!-- 1 -->
<g id="node3" class="node">
<title>1</title>
<path fill="#ffffa0" stroke="#000000" d="M141,-36C141,-36 129,-36 129,-36 123,-36 117,-30 117,-24 117,-24 117,-12 117,-12 117,-6 123,0 129,0 129,0 141,0 141,0 147,0 153,-6 153,-12 153,-12 153,-24 153,-24 153,-30 147,-36 141,-36"/>
<text text-anchor="start" x="131.5" y="-21.4" font-family="Lato" font-size="12.00" fill="#000000">1</text>
<text text-anchor="start" x="128" y="-8.4" font-family="Lato" font-size="12.00" fill="#1f78b4">⓿</text>
</g>
<!-- 0&#45;&gt;1 -->
<g id="edge3" class="edge">
<title>0&#45;&gt;1</title>
<path fill="none" stroke="#000000" d="M74.3228,-18C84.7921,-18 98.0794,-18 109.5495,-18"/>
<polygon fill="#000000" stroke="#000000" points="116.7766,-18 109.7767,-21.1501 113.2766,-18 109.7766,-18.0001 109.7766,-18.0001 109.7766,-18.0001 113.2766,-18 109.7766,-14.8501 116.7766,-18 116.7766,-18"/>
<text text-anchor="start" x="92" y="-21.4" font-family="Lato" font-size="12.00" fill="#000000">a</text>
</g>
<!-- 1&#45;&gt;0 -->
<g id="edge4" class="edge">
<title>1&#45;&gt;0</title>
<path fill="none" stroke="#000000" d="M116.9843,-5.622C109.4345,-1.8323 100.4596,.897 92,-1 88.2063,-1.8507 84.3417,-3.1483 80.6205,-4.6554"/>
<polygon fill="#000000" stroke="#000000" points="74.1235,-7.543 79.2408,-1.8214 77.3218,-6.1214 80.5202,-4.6999 80.5202,-4.6999 80.5202,-4.6999 77.3218,-6.1214 81.7995,-7.5784 74.1235,-7.543 74.1235,-7.543"/>
<text text-anchor="start" x="92" y="-4.4" font-family="Lato" font-size="12.00" fill="#000000">b</text>
</g>
<!-- 1&#45;&gt;1 -->
<g id="edge5" class="edge">
<title>1&#45;&gt;1</title>
<path fill="none" stroke="#000000" d="M128.1255,-36.1527C127.0679,-45.5391 129.3594,-54 135,-54 139.1423,-54 141.4785,-49.437 142.0084,-43.2953"/>
<polygon fill="#000000" stroke="#000000" points="141.8745,-36.1527 145.1552,-43.0924 141.9402,-39.6521 142.0058,-43.1515 142.0058,-43.1515 142.0058,-43.1515 141.9402,-39.6521 138.8563,-43.2106 141.8745,-36.1527 141.8745,-36.1527"/>
<text text-anchor="start" x="130" y="-57.4" font-family="Lato" font-size="12.00" fill="#000000">!b</text>
</g>
</g>
</svg>
