<?xml version="1.0" encoding="UTF-8" standalone="no"?>
<?xml-stylesheet href="spot.css" type="text/css"?>
<!DOCTYPE svg PUBLIC "-//W3C//DTD SVG 1.1//EN"
 "http://www.w3.org/Graphics/SVG/1.1/DTD/svg11.dtd">
<!-- Generated by graphviz version 2.40.1 (20161225.0304)
 -->
<!-- Title: | G F a F G b Pages: 1 -->
<svg width="413pt" height="257pt"
 viewBox="0.00 0.00 413.00 257.45" xmlns="http://www.w3.org/2000/svg" xmlns:xlink="http://www.w3.org/1999/xlink">
<g id="graph0" class="graph" transform="scale(1 1) rotate(0) translate(4 253.4485)">
<title>| G F a F G b</title>
<polygon fill="#ffffff" stroke="transparent" points="-4,4 -4,-253.4485 409,-253.4485 409,4 -4,4"/>
<text text-anchor="start" x="105.5" y="-236.8485" font-family="Lato" font-size="12.00" fill="#000000">(Fin(</text>
<text text-anchor="start" x="128.5" y="-236.8485" font-family="Lato" font-size="12.00" fill="#1f78b4">⓿</text>
<text text-anchor="start" x="142.5" y="-236.8485" font-family="Lato" font-size="12.00" fill="#000000">) &amp; Inf(</text>
<text text-anchor="start" x="177.5" y="-236.8485" font-family="Lato" font-size="12.00" fill="#ff4da0">❶</text>
<text text-anchor="start" x="191.5" y="-236.8485" font-family="Lato" font-size="12.00" fill="#000000">)) | (Fin(</text>
<text text-anchor="start" x="229.5" y="-236.8485" font-family="Lato" font-size="12.00" fill="#ff7f00">❷</text>
<text text-anchor="start" x="243.5" y="-236.8485" font-family="Lato" font-size="12.00" fill="#000000">) &amp; Inf(</text>
<text text-anchor="start" x="278.5" y="-236.8485" font-family="Lato" font-size="12.00" fill="#6a3d9a">❸</text>
<text text-anchor="start" x="292.5" y="-236.8485" font-family="Lato" font-size="12.00" fill="#000000">))</text>
<text text-anchor="start" x="178.5" y="-224.8485" font-family="Lato" font-size="12.00" fill="#000000">[Rabin 2]</text>
<!-- I -->
<!-- 0 -->
<g id="node2" class="node">
<title>0</title>
<path fill="#ffffa0" stroke="#000000" d="M62,-62.4485C62,-62.4485 50,-62.4485 50,-62.4485 44,-62.4485 38,-56.4485 38,-50.4485 38,-50.4485 38,-38.4485 38,-38.4485 38,-32.4485 44,-26.4485 50,-26.4485 50,-26.4485 62,-26.4485 62,-26.4485 68,-26.4485 74,-32.4485 74,-38.4485 74,-38.4485 74,-50.4485 74,-50.4485 74,-56.4485 68,-62.4485 62,-62.4485"/>
<text text-anchor="start" x="52.5" y="-47.8485" font-family="Lato" font-size="12.00" fill="#000000">0</text>
<text text-anchor="start" x="49" y="-34.8485" font-family="Lato" font-size="12.00" fill="#ff7f00">❷</text>
</g>
<!-- I&#45;&gt;0 -->
<g id="edge1" class="edge">
<title>I&#45;&gt;0</title>
<path fill="none" stroke="#000000" d="M1.1233,-44.4485C4.178,-44.4485 17.9448,-44.4485 30.9241,-44.4485"/>
<polygon fill="#000000" stroke="#000000" points="37.9807,-44.4485 30.9808,-47.5986 34.4807,-44.4486 30.9807,-44.4486 30.9807,-44.4486 30.9807,-44.4486 34.4807,-44.4486 30.9807,-41.2986 37.9807,-44.4485 37.9807,-44.4485"/>
</g>
<!-- 0&#45;&gt;0 -->
<g id="edge2" class="edge">
<title>0&#45;&gt;0</title>
<path fill="none" stroke="#000000" d="M49.4873,-62.6012C48.4854,-71.9876 50.6563,-80.4485 56,-80.4485 59.9243,-80.4485 62.1375,-75.8855 62.6395,-69.7439"/>
<polygon fill="#000000" stroke="#000000" points="62.5127,-62.6012 65.7866,-69.5441 62.5749,-66.1007 62.6371,-69.6001 62.6371,-69.6001 62.6371,-69.6001 62.5749,-66.1007 59.4876,-69.6561 62.5127,-62.6012 62.5127,-62.6012"/>
<text text-anchor="start" x="39" y="-83.8485" font-family="Lato" font-size="12.00" fill="#000000">!a &amp; !b</text>
</g>
<!-- 1 -->
<g id="node3" class="node">
<title>1</title>
<path fill="#ffffa0" stroke="#000000" d="M176,-156.4485C176,-156.4485 156,-156.4485 156,-156.4485 150,-156.4485 144,-150.4485 144,-144.4485 144,-144.4485 144,-132.4485 144,-132.4485 144,-126.4485 150,-120.4485 156,-120.4485 156,-120.4485 176,-120.4485 176,-120.4485 182,-120.4485 188,-126.4485 188,-132.4485 188,-132.4485 188,-144.4485 188,-144.4485 188,-150.4485 182,-156.4485 176,-156.4485"/>
<text text-anchor="start" x="162.5" y="-141.8485" font-family="Lato" font-size="12.00" fill="#000000">1</text>
<text text-anchor="start" x="152" y="-129.8485" font-family="Lato" font-size="12.00" fill="#ff4da0">❶</text>
<text text-anchor="start" x="166" y="-129.8485" font-family="Lato" font-size="12.00" fill="#ff7f00">❷</text>
</g>
<!-- 0&#45;&gt;1 -->
<g id="edge3" class="edge">
<title>0&#45;&gt;1</title>
<path fill="none" stroke="#000000" d="M60.6399,-62.7253C65.7082,-79.0679 75.405,-102.5257 92,-116.4485 104.53,-126.9609 121.9292,-132.4502 136.7082,-135.3164"/>
<polygon fill="#000000" stroke="#000000" points="143.7201,-136.5233 136.2872,-138.4402 140.2708,-135.9296 136.8215,-135.3358 136.8215,-135.3358 136.8215,-135.3358 140.2708,-135.9296 137.3559,-132.2315 143.7201,-136.5233 143.7201,-136.5233"/>
<text text-anchor="start" x="93.5" y="-135.8485" font-family="Lato" font-size="12.00" fill="#000000">a &amp; !b</text>
</g>
<!-- 2 -->
<g id="node4" class="node">
<title>2</title>
<path fill="#ffffa0" stroke="#000000" d="M393,-93.4485C393,-93.4485 381,-93.4485 381,-93.4485 375,-93.4485 369,-87.4485 369,-81.4485 369,-81.4485 369,-69.4485 369,-69.4485 369,-63.4485 375,-57.4485 381,-57.4485 381,-57.4485 393,-57.4485 393,-57.4485 399,-57.4485 405,-63.4485 405,-69.4485 405,-69.4485 405,-81.4485 405,-81.4485 405,-87.4485 399,-93.4485 393,-93.4485"/>
<text text-anchor="start" x="383.5" y="-78.8485" font-family="Lato" font-size="12.00" fill="#000000">2</text>
<text text-anchor="start" x="380" y="-65.8485" font-family="Lato" font-size="12.00" fill="#6a3d9a">❸</text>
</g>
<!-- 0&#45;&gt;2 -->
<g id="edge4" class="edge">
<title>0&#45;&gt;2</title>
<path fill="none" stroke="#000000" d="M74.0096,-36.7384C79.6665,-34.6466 86.0027,-32.6342 92,-31.4485 156.5656,-18.6837 174.588,-19.1734 240,-26.4485 290.2592,-32.0383 304.5171,-31.5342 351,-51.4485 354.8925,-53.1161 358.8164,-55.2131 362.5691,-57.4696"/>
<polygon fill="#000000" stroke="#000000" points="368.6874,-61.3698 361.0914,-60.2632 365.736,-59.4884 362.7847,-57.607 362.7847,-57.607 362.7847,-57.607 365.736,-59.4884 364.478,-54.9508 368.6874,-61.3698 368.6874,-61.3698"/>
<text text-anchor="start" x="207.5" y="-29.8485" font-family="Lato" font-size="12.00" fill="#000000">!a &amp; b</text>
</g>
<!-- 3 -->
<g id="node5" class="node">
<title>3</title>
<path fill="#ffffa0" stroke="#000000" d="M290,-93.4485C290,-93.4485 270,-93.4485 270,-93.4485 264,-93.4485 258,-87.4485 258,-81.4485 258,-81.4485 258,-69.4485 258,-69.4485 258,-63.4485 264,-57.4485 270,-57.4485 270,-57.4485 290,-57.4485 290,-57.4485 296,-57.4485 302,-63.4485 302,-69.4485 302,-69.4485 302,-81.4485 302,-81.4485 302,-87.4485 296,-93.4485 290,-93.4485"/>
<text text-anchor="start" x="276.5" y="-78.8485" font-family="Lato" font-size="12.00" fill="#000000">3</text>
<text text-anchor="start" x="266" y="-66.8485" font-family="Lato" font-size="12.00" fill="#ff4da0">❶</text>
<text text-anchor="start" x="280" y="-66.8485" font-family="Lato" font-size="12.00" fill="#6a3d9a">❸</text>
</g>
<!-- 0&#45;&gt;3 -->
<g id="edge5" class="edge">
<title>0&#45;&gt;3</title>
<path fill="none" stroke="#000000" d="M74.3309,-46.9854C113.1109,-52.3522 203.7408,-64.8948 250.6719,-71.3897"/>
<polygon fill="#000000" stroke="#000000" points="257.8142,-72.3781 250.4484,-74.5387 254.3472,-71.8983 250.8803,-71.4185 250.8803,-71.4185 250.8803,-71.4185 254.3472,-71.8983 251.3121,-68.2982 257.8142,-72.3781 257.8142,-72.3781"/>
<text text-anchor="start" x="152" y="-65.8485" font-family="Lato" font-size="12.00" fill="#000000">a &amp; b</text>
</g>
<!-- 1&#45;&gt;0 -->
<g id="edge6" class="edge">
<title>1&#45;&gt;0</title>
<path fill="none" stroke="#000000" d="M149.3805,-120.3043C142.5131,-113.3412 134.2391,-105.5978 126,-99.4485 112.1274,-89.0945 105.8068,-90.89 92,-80.4485 87.0343,-76.6931 82.0758,-72.2789 77.4964,-67.8527"/>
<polygon fill="#000000" stroke="#000000" points="72.3171,-62.69 79.4986,-65.4009 74.796,-65.1609 77.2748,-67.6318 77.2748,-67.6318 77.2748,-67.6318 74.796,-65.1609 75.051,-69.8628 72.3171,-62.69 72.3171,-62.69"/>
<text text-anchor="start" x="92" y="-102.8485" font-family="Lato" font-size="12.00" fill="#000000">!a &amp; !b</text>
</g>
<!-- 1&#45;&gt;1 -->
<g id="edge7" class="edge">
<title>1&#45;&gt;1</title>
<path fill="none" stroke="#000000" d="M155.8691,-156.6012C154.3105,-165.9876 157.6875,-174.4485 166,-174.4485 172.1045,-174.4485 175.5472,-169.8855 176.3282,-163.7439"/>
<polygon fill="#000000" stroke="#000000" points="176.1309,-156.6012 179.473,-163.5115 176.2275,-160.0999 176.3242,-163.5985 176.3242,-163.5985 176.3242,-163.5985 176.2275,-160.0999 173.1754,-163.6856 176.1309,-156.6012 176.1309,-156.6012"/>
<text text-anchor="start" x="150.5" y="-177.8485" font-family="Lato" font-size="12.00" fill="#000000">a &amp; !b</text>
</g>
<!-- 1&#45;&gt;2 -->
<g id="edge8" class="edge">
<title>1&#45;&gt;2</title>
<path fill="none" stroke="#000000" d="M178.2426,-156.6806C185.2457,-165.5053 194.8527,-175.286 206,-180.4485 264.4778,-207.5304 299.729,-219.4916 351,-180.4485 363.8776,-170.6421 375.3563,-128.4923 381.7268,-100.6695"/>
<polygon fill="#000000" stroke="#000000" points="383.3097,-93.5872 384.857,-101.1057 382.5463,-97.0029 381.7828,-100.4186 381.7828,-100.4186 381.7828,-100.4186 382.5463,-97.0029 378.7087,-99.7316 383.3097,-93.5872 383.3097,-93.5872"/>
<text text-anchor="start" x="264.5" y="-207.8485" font-family="Lato" font-size="12.00" fill="#000000">!a &amp; b</text>
</g>
<!-- 1&#45;&gt;3 -->
<g id="edge9" class="edge">
<title>1&#45;&gt;3</title>
<path fill="none" stroke="#000000" d="M188.2493,-134.8987C203.6072,-131.7387 224.0531,-126.0805 240,-116.4485 247.7142,-111.7891 254.9794,-105.2905 261.1468,-98.8388"/>
<polygon fill="#000000" stroke="#000000" points="266.055,-93.4718 263.6555,-100.7633 263.693,-96.0546 261.331,-98.6375 261.331,-98.6375 261.331,-98.6375 263.693,-96.0546 259.0064,-96.5117 266.055,-93.4718 266.055,-93.4718"/>
<text text-anchor="start" x="209" y="-132.8485" font-family="Lato" font-size="12.00" fill="#000000">a &amp; b</text>
</g>
<!-- 2&#45;&gt;0 -->
<g id="edge10" class="edge">
<title>2&#45;&gt;0</title>
<path fill="none" stroke="#000000" d="M374.4349,-57.327C368.2061,-49.5663 360.0746,-41.0244 351,-35.4485 307.4591,-8.6951 290.6589,-12.1737 240,-5.4485 174.4602,3.2521 153.8902,2.8058 92,-20.4485 88.0359,-21.9379 84.072,-23.9353 80.3003,-26.1445"/>
<polygon fill="#000000" stroke="#000000" points="74.1682,-30.0105 78.4098,-23.6126 77.129,-28.1439 80.0897,-26.2772 80.0897,-26.2772 80.0897,-26.2772 77.129,-28.1439 81.7696,-28.9419 74.1682,-30.0105 74.1682,-30.0105"/>
<text text-anchor="start" x="206" y="-8.8485" font-family="Lato" font-size="12.00" fill="#000000">!a &amp; !b</text>
</g>
<!-- 2&#45;&gt;1 -->
<g id="edge11" class="edge">
<title>2&#45;&gt;1</title>
<path fill="none" stroke="#000000" d="M368.6822,-91.1183C352.264,-104.3538 326.9823,-122.8055 302,-133.4485 262.3887,-150.3237 248.8466,-150.6911 206,-146.4485 202.5687,-146.1087 198.9958,-145.6089 195.4592,-145.022"/>
<polygon fill="#000000" stroke="#000000" points="188.3079,-143.7189 195.7593,-141.8749 191.7512,-144.3464 195.1945,-144.9739 195.1945,-144.9739 195.1945,-144.9739 191.7512,-144.3464 194.6298,-148.0728 188.3079,-143.7189 188.3079,-143.7189"/>
<text text-anchor="start" x="264.5" y="-149.8485" font-family="Lato" font-size="12.00" fill="#000000">a &amp; !b</text>
</g>
<!-- 2&#45;&gt;2 -->
<g id="edge12" class="edge">
<title>2&#45;&gt;2</title>
<path fill="none" stroke="#000000" d="M377.9546,-93.6012C376.563,-102.9876 379.5781,-111.4485 387,-111.4485 392.4504,-111.4485 395.5243,-106.8855 396.2216,-100.7439"/>
<polygon fill="#000000" stroke="#000000" points="396.0454,-93.6012 399.3671,-100.5214 396.1318,-97.1002 396.2181,-100.5991 396.2181,-100.5991 396.2181,-100.5991 396.1318,-97.1002 393.0691,-100.6768 396.0454,-93.6012 396.0454,-93.6012"/>
<text text-anchor="start" x="371.5" y="-114.8485" font-family="Lato" font-size="12.00" fill="#000000">!a &amp; b</text>
</g>
<!-- 2&#45;&gt;3 -->
<g id="edge13" class="edge">
<title>2&#45;&gt;3</title>
<path fill="none" stroke="#000000" d="M368.7675,-75.4485C352.4376,-75.4485 328.2023,-75.4485 309.1789,-75.4485"/>
<polygon fill="#000000" stroke="#000000" points="302.1705,-75.4485 309.1705,-72.2986 305.6705,-75.4486 309.1705,-75.4486 309.1705,-75.4486 309.1705,-75.4486 305.6705,-75.4486 309.1704,-78.5986 302.1705,-75.4485 302.1705,-75.4485"/>
<text text-anchor="start" x="321.5" y="-78.8485" font-family="Lato" font-size="12.00" fill="#000000">a &amp; b</text>
</g>
<!-- 3&#45;&gt;0 -->
<g id="edge14" class="edge">
<title>3&#45;&gt;0</title>
<path fill="none" stroke="#000000" d="M257.6416,-63.9694C239.4328,-55.2996 212.7755,-44.1233 188,-39.4485 151.3341,-32.5301 107.9554,-36.4255 81.2074,-40.1837"/>
<polygon fill="#000000" stroke="#000000" points="74.1234,-41.2309 80.5875,-37.091 77.5858,-40.719 81.0482,-40.2071 81.0482,-40.2071 81.0482,-40.2071 77.5858,-40.719 81.5089,-43.3232 74.1234,-41.2309 74.1234,-41.2309"/>
<text text-anchor="start" x="149" y="-42.8485" font-family="Lato" font-size="12.00" fill="#000000">!a &amp; !b</text>
</g>
<!-- 3&#45;&gt;1 -->
<g id="edge15" class="edge">
<title>3&#45;&gt;1</title>
<path fill="none" stroke="#000000" d="M257.8286,-79.8251C242.5065,-83.5036 222.0713,-89.7453 206,-99.4485 199.0073,-103.6704 192.2865,-109.3353 186.4154,-115.0369"/>
<polygon fill="#000000" stroke="#000000" points="181.279,-120.243 183.9529,-113.0477 183.7371,-117.7515 186.1953,-115.26 186.1953,-115.26 186.1953,-115.26 183.7371,-117.7515 188.4376,-117.4723 181.279,-120.243 181.279,-120.243"/>
<text text-anchor="start" x="207.5" y="-102.8485" font-family="Lato" font-size="12.00" fill="#000000">a &amp; !b</text>
</g>
<!-- 3&#45;&gt;2 -->
<g id="edge16" class="edge">
<title>3&#45;&gt;2</title>
<path fill="none" stroke="#000000" d="M302.3353,-64.0997C307.9606,-61.7653 314.085,-59.6533 320,-58.4485 333.5006,-55.6987 337.5561,-55.4339 351,-58.4485 354.7937,-59.2992 358.6583,-60.5968 362.3795,-62.1039"/>
<polygon fill="#000000" stroke="#000000" points="368.8765,-64.9915 361.2005,-65.0269 365.6782,-63.5699 362.4798,-62.1484 362.4798,-62.1484 362.4798,-62.1484 365.6782,-63.5699 363.7592,-59.2699 368.8765,-64.9915 368.8765,-64.9915"/>
<text text-anchor="start" x="320" y="-61.8485" font-family="Lato" font-size="12.00" fill="#000000">!a &amp; b</text>
</g>
<!-- 3&#45;&gt;3 -->
<g id="edge17" class="edge">
<title>3&#45;&gt;3</title>
<path fill="none" stroke="#000000" d="M270.231,-93.6012C268.728,-102.9876 271.9844,-111.4485 280,-111.4485 285.8865,-111.4485 289.2062,-106.8855 289.9593,-100.7439"/>
<polygon fill="#000000" stroke="#000000" points="289.769,-93.6012 293.1044,-100.5148 289.8623,-97.1 289.9555,-100.5987 289.9555,-100.5987 289.9555,-100.5987 289.8623,-97.1 286.8066,-100.6826 289.769,-93.6012 289.769,-93.6012"/>
<text text-anchor="start" x="266" y="-114.8485" font-family="Lato" font-size="12.00" fill="#000000">a &amp; b</text>
</g>
</g>
</svg>
