<?xml version="1.0" encoding="UTF-8" standalone="no"?>
<?xml-stylesheet href="spot.css" type="text/css"?>
<!DOCTYPE svg PUBLIC "-//W3C//DTD SVG 1.1//EN"
 "http://www.w3.org/Graphics/SVG/1.1/DTD/svg11.dtd">
<!-- Generated by graphviz version 2.40.1 (20161225.0304)
 -->
<!-- Title: G(Fa &amp; Fb) Pages: 1 -->
<svg width="285pt" height="156pt"
 viewBox="0.00 0.00 285.00 156.00" xmlns="http://www.w3.org/2000/svg" xmlns:xlink="http://www.w3.org/1999/xlink">
<g id="graph0" class="graph" transform="scale(1 1) rotate(0) translate(4 152)">
<title>G(Fa &amp; Fb)</title>
<polygon fill="#ffffff" stroke="transparent" points="-4,4 -4,-152 281,-152 281,4 -4,4"/>
<text text-anchor="start" x="120.5" y="-135.4" font-family="Lato" font-size="12.00" fill="#000000">Inf(</text>
<text text-anchor="start" x="138.5" y="-135.4" font-family="Lato" font-size="12.00" fill="#1f78b4">⓿</text>
<text text-anchor="start" x="152.5" y="-135.4" font-family="Lato" font-size="12.00" fill="#000000">)</text>
<text text-anchor="start" x="119.5" y="-123.4" font-family="Lato" font-size="12.00" fill="#000000">[Büchi]</text>
<!-- I -->
<!-- 0 -->
<g id="node2" class="node">
<title>0</title>
<path fill="#ffffa0" stroke="#000000" d="M62,-52C62,-52 50,-52 50,-52 44,-52 38,-46 38,-40 38,-40 38,-28 38,-28 38,-22 44,-16 50,-16 50,-16 62,-16 62,-16 68,-16 74,-22 74,-28 74,-28 74,-40 74,-40 74,-46 68,-52 62,-52"/>
<text text-anchor="start" x="52.5" y="-37.4" font-family="Lato" font-size="12.00" fill="#000000">0</text>
<text text-anchor="start" x="49" y="-24.4" font-family="Lato" font-size="12.00" fill="#1f78b4">⓿</text>
</g>
<!-- I&#45;&gt;0 -->
<g id="edge1" class="edge">
<title>I&#45;&gt;0</title>
<path fill="none" stroke="#000000" d="M1.1233,-34C4.178,-34 17.9448,-34 30.9241,-34"/>
<polygon fill="#000000" stroke="#000000" points="37.9807,-34 30.9808,-37.1501 34.4807,-34 30.9807,-34.0001 30.9807,-34.0001 30.9807,-34.0001 34.4807,-34 30.9807,-30.8501 37.9807,-34 37.9807,-34"/>
</g>
<!-- 0&#45;&gt;0 -->
<g id="edge2" class="edge">
<title>0&#45;&gt;0</title>
<path fill="none" stroke="#000000" d="M49.4873,-52.1527C48.4854,-61.5391 50.6563,-70 56,-70 59.9243,-70 62.1375,-65.437 62.6395,-59.2953"/>
<polygon fill="#000000" stroke="#000000" points="62.5127,-52.1527 65.7866,-59.0956 62.5749,-55.6522 62.6371,-59.1516 62.6371,-59.1516 62.6371,-59.1516 62.5749,-55.6522 59.4876,-59.2076 62.5127,-52.1527 62.5127,-52.1527"/>
<text text-anchor="start" x="42" y="-73.4" font-family="Lato" font-size="12.00" fill="#000000">a &amp; b</text>
</g>
<!-- 1 -->
<g id="node3" class="node">
<title>1</title>
<path fill="#ffffa0" stroke="#000000" d="M162,-85C162,-85 150,-85 150,-85 144,-85 138,-79 138,-73 138,-73 138,-61 138,-61 138,-55 144,-49 150,-49 150,-49 162,-49 162,-49 168,-49 174,-55 174,-61 174,-61 174,-73 174,-73 174,-79 168,-85 162,-85"/>
<text text-anchor="middle" x="156" y="-63.9" font-family="Lato" font-size="12.00" fill="#000000">1</text>
</g>
<!-- 0&#45;&gt;1 -->
<g id="edge3" class="edge">
<title>0&#45;&gt;1</title>
<path fill="none" stroke="#000000" d="M72.323,-52.1531C78.0017,-57.2622 84.7747,-62.1886 92,-65 104.1826,-69.7403 118.6772,-70.5476 130.7893,-70.0351"/>
<polygon fill="#000000" stroke="#000000" points="137.9808,-69.5687 131.1994,-73.1652 134.4882,-69.7953 130.9955,-70.0218 130.9955,-70.0218 130.9955,-70.0218 134.4882,-69.7953 130.7916,-66.8784 137.9808,-69.5687 137.9808,-69.5687"/>
<text text-anchor="start" x="101" y="-73.4" font-family="Lato" font-size="12.00" fill="#000000">!b</text>
</g>
<!-- 2 -->
<g id="node4" class="node">
<title>2</title>
<path fill="#ffffa0" stroke="#000000" d="M265,-36C265,-36 253,-36 253,-36 247,-36 241,-30 241,-24 241,-24 241,-12 241,-12 241,-6 247,0 253,0 253,0 265,0 265,0 271,0 277,-6 277,-12 277,-12 277,-24 277,-24 277,-30 271,-36 265,-36"/>
<text text-anchor="middle" x="259" y="-14.9" font-family="Lato" font-size="12.00" fill="#000000">2</text>
</g>
<!-- 0&#45;&gt;2 -->
<g id="edge4" class="edge">
<title>0&#45;&gt;2</title>
<path fill="none" stroke="#000000" d="M74.2336,-32.3861C90.8478,-30.9291 116.0665,-28.7518 138,-27 171.1114,-24.3554 209.341,-21.554 233.8205,-19.7924"/>
<polygon fill="#000000" stroke="#000000" points="240.9553,-19.2804 234.1987,-22.9235 237.4643,-19.531 233.9732,-19.7816 233.9732,-19.7816 233.9732,-19.7816 237.4643,-19.531 233.7477,-16.6396 240.9553,-19.2804 240.9553,-19.2804"/>
<text text-anchor="start" x="140.5" y="-30.4" font-family="Lato" font-size="12.00" fill="#000000">!a &amp; b</text>
</g>
<!-- 1&#45;&gt;0 -->
<g id="edge5" class="edge">
<title>1&#45;&gt;0</title>
<path fill="none" stroke="#000000" d="M137.7551,-56.1486C132.1966,-53.1805 125.9737,-50.1839 120,-48 107.5267,-43.44 93.1172,-40.1271 81.1329,-37.8725"/>
<polygon fill="#000000" stroke="#000000" points="74.0233,-36.6037 81.4678,-34.7326 77.4688,-37.2186 80.9144,-37.8336 80.9144,-37.8336 80.9144,-37.8336 77.4688,-37.2186 80.3609,-40.9346 74.0233,-36.6037 74.0233,-36.6037"/>
<text text-anchor="start" x="92" y="-51.4" font-family="Lato" font-size="12.00" fill="#000000">a &amp; b</text>
</g>
<!-- 1&#45;&gt;1 -->
<g id="edge6" class="edge">
<title>1&#45;&gt;1</title>
<path fill="none" stroke="#000000" d="M146.9546,-85.1527C145.563,-94.5391 148.5781,-103 156,-103 161.4504,-103 164.5243,-98.437 165.2216,-92.2953"/>
<polygon fill="#000000" stroke="#000000" points="165.0454,-85.1527 168.3671,-92.0729 165.1318,-88.6516 165.2181,-92.1506 165.2181,-92.1506 165.2181,-92.1506 165.1318,-88.6516 162.0691,-92.2283 165.0454,-85.1527 165.0454,-85.1527"/>
<text text-anchor="start" x="151" y="-106.4" font-family="Lato" font-size="12.00" fill="#000000">!b</text>
</g>
<!-- 1&#45;&gt;2 -->
<g id="edge7" class="edge">
<title>1&#45;&gt;2</title>
<path fill="none" stroke="#000000" d="M174.4143,-58.2398C191.1118,-50.2963 215.856,-38.5248 234.2728,-29.7634"/>
<polygon fill="#000000" stroke="#000000" points="240.7451,-26.6844 235.7772,-32.5361 237.5845,-28.188 234.4239,-29.6916 234.4239,-29.6916 234.4239,-29.6916 237.5845,-28.188 233.0707,-26.8471 240.7451,-26.6844 240.7451,-26.6844"/>
<text text-anchor="start" x="192" y="-52.4" font-family="Lato" font-size="12.00" fill="#000000">!a &amp; b</text>
</g>
<!-- 2&#45;&gt;0 -->
<g id="edge8" class="edge">
<title>2&#45;&gt;0</title>
<path fill="none" stroke="#000000" d="M240.8638,-13.548C217.115,-8.3579 174.2396,-1.1872 138,-7 118.365,-10.1494 97.0565,-17.2869 81.0834,-23.4325"/>
<polygon fill="#000000" stroke="#000000" points="74.145,-26.1685 79.5015,-20.6702 77.401,-24.8846 80.657,-23.6006 80.657,-23.6006 80.657,-23.6006 77.401,-24.8846 81.8126,-26.531 74.145,-26.1685 74.145,-26.1685"/>
<text text-anchor="start" x="152.5" y="-10.4" font-family="Lato" font-size="12.00" fill="#000000">a</text>
</g>
<!-- 2&#45;&gt;2 -->
<g id="edge9" class="edge">
<title>2&#45;&gt;2</title>
<path fill="none" stroke="#000000" d="M249.9546,-36.1527C248.563,-45.5391 251.5781,-54 259,-54 264.4504,-54 267.5243,-49.437 268.2216,-43.2953"/>
<polygon fill="#000000" stroke="#000000" points="268.0454,-36.1527 271.3671,-43.0729 268.1318,-39.6516 268.2181,-43.1506 268.2181,-43.1506 268.2181,-43.1506 268.1318,-39.6516 265.0691,-43.2283 268.0454,-36.1527 268.0454,-36.1527"/>
<text text-anchor="start" x="254" y="-57.4" font-family="Lato" font-size="12.00" fill="#000000">!a</text>
</g>
</g>
</svg>
