<?xml version="1.0" encoding="UTF-8" standalone="no"?>
<?xml-stylesheet href="spot.css" type="text/css"?>
<!DOCTYPE svg PUBLIC "-//W3C//DTD SVG 1.1//EN"
 "http://www.w3.org/Graphics/SVG/1.1/DTD/svg11.dtd">
<!-- Generated by graphviz version 2.40.1 (20161225.0304)
 -->
<!-- Title: | F G p0 G F p1 Pages: 1 -->
<svg width="469pt" height="262pt"
 viewBox="0.00 0.00 468.50 262.16" xmlns="http://www.w3.org/2000/svg" xmlns:xlink="http://www.w3.org/1999/xlink">
<g id="graph0" class="graph" transform="scale(1 1) rotate(0) translate(4 258.1586)">
<title>| F G p0 G F p1</title>
<polygon fill="#ffffff" stroke="transparent" points="-4,4 -4,-258.1586 464.5,-258.1586 464.5,4 -4,4"/>
<text text-anchor="start" x="133.25" y="-241.5586" font-family="Lato" font-size="12.00" fill="#000000">(Fin(</text>
<text text-anchor="start" x="156.25" y="-241.5586" font-family="Lato" font-size="12.00" fill="#1f78b4">⓿</text>
<text text-anchor="start" x="170.25" y="-241.5586" font-family="Lato" font-size="12.00" fill="#000000">) &amp; Inf(</text>
<text text-anchor="start" x="205.25" y="-241.5586" font-family="Lato" font-size="12.00" fill="#ff4da0">❶</text>
<text text-anchor="start" x="219.25" y="-241.5586" font-family="Lato" font-size="12.00" fill="#000000">)) | (Fin(</text>
<text text-anchor="start" x="257.25" y="-241.5586" font-family="Lato" font-size="12.00" fill="#ff7f00">❷</text>
<text text-anchor="start" x="271.25" y="-241.5586" font-family="Lato" font-size="12.00" fill="#000000">) &amp; Inf(</text>
<text text-anchor="start" x="306.25" y="-241.5586" font-family="Lato" font-size="12.00" fill="#6a3d9a">❸</text>
<text text-anchor="start" x="320.25" y="-241.5586" font-family="Lato" font-size="12.00" fill="#000000">))</text>
<text text-anchor="start" x="206.25" y="-229.5586" font-family="Lato" font-size="12.00" fill="#000000">[Rabin 2]</text>
<!-- I -->
<!-- 0 -->
<g id="node2" class="node">
<title>0</title>
<path fill="#ffffa0" stroke="#000000" d="M62,-63.1586C62,-63.1586 50,-63.1586 50,-63.1586 44,-63.1586 38,-57.1586 38,-51.1586 38,-51.1586 38,-39.1586 38,-39.1586 38,-33.1586 44,-27.1586 50,-27.1586 50,-27.1586 62,-27.1586 62,-27.1586 68,-27.1586 74,-33.1586 74,-39.1586 74,-39.1586 74,-51.1586 74,-51.1586 74,-57.1586 68,-63.1586 62,-63.1586"/>
<text text-anchor="start" x="52.5" y="-48.5586" font-family="Lato" font-size="12.00" fill="#000000">0</text>
<text text-anchor="start" x="49" y="-35.5586" font-family="Lato" font-size="12.00" fill="#1f78b4">⓿</text>
</g>
<!-- I&#45;&gt;0 -->
<g id="edge1" class="edge">
<title>I&#45;&gt;0</title>
<path fill="none" stroke="#000000" d="M1.1233,-45.1586C4.178,-45.1586 17.9448,-45.1586 30.9241,-45.1586"/>
<polygon fill="#000000" stroke="#000000" points="37.9807,-45.1586 30.9808,-48.3087 34.4807,-45.1587 30.9807,-45.1587 30.9807,-45.1587 30.9807,-45.1587 34.4807,-45.1587 30.9807,-42.0087 37.9807,-45.1586 37.9807,-45.1586"/>
</g>
<!-- 0&#45;&gt;0 -->
<g id="edge2" class="edge">
<title>0&#45;&gt;0</title>
<path fill="none" stroke="#000000" d="M49.4873,-63.3113C48.4854,-72.6977 50.6563,-81.1586 56,-81.1586 59.9243,-81.1586 62.1375,-76.5956 62.6395,-70.454"/>
<polygon fill="#000000" stroke="#000000" points="62.5127,-63.3113 65.7866,-70.2542 62.5749,-66.8108 62.6371,-70.3102 62.6371,-70.3102 62.6371,-70.3102 62.5749,-66.8108 59.4876,-70.3662 62.5127,-63.3113 62.5127,-63.3113"/>
<text text-anchor="start" x="32" y="-84.5586" font-family="Lato" font-size="12.00" fill="#000000">!p0 &amp; !p1</text>
</g>
<!-- 1 -->
<g id="node3" class="node">
<title>1</title>
<path fill="#ffffa0" stroke="#000000" d="M188,-157.1586C188,-157.1586 176,-157.1586 176,-157.1586 170,-157.1586 164,-151.1586 164,-145.1586 164,-145.1586 164,-133.1586 164,-133.1586 164,-127.1586 170,-121.1586 176,-121.1586 176,-121.1586 188,-121.1586 188,-121.1586 194,-121.1586 200,-127.1586 200,-133.1586 200,-133.1586 200,-145.1586 200,-145.1586 200,-151.1586 194,-157.1586 188,-157.1586"/>
<text text-anchor="start" x="178.5" y="-142.5586" font-family="Lato" font-size="12.00" fill="#000000">1</text>
<text text-anchor="start" x="175" y="-129.5586" font-family="Lato" font-size="12.00" fill="#ff4da0">❶</text>
</g>
<!-- 0&#45;&gt;1 -->
<g id="edge3" class="edge">
<title>0&#45;&gt;1</title>
<path fill="none" stroke="#000000" d="M60.3868,-63.3102C65.3179,-79.7994 74.9581,-103.5613 92,-117.1586 110.3958,-131.8363 137.1615,-136.9227 156.7213,-138.5869"/>
<polygon fill="#000000" stroke="#000000" points="163.8325,-139.07 156.6351,-141.7382 160.3406,-138.8327 156.8486,-138.5955 156.8486,-138.5955 156.8486,-138.5955 160.3406,-138.8327 157.0622,-135.4527 163.8325,-139.07 163.8325,-139.07"/>
<text text-anchor="start" x="93.5" y="-139.5586" font-family="Lato" font-size="12.00" fill="#000000">p0 &amp; !p1</text>
</g>
<!-- 2 -->
<g id="node4" class="node">
<title>2</title>
<path fill="#ffffa0" stroke="#000000" d="M448,-94.1586C448,-94.1586 428,-94.1586 428,-94.1586 422,-94.1586 416,-88.1586 416,-82.1586 416,-82.1586 416,-70.1586 416,-70.1586 416,-64.1586 422,-58.1586 428,-58.1586 428,-58.1586 448,-58.1586 448,-58.1586 454,-58.1586 460,-64.1586 460,-70.1586 460,-70.1586 460,-82.1586 460,-82.1586 460,-88.1586 454,-94.1586 448,-94.1586"/>
<text text-anchor="start" x="434.5" y="-79.5586" font-family="Lato" font-size="12.00" fill="#000000">2</text>
<text text-anchor="start" x="424" y="-67.5586" font-family="Lato" font-size="12.00" fill="#1f78b4">⓿</text>
<text text-anchor="start" x="438" y="-67.5586" font-family="Lato" font-size="12.00" fill="#6a3d9a">❸</text>
</g>
<!-- 0&#45;&gt;2 -->
<g id="edge4" class="edge">
<title>0&#45;&gt;2</title>
<path fill="none" stroke="#000000" d="M74.1898,-39.975C79.854,-38.533 86.149,-37.1046 92,-36.1586 171.0962,-23.3701 192.291,-18.0204 272,-26.1586 328.8841,-31.9664 344.7302,-31.3773 398,-52.1586 401.8667,-53.6671 405.7883,-55.5334 409.5879,-57.5539"/>
<polygon fill="#000000" stroke="#000000" points="415.8359,-61.0638 408.1902,-60.3817 412.7844,-59.3496 409.733,-57.6354 409.733,-57.6354 409.733,-57.6354 412.7844,-59.3496 411.2758,-54.889 415.8359,-61.0638 415.8359,-61.0638"/>
<text text-anchor="start" x="225.5" y="-29.5586" font-family="Lato" font-size="12.00" fill="#000000">!p0 &amp; p1</text>
</g>
<!-- 3 -->
<g id="node5" class="node">
<title>3</title>
<path fill="#ffffa0" stroke="#000000" d="M322.5,-94.1586C322.5,-94.1586 302.5,-94.1586 302.5,-94.1586 296.5,-94.1586 290.5,-88.1586 290.5,-82.1586 290.5,-82.1586 290.5,-70.1586 290.5,-70.1586 290.5,-64.1586 296.5,-58.1586 302.5,-58.1586 302.5,-58.1586 322.5,-58.1586 322.5,-58.1586 328.5,-58.1586 334.5,-64.1586 334.5,-70.1586 334.5,-70.1586 334.5,-82.1586 334.5,-82.1586 334.5,-88.1586 328.5,-94.1586 322.5,-94.1586"/>
<text text-anchor="start" x="309" y="-79.5586" font-family="Lato" font-size="12.00" fill="#000000">3</text>
<text text-anchor="start" x="298.5" y="-67.5586" font-family="Lato" font-size="12.00" fill="#ff4da0">❶</text>
<text text-anchor="start" x="312.5" y="-67.5586" font-family="Lato" font-size="12.00" fill="#6a3d9a">❸</text>
</g>
<!-- 0&#45;&gt;3 -->
<g id="edge5" class="edge">
<title>0&#45;&gt;3</title>
<path fill="none" stroke="#000000" d="M74.0366,-47.3385C117.7096,-52.6167 229.4745,-66.1243 283.0265,-72.5965"/>
<polygon fill="#000000" stroke="#000000" points="290.1834,-73.4615 282.856,-75.7487 286.7087,-73.0415 283.234,-72.6215 283.234,-72.6215 283.234,-72.6215 286.7087,-73.0415 283.612,-69.4943 290.1834,-73.4615 290.1834,-73.4615"/>
<text text-anchor="start" x="161" y="-66.5586" font-family="Lato" font-size="12.00" fill="#000000">p0 &amp; p1</text>
</g>
<!-- 1&#45;&gt;0 -->
<g id="edge6" class="edge">
<title>1&#45;&gt;0</title>
<path fill="none" stroke="#000000" d="M165.2325,-120.8734C157.9853,-113.7279 149.0899,-105.8911 140,-100.1586 120.593,-87.9198 111.1771,-93.7545 92,-81.1586 86.4661,-77.5238 81.0885,-72.934 76.2495,-68.2591"/>
<polygon fill="#000000" stroke="#000000" points="71.2281,-63.1943 78.3935,-65.9476 73.6923,-65.6798 76.1565,-68.1654 76.1565,-68.1654 76.1565,-68.1654 73.6923,-65.6798 73.9195,-70.3831 71.2281,-63.1943 71.2281,-63.1943"/>
<text text-anchor="start" x="92" y="-103.5586" font-family="Lato" font-size="12.00" fill="#000000">!p0 &amp; !p1</text>
</g>
<!-- 1&#45;&gt;1 -->
<g id="edge7" class="edge">
<title>1&#45;&gt;1</title>
<path fill="none" stroke="#000000" d="M170.0601,-157.3113C168.2231,-166.6977 172.2031,-175.1586 182,-175.1586 189.1946,-175.1586 193.2521,-170.5956 194.1725,-164.454"/>
<polygon fill="#000000" stroke="#000000" points="193.9399,-157.3113 197.3161,-164.2051 194.0539,-160.8095 194.1678,-164.3076 194.1678,-164.3076 194.1678,-164.3076 194.0539,-160.8095 191.0195,-164.4102 193.9399,-157.3113 193.9399,-157.3113"/>
<text text-anchor="start" x="159.5" y="-178.5586" font-family="Lato" font-size="12.00" fill="#000000">p0 &amp; !p1</text>
</g>
<!-- 1&#45;&gt;2 -->
<g id="edge8" class="edge">
<title>1&#45;&gt;2</title>
<path fill="none" stroke="#000000" d="M195.0142,-157.4609C202.4111,-166.3048 212.4894,-176.0815 224,-181.1586 294.7562,-212.3677 335.3852,-226.544 398,-181.1586 411.2664,-171.5427 424.346,-129.3334 431.7714,-101.4471"/>
<polygon fill="#000000" stroke="#000000" points="433.6227,-94.3479 434.9044,-101.9162 432.7395,-97.7346 431.8563,-101.1214 431.8563,-101.1214 431.8563,-101.1214 432.7395,-97.7346 428.8082,-100.3265 433.6227,-94.3479 433.6227,-94.3479"/>
<text text-anchor="start" x="290" y="-212.5586" font-family="Lato" font-size="12.00" fill="#000000">!p0 &amp; p1</text>
</g>
<!-- 1&#45;&gt;3 -->
<g id="edge9" class="edge">
<title>1&#45;&gt;3</title>
<path fill="none" stroke="#000000" d="M200.3226,-137.6354C219.3113,-135.4044 249.3303,-130.0074 272,-117.1586 279.8883,-112.6876 287.2671,-106.2441 293.5085,-99.7848"/>
<polygon fill="#000000" stroke="#000000" points="298.4699,-94.3983 296.0444,-101.6812 296.0987,-96.9727 293.7274,-99.5471 293.7274,-99.5471 293.7274,-99.5471 296.0987,-96.9727 291.4105,-97.4129 298.4699,-94.3983 298.4699,-94.3983"/>
<text text-anchor="start" x="227" y="-136.5586" font-family="Lato" font-size="12.00" fill="#000000">p0 &amp; p1</text>
</g>
<!-- 2&#45;&gt;0 -->
<g id="edge10" class="edge">
<title>2&#45;&gt;0</title>
<path fill="none" stroke="#000000" d="M425.1168,-57.7938C418.0698,-49.0673 408.6172,-39.239 398,-33.1586 348.2194,-4.6497 329.0235,-11.4182 272,-5.1586 192.0359,3.6192 167.9589,2.3282 92,-24.1586 88.0608,-25.5322 84.0699,-27.3523 80.2504,-29.348"/>
<polygon fill="#000000" stroke="#000000" points="74.0237,-32.8248 78.5998,-26.6619 77.0796,-31.1185 80.1355,-29.4122 80.1355,-29.4122 80.1355,-29.4122 77.0796,-31.1185 81.6712,-32.1625 74.0237,-32.8248 74.0237,-32.8248"/>
<text text-anchor="start" x="224" y="-8.5586" font-family="Lato" font-size="12.00" fill="#000000">!p0 &amp; !p1</text>
</g>
<!-- 2&#45;&gt;1 -->
<g id="edge11" class="edge">
<title>2&#45;&gt;1</title>
<path fill="none" stroke="#000000" d="M415.9492,-90.8503C395.654,-103.81 364.3404,-122.4131 335,-134.1586 308.1803,-144.895 300.6658,-146.5754 272,-150.1586 250.8314,-152.8047 245.1586,-152.8834 224,-150.1586 218.4281,-149.4411 212.5407,-148.209 206.9936,-146.8227"/>
<polygon fill="#000000" stroke="#000000" points="200.1989,-145.0115 207.774,-143.7708 203.5808,-145.913 206.9627,-146.8145 206.9627,-146.8145 206.9627,-146.8145 203.5808,-145.913 206.1513,-149.8583 200.1989,-145.0115 200.1989,-145.0115"/>
<text text-anchor="start" x="290" y="-150.5586" font-family="Lato" font-size="12.00" fill="#000000">p0 &amp; !p1</text>
</g>
<!-- 2&#45;&gt;2 -->
<g id="edge12" class="edge">
<title>2&#45;&gt;2</title>
<path fill="none" stroke="#000000" d="M426.7837,-94.3113C425.0581,-103.6977 428.7969,-112.1586 438,-112.1586 444.7585,-112.1586 448.5701,-107.5956 449.4347,-101.454"/>
<polygon fill="#000000" stroke="#000000" points="449.2163,-94.3113 452.5789,-101.2117 449.3233,-97.8097 449.4304,-101.308 449.4304,-101.308 449.4304,-101.308 449.3233,-97.8097 446.2818,-101.4044 449.2163,-94.3113 449.2163,-94.3113"/>
<text text-anchor="start" x="415.5" y="-115.5586" font-family="Lato" font-size="12.00" fill="#000000">!p0 &amp; p1</text>
</g>
<!-- 2&#45;&gt;3 -->
<g id="edge13" class="edge">
<title>2&#45;&gt;3</title>
<path fill="none" stroke="#000000" d="M415.6513,-76.1586C395.0124,-76.1586 364.2292,-76.1586 341.6628,-76.1586"/>
<polygon fill="#000000" stroke="#000000" points="334.648,-76.1586 341.648,-73.0087 338.148,-76.1587 341.648,-76.1587 341.648,-76.1587 341.648,-76.1587 338.148,-76.1587 341.6479,-79.3087 334.648,-76.1586 334.648,-76.1586"/>
<text text-anchor="start" x="354.5" y="-79.5586" font-family="Lato" font-size="12.00" fill="#000000">p0 &amp; p1</text>
</g>
<!-- 3&#45;&gt;0 -->
<g id="edge14" class="edge">
<title>3&#45;&gt;0</title>
<path fill="none" stroke="#000000" d="M290.2853,-67.7188C284.3634,-65.5271 277.9557,-63.2078 272,-61.1586 242.8923,-51.1436 236.418,-44.8812 206,-40.1586 184.9192,-36.8857 179.3269,-39.6362 158,-40.1586 131.7958,-40.8005 101.8388,-42.3686 81.2034,-43.579"/>
<polygon fill="#000000" stroke="#000000" points="74.0468,-44.0064 80.8465,-40.4446 77.5406,-43.7977 81.0344,-43.589 81.0344,-43.589 81.0344,-43.589 77.5406,-43.7977 81.2222,-46.7334 74.0468,-44.0064 74.0468,-44.0064"/>
<text text-anchor="start" x="158" y="-43.5586" font-family="Lato" font-size="12.00" fill="#000000">!p0 &amp; !p1</text>
</g>
<!-- 3&#45;&gt;1 -->
<g id="edge15" class="edge">
<title>3&#45;&gt;1</title>
<path fill="none" stroke="#000000" d="M290.2854,-79.136C271.6754,-82.3239 244.8801,-88.5723 224,-100.1586 216.3869,-104.3831 209.0714,-110.276 202.7394,-116.2032"/>
<polygon fill="#000000" stroke="#000000" points="197.667,-121.1542 200.4761,-114.0105 200.1717,-118.7095 202.6764,-116.2647 202.6764,-116.2647 202.6764,-116.2647 200.1717,-118.7095 204.8766,-118.5189 197.667,-121.1542 197.667,-121.1542"/>
<text text-anchor="start" x="225.5" y="-103.5586" font-family="Lato" font-size="12.00" fill="#000000">p0 &amp; !p1</text>
</g>
<!-- 3&#45;&gt;2 -->
<g id="edge16" class="edge">
<title>3&#45;&gt;2</title>
<path fill="none" stroke="#000000" d="M334.7005,-64.9846C340.5118,-62.5808 346.8701,-60.393 353,-59.1586 372.6064,-55.2105 378.4024,-55.1669 398,-59.1586 401.6045,-59.8928 405.2867,-60.9638 408.8863,-62.2168"/>
<polygon fill="#000000" stroke="#000000" points="415.6647,-64.8098 408.0012,-65.2508 412.3957,-63.5593 409.1267,-62.3087 409.1267,-62.3087 409.1267,-62.3087 412.3957,-63.5593 410.2522,-59.3666 415.6647,-64.8098 415.6647,-64.8098"/>
<text text-anchor="start" x="353" y="-62.5586" font-family="Lato" font-size="12.00" fill="#000000">!p0 &amp; p1</text>
</g>
<!-- 3&#45;&gt;3 -->
<g id="edge17" class="edge">
<title>3&#45;&gt;3</title>
<path fill="none" stroke="#000000" d="M301.2837,-94.3113C299.5581,-103.6977 303.2969,-112.1586 312.5,-112.1586 319.2585,-112.1586 323.0701,-107.5956 323.9347,-101.454"/>
<polygon fill="#000000" stroke="#000000" points="323.7163,-94.3113 327.0789,-101.2117 323.8233,-97.8097 323.9304,-101.308 323.9304,-101.308 323.9304,-101.308 323.8233,-97.8097 320.7818,-101.4044 323.7163,-94.3113 323.7163,-94.3113"/>
<text text-anchor="start" x="291.5" y="-115.5586" font-family="Lato" font-size="12.00" fill="#000000">p0 &amp; p1</text>
</g>
</g>
</svg>
