<?xml version="1.0" encoding="UTF-8" standalone="no"?>
<?xml-stylesheet href="spot.css" type="text/css"?>
<!DOCTYPE svg PUBLIC "-//W3C//DTD SVG 1.1//EN"
 "http://www.w3.org/Graphics/SVG/1.1/DTD/svg11.dtd">
<!-- Generated by graphviz version 2.40.1 (20161225.0304)
 -->
<!-- Pages: 1 -->
<svg width="454pt" height="169pt"
 viewBox="0.00 0.00 453.60 168.80" xmlns="http://www.w3.org/2000/svg" xmlns:xlink="http://www.w3.org/1999/xlink">
<g id="graph0" class="graph" transform="scale(1 1) rotate(0) translate(4 164.8)">
<polygon fill="#ffffff" stroke="transparent" points="-4,4 -4,-164.8 449.6,-164.8 449.6,4 -4,4"/>
<text text-anchor="start" x="203.8" y="-148.2" font-family="Lato" font-size="12.00" fill="#000000">Fin(</text>
<text text-anchor="start" x="223.8" y="-148.2" font-family="Lato" font-size="12.00" fill="#1f78b4">⓿</text>
<text text-anchor="start" x="237.8" y="-148.2" font-family="Lato" font-size="12.00" fill="#000000">)</text>
<text text-anchor="start" x="195.3" y="-136.2" font-family="Lato" font-size="12.00" fill="#000000">[co&#45;Büchi]</text>
<!-- I -->
<!-- 0 -->
<g id="node2" class="node">
<title>0</title>
<path fill="#ffffa0" stroke="#000000" d="M109,-72.8C109,-72.8 50,-72.8 50,-72.8 44,-72.8 38,-66.8 38,-60.8 38,-60.8 38,-48.8 38,-48.8 38,-42.8 44,-36.8 50,-36.8 50,-36.8 109,-36.8 109,-36.8 115,-36.8 121,-42.8 121,-48.8 121,-48.8 121,-60.8 121,-60.8 121,-66.8 115,-72.8 109,-72.8"/>
<text text-anchor="start" x="46" y="-51.7" font-family="Lato" font-size="12.00" fill="#000000">GF(a &lt;&#45;&gt; Xb)</text>
</g>
<!-- I&#45;&gt;0 -->
<g id="edge1" class="edge">
<title>I&#45;&gt;0</title>
<path fill="none" stroke="#000000" d="M1.0045,-54.8C3.647,-54.8 16.3226,-54.8 30.7425,-54.8"/>
<polygon fill="#000000" stroke="#000000" points="37.9251,-54.8 30.9251,-57.9501 34.4251,-54.8 30.9251,-54.8001 30.9251,-54.8001 30.9251,-54.8001 34.4251,-54.8 30.925,-51.6501 37.9251,-54.8 37.9251,-54.8"/>
</g>
<!-- &#45;1 -->
<g id="node3" class="node">
<title>&#45;1</title>
<ellipse fill="#ffffa0" stroke="#000000" cx="168.8" cy="-124.8" rx="1.8" ry="1.8"/>
</g>
<!-- 0&#45;&gt;&#45;1 -->
<g id="edge2" class="edge">
<title>0&#45;&gt;&#45;1</title>
<path fill="none" stroke="#000000" d="M95.9483,-73.0278C107.2511,-84.8255 123.0464,-99.9522 139,-110.8 145.7594,-115.3962 154.2657,-119.2259 160.4582,-121.7114"/>
<polygon fill="none" stroke="#000000" points="159.6726,-124.0335 167.0869,-124.2131 161.4029,-119.4492 159.6726,-124.0335"/>
<text text-anchor="start" x="139" y="-119.2" font-family="Lato" font-size="12.00" fill="#000000">!a</text>
</g>
<!-- &#45;4 -->
<g id="node5" class="node">
<title>&#45;4</title>
<ellipse fill="#ffffa0" stroke="#000000" cx="168.8" cy="-1.8" rx="1.8" ry="1.8"/>
</g>
<!-- 0&#45;&gt;&#45;4 -->
<g id="edge5" class="edge">
<title>0&#45;&gt;&#45;4</title>
<path fill="none" stroke="#000000" d="M109.9822,-36.7086C128.0454,-25.988 149.5598,-13.2192 160.8993,-6.4891"/>
<polygon fill="none" stroke="#000000" points="162.1874,-8.5737 166.9566,-2.8941 159.6865,-4.3599 162.1874,-8.5737"/>
<text text-anchor="start" x="140.5" y="-23.2" font-family="Lato" font-size="12.00" fill="#000000">a</text>
</g>
<!-- &#45;7 -->
<g id="node7" class="node">
<title>&#45;7</title>
<ellipse fill="#ffffa0" stroke="#000000" cx="168.8" cy="-47.8" rx="1.8" ry="1.8"/>
</g>
<!-- 0&#45;&gt;&#45;7 -->
<g id="edge8" class="edge">
<title>0&#45;&gt;&#45;7</title>
<path fill="none" stroke="#000000" d="M121.0437,-52.008C130.2528,-51.3343 139.9609,-50.5815 149,-49.8 152.511,-49.4964 156.3675,-49.1173 159.7367,-48.7709"/>
<polygon fill="none" stroke="#000000" points="160.2433,-51.181 166.9454,-48.0054 159.7258,-46.3084 160.2433,-51.181"/>
<text text-anchor="start" x="140.5" y="-54.2" font-family="Lato" font-size="12.00" fill="#000000">1</text>
</g>
<!-- &#45;1&#45;&gt;0 -->
<g id="edge3" class="edge">
<title>&#45;1&#45;&gt;0</title>
<path fill="none" stroke="#000000" d="M167.0363,-123.4175C159.6722,-117.6449 130.7121,-94.9439 108.0938,-77.2139"/>
<polygon fill="#000000" stroke="#000000" points="102.497,-72.8267 109.9495,-74.6661 105.2516,-74.986 108.0061,-77.1453 108.0061,-77.1453 108.0061,-77.1453 105.2516,-74.986 106.0628,-79.6244 102.497,-72.8267 102.497,-72.8267"/>
</g>
<!-- 3 -->
<g id="node4" class="node">
<title>3</title>
<path fill="#ffffa0" stroke="#000000" d="M351.6,-107.8C351.6,-107.8 339.6,-107.8 339.6,-107.8 333.6,-107.8 327.6,-101.8 327.6,-95.8 327.6,-95.8 327.6,-83.8 327.6,-83.8 327.6,-77.8 333.6,-71.8 339.6,-71.8 339.6,-71.8 351.6,-71.8 351.6,-71.8 357.6,-71.8 363.6,-77.8 363.6,-83.8 363.6,-83.8 363.6,-95.8 363.6,-95.8 363.6,-101.8 357.6,-107.8 351.6,-107.8"/>
<text text-anchor="start" x="340.6" y="-86.7" font-family="Lato" font-size="12.00" fill="#000000">!b</text>
</g>
<!-- &#45;1&#45;&gt;3 -->
<g id="edge4" class="edge">
<title>&#45;1&#45;&gt;3</title>
<path fill="none" stroke="#000000" d="M170.6707,-124.5409C181.467,-123.0337 236.8889,-115.1396 281.6,-105.8 294.505,-103.1043 308.7443,-99.5979 320.5087,-96.5549"/>
<polygon fill="#000000" stroke="#000000" points="327.4799,-94.7315 321.5049,-99.5504 324.0938,-95.6172 320.7078,-96.5029 320.7078,-96.5029 320.7078,-96.5029 324.0938,-95.6172 319.9106,-93.4555 327.4799,-94.7315 327.4799,-94.7315"/>
</g>
<!-- 4 -->
<g id="node9" class="node">
<title>4</title>
<path fill="#ffffa0" stroke="#000000" d="M433.6,-80.8C433.6,-80.8 421.6,-80.8 421.6,-80.8 415.6,-80.8 409.6,-74.8 409.6,-68.8 409.6,-68.8 409.6,-56.8 409.6,-56.8 409.6,-50.8 415.6,-44.8 421.6,-44.8 421.6,-44.8 433.6,-44.8 433.6,-44.8 439.6,-44.8 445.6,-50.8 445.6,-56.8 445.6,-56.8 445.6,-68.8 445.6,-68.8 445.6,-74.8 439.6,-80.8 433.6,-80.8"/>
<text text-anchor="middle" x="427.6" y="-59.7" font-family="Lato" font-size="12.00" fill="#000000">t</text>
</g>
<!-- 3&#45;&gt;4 -->
<g id="edge15" class="edge">
<title>3&#45;&gt;4</title>
<path fill="none" stroke="#000000" d="M363.7985,-83.8078C375.264,-80.0326 390.2178,-75.1088 402.7661,-70.977"/>
<polygon fill="#000000" stroke="#000000" points="409.4524,-68.7754 403.7888,-73.9567 406.128,-69.8701 402.8036,-70.9647 402.8036,-70.9647 402.8036,-70.9647 406.128,-69.8701 401.8184,-67.9728 409.4524,-68.7754 409.4524,-68.7754"/>
<text text-anchor="start" x="381.6" y="-81.2" font-family="Lato" font-size="12.00" fill="#000000">!b</text>
</g>
<!-- &#45;4&#45;&gt;0 -->
<g id="edge6" class="edge">
<title>&#45;4&#45;&gt;0</title>
<path fill="none" stroke="#000000" d="M166.8306,-2.1512C161.9266,-3.0764 148.8543,-5.8559 139,-10.8 127.4809,-16.5794 115.8534,-24.5854 105.9711,-32.1857"/>
<polygon fill="#000000" stroke="#000000" points="100.3683,-36.5938 103.9219,-29.7898 103.119,-34.4297 105.8697,-32.2655 105.8697,-32.2655 105.8697,-32.2655 103.119,-34.4297 107.8175,-34.7411 100.3683,-36.5938 100.3683,-36.5938"/>
</g>
<!-- 2 -->
<g id="node6" class="node">
<title>2</title>
<path fill="#ffffa0" stroke="#000000" d="M351.6,-53.8C351.6,-53.8 339.6,-53.8 339.6,-53.8 333.6,-53.8 327.6,-47.8 327.6,-41.8 327.6,-41.8 327.6,-29.8 327.6,-29.8 327.6,-23.8 333.6,-17.8 339.6,-17.8 339.6,-17.8 351.6,-17.8 351.6,-17.8 357.6,-17.8 363.6,-23.8 363.6,-29.8 363.6,-29.8 363.6,-41.8 363.6,-41.8 363.6,-47.8 357.6,-53.8 351.6,-53.8"/>
<text text-anchor="start" x="342.1" y="-32.7" font-family="Lato" font-size="12.00" fill="#000000">b</text>
</g>
<!-- &#45;4&#45;&gt;2 -->
<g id="edge7" class="edge">
<title>&#45;4&#45;&gt;2</title>
<path fill="none" stroke="#000000" d="M170.6686,-2.0693C181.4533,-3.6334 236.8212,-11.7906 281.6,-20.8 294.4784,-23.3911 308.715,-26.6848 320.4846,-29.5253"/>
<polygon fill="#000000" stroke="#000000" points="327.4598,-31.2251 319.913,-32.6282 324.0593,-30.3964 320.6588,-29.5677 320.6588,-29.5677 320.6588,-29.5677 324.0593,-30.3964 321.4046,-26.5073 327.4598,-31.2251 327.4598,-31.2251"/>
</g>
<!-- 2&#45;&gt;4 -->
<g id="edge14" class="edge">
<title>2&#45;&gt;4</title>
<path fill="none" stroke="#000000" d="M364.023,-41.1724C372.4599,-43.6928 382.5696,-46.7975 391.6,-49.8 395.1351,-50.9754 398.8483,-52.2594 402.4922,-53.5481"/>
<polygon fill="#000000" stroke="#000000" points="409.3489,-56.0049 401.6966,-56.6091 406.054,-54.8243 402.7591,-53.6437 402.7591,-53.6437 402.7591,-53.6437 406.054,-54.8243 403.8216,-50.6783 409.3489,-56.0049 409.3489,-56.0049"/>
<text text-anchor="start" x="383.1" y="-53.2" font-family="Lato" font-size="12.00" fill="#000000">b</text>
</g>
<!-- &#45;7&#45;&gt;0 -->
<g id="edge9" class="edge">
<title>&#45;7&#45;&gt;0</title>
<path fill="none" stroke="#000000" d="M166.7617,-47.9598C161.2156,-48.3945 145.1345,-49.6551 128.2633,-50.9776"/>
<polygon fill="#000000" stroke="#000000" points="121.0128,-51.5459 127.7452,-47.8584 124.5021,-51.2724 127.9914,-50.9988 127.9914,-50.9988 127.9914,-50.9988 124.5021,-51.2724 128.2376,-54.1392 121.0128,-51.5459 121.0128,-51.5459"/>
</g>
<!-- 1 -->
<g id="node8" class="node">
<title>1</title>
<path fill="#ffffa0" stroke="#000000" d="M269.6,-65.8C269.6,-65.8 219.6,-65.8 219.6,-65.8 213.6,-65.8 207.6,-59.8 207.6,-53.8 207.6,-53.8 207.6,-41.8 207.6,-41.8 207.6,-35.8 213.6,-29.8 219.6,-29.8 219.6,-29.8 269.6,-29.8 269.6,-29.8 275.6,-29.8 281.6,-35.8 281.6,-41.8 281.6,-41.8 281.6,-53.8 281.6,-53.8 281.6,-59.8 275.6,-65.8 269.6,-65.8"/>
<text text-anchor="start" x="215.6" y="-51.2" font-family="Lato" font-size="12.00" fill="#000000">F(a &lt;&#45;&gt; Xb)</text>
<text text-anchor="start" x="237.6" y="-38.2" font-family="Lato" font-size="12.00" fill="#1f78b4">⓿</text>
</g>
<!-- &#45;7&#45;&gt;1 -->
<g id="edge10" class="edge">
<title>&#45;7&#45;&gt;1</title>
<path fill="none" stroke="#000000" d="M170.6737,-47.8C175.1364,-47.8 186.9927,-47.8 199.9367,-47.8"/>
<polygon fill="#000000" stroke="#000000" points="207.1996,-47.8 200.1997,-50.9501 203.6996,-47.8 200.1996,-47.8001 200.1996,-47.8001 200.1996,-47.8001 203.6996,-47.8 200.1996,-44.6501 207.1996,-47.8 207.1996,-47.8"/>
</g>
<!-- 1&#45;&gt;3 -->
<g id="edge11" class="edge">
<title>1&#45;&gt;3</title>
<path fill="none" stroke="#000000" d="M281.6352,-63.2008C294.7186,-68.6414 309.1029,-74.623 320.9118,-79.5336"/>
<polygon fill="#000000" stroke="#000000" points="327.5378,-82.289 319.8648,-82.5097 324.306,-80.9451 321.0743,-79.6011 321.0743,-79.6011 321.0743,-79.6011 324.306,-80.9451 322.2838,-76.6926 327.5378,-82.289 327.5378,-82.289"/>
<text text-anchor="start" x="299.6" y="-77.2" font-family="Lato" font-size="12.00" fill="#000000">!a</text>
</g>
<!-- 1&#45;&gt;2 -->
<g id="edge12" class="edge">
<title>1&#45;&gt;2</title>
<path fill="none" stroke="#000000" d="M281.6352,-43.3998C294.5964,-41.8598 308.8342,-40.1682 320.58,-38.7727"/>
<polygon fill="#000000" stroke="#000000" points="327.5378,-37.946 320.9583,-41.9 324.0622,-38.359 320.5867,-38.772 320.5867,-38.772 320.5867,-38.772 324.0622,-38.359 320.215,-35.644 327.5378,-37.946 327.5378,-37.946"/>
<text text-anchor="start" x="301.1" y="-45.2" font-family="Lato" font-size="12.00" fill="#000000">a</text>
</g>
<!-- 1&#45;&gt;1 -->
<g id="edge13" class="edge">
<title>1&#45;&gt;1</title>
<path fill="none" stroke="#000000" d="M234.831,-65.9527C233.328,-75.3391 236.5844,-83.8 244.6,-83.8 250.4865,-83.8 253.8062,-79.237 254.5593,-73.0953"/>
<polygon fill="#000000" stroke="#000000" points="254.369,-65.9527 257.7044,-72.8663 254.4623,-69.4515 254.5555,-72.9502 254.5555,-72.9502 254.5555,-72.9502 254.4623,-69.4515 251.4066,-73.0341 254.369,-65.9527 254.369,-65.9527"/>
<text text-anchor="start" x="241.1" y="-87.2" font-family="Lato" font-size="12.00" fill="#000000">1</text>
</g>
<!-- 4&#45;&gt;4 -->
<g id="edge16" class="edge">
<title>4&#45;&gt;4</title>
<path fill="none" stroke="#000000" d="M420.3637,-80.9527C419.2504,-90.3391 421.6625,-98.8 427.6,-98.8 431.9604,-98.8 434.4194,-94.237 434.9773,-88.0953"/>
<polygon fill="#000000" stroke="#000000" points="434.8363,-80.9527 438.1239,-87.8892 434.9054,-84.452 434.9745,-87.9513 434.9745,-87.9513 434.9745,-87.9513 434.9054,-84.452 431.8251,-88.0135 434.8363,-80.9527 434.8363,-80.9527"/>
<text text-anchor="start" x="424.1" y="-102.2" font-family="Lato" font-size="12.00" fill="#000000">1</text>
</g>
</g>
</svg>
