<?xml version="1.0" encoding="UTF-8" standalone="no"?>
<?xml-stylesheet href="spot.css" type="text/css"?>
<!DOCTYPE svg PUBLIC "-//W3C//DTD SVG 1.1//EN"
 "http://www.w3.org/Graphics/SVG/1.1/DTD/svg11.dtd">
<!-- Generated by graphviz version 2.40.1 (20161225.0304)
 -->
<!-- Title: G(Fa &amp; Fb) Pages: 1 -->
<svg width="405pt" height="255pt"
 viewBox="0.00 0.00 405.00 254.72" xmlns="http://www.w3.org/2000/svg" xmlns:xlink="http://www.w3.org/1999/xlink">
<g id="graph0" class="graph" transform="scale(1 1) rotate(0) translate(4 250.7201)">
<title>G(Fa &amp; Fb)</title>
<polygon fill="#ffffff" stroke="transparent" points="-4,4 -4,-250.7201 401,-250.7201 401,4 -4,4"/>
<text text-anchor="start" x="159" y="-234.1201" font-family="Lato" font-size="12.00" fill="#000000">Inf(</text>
<text text-anchor="start" x="177" y="-234.1201" font-family="Lato" font-size="12.00" fill="#1f78b4">⓿</text>
<text text-anchor="start" x="191" y="-234.1201" font-family="Lato" font-size="12.00" fill="#000000">)&amp;Inf(</text>
<text text-anchor="start" x="220" y="-234.1201" font-family="Lato" font-size="12.00" fill="#ff4da0">❶</text>
<text text-anchor="start" x="234" y="-234.1201" font-family="Lato" font-size="12.00" fill="#000000">)</text>
<text text-anchor="start" x="162" y="-222.1201" font-family="Lato" font-size="12.00" fill="#000000">[gen. Büchi 2]</text>
<!-- I -->
<!-- 0 -->
<g id="node2" class="node">
<title>0</title>
<path fill="#ffffa0" stroke="#000000" d="M70,-59.7201C70,-59.7201 50,-59.7201 50,-59.7201 44,-59.7201 38,-53.7201 38,-47.7201 38,-47.7201 38,-35.7201 38,-35.7201 38,-29.7201 44,-23.7201 50,-23.7201 50,-23.7201 70,-23.7201 70,-23.7201 76,-23.7201 82,-29.7201 82,-35.7201 82,-35.7201 82,-47.7201 82,-47.7201 82,-53.7201 76,-59.7201 70,-59.7201"/>
<text text-anchor="start" x="56.5" y="-45.1201" font-family="Lato" font-size="12.00" fill="#000000">0</text>
<text text-anchor="start" x="46" y="-33.1201" font-family="Lato" font-size="12.00" fill="#1f78b4">⓿</text>
<text text-anchor="start" x="60" y="-33.1201" font-family="Lato" font-size="12.00" fill="#ff4da0">❶</text>
</g>
<!-- I&#45;&gt;0 -->
<g id="edge1" class="edge">
<title>I&#45;&gt;0</title>
<path fill="none" stroke="#000000" d="M1.1682,-41.7201C4.2491,-41.7201 17.4946,-41.7201 30.6388,-41.7201"/>
<polygon fill="#000000" stroke="#000000" points="37.8655,-41.7201 30.8656,-44.8702 34.3655,-41.7202 30.8655,-41.7202 30.8655,-41.7202 30.8655,-41.7202 34.3655,-41.7202 30.8655,-38.5702 37.8655,-41.7201 37.8655,-41.7201"/>
</g>
<!-- 0&#45;&gt;0 -->
<g id="edge2" class="edge">
<title>0&#45;&gt;0</title>
<path fill="none" stroke="#000000" d="M52.7637,-59.8728C51.6504,-69.2592 54.0625,-77.7201 60,-77.7201 64.3604,-77.7201 66.8194,-73.1571 67.3773,-67.0155"/>
<polygon fill="#000000" stroke="#000000" points="67.2363,-59.8728 70.5239,-66.8093 67.3054,-63.3721 67.3745,-66.8715 67.3745,-66.8715 67.3745,-66.8715 67.3054,-63.3721 64.2251,-66.9336 67.2363,-59.8728 67.2363,-59.8728"/>
<text text-anchor="start" x="46" y="-81.1201" font-family="Lato" font-size="12.00" fill="#000000">a &amp; b</text>
</g>
<!-- 1 -->
<g id="node3" class="node">
<title>1</title>
<path fill="#ffffa0" stroke="#000000" d="M173,-153.7201C173,-153.7201 161,-153.7201 161,-153.7201 155,-153.7201 149,-147.7201 149,-141.7201 149,-141.7201 149,-129.7201 149,-129.7201 149,-123.7201 155,-117.7201 161,-117.7201 161,-117.7201 173,-117.7201 173,-117.7201 179,-117.7201 185,-123.7201 185,-129.7201 185,-129.7201 185,-141.7201 185,-141.7201 185,-147.7201 179,-153.7201 173,-153.7201"/>
<text text-anchor="start" x="163.5" y="-139.1201" font-family="Lato" font-size="12.00" fill="#000000">1</text>
<text text-anchor="start" x="160" y="-126.1201" font-family="Lato" font-size="12.00" fill="#1f78b4">⓿</text>
</g>
<!-- 0&#45;&gt;1 -->
<g id="edge3" class="edge">
<title>0&#45;&gt;1</title>
<path fill="none" stroke="#000000" d="M65.7866,-59.9065C71.8534,-76.1866 82.9127,-99.6035 100,-113.7201 111.7864,-123.4574 128.0163,-128.9299 141.5502,-131.9813"/>
<polygon fill="#000000" stroke="#000000" points="148.7463,-133.4392 141.2602,-135.1365 145.316,-132.7442 141.8856,-132.0492 141.8856,-132.0492 141.8856,-132.0492 145.316,-132.7442 142.5111,-128.9619 148.7463,-133.4392 148.7463,-133.4392"/>
<text text-anchor="start" x="100" y="-132.1201" font-family="Lato" font-size="12.00" fill="#000000">a &amp; !b</text>
</g>
<!-- 2 -->
<g id="node4" class="node">
<title>2</title>
<path fill="#ffffa0" stroke="#000000" d="M385,-90.7201C385,-90.7201 373,-90.7201 373,-90.7201 367,-90.7201 361,-84.7201 361,-78.7201 361,-78.7201 361,-66.7201 361,-66.7201 361,-60.7201 367,-54.7201 373,-54.7201 373,-54.7201 385,-54.7201 385,-54.7201 391,-54.7201 397,-60.7201 397,-66.7201 397,-66.7201 397,-78.7201 397,-78.7201 397,-84.7201 391,-90.7201 385,-90.7201"/>
<text text-anchor="start" x="375.5" y="-76.1201" font-family="Lato" font-size="12.00" fill="#000000">2</text>
<text text-anchor="start" x="372" y="-63.1201" font-family="Lato" font-size="12.00" fill="#ff4da0">❶</text>
</g>
<!-- 0&#45;&gt;2 -->
<g id="edge4" class="edge">
<title>0&#45;&gt;2</title>
<path fill="none" stroke="#000000" d="M82.1963,-34.0188C87.9307,-32.3184 94.1405,-30.7258 100,-29.7201 160.0513,-19.4131 176.4478,-17.9508 237,-24.7201 285.0045,-30.0867 298.6104,-29.6729 343,-48.7201 346.8915,-50.3899 350.8149,-52.4882 354.5674,-54.7452"/>
<polygon fill="#000000" stroke="#000000" points="360.6854,-58.6459 353.0896,-57.5387 357.7342,-56.7642 354.783,-54.8826 354.783,-54.8826 354.783,-54.8826 357.7342,-56.7642 356.4765,-52.2265 360.6854,-58.6459 360.6854,-58.6459"/>
<text text-anchor="start" x="204.5" y="-28.1201" font-family="Lato" font-size="12.00" fill="#000000">!a &amp; b</text>
</g>
<!-- 3 -->
<g id="node5" class="node">
<title>3</title>
<path fill="#ffffa0" stroke="#000000" d="M279,-90.7201C279,-90.7201 267,-90.7201 267,-90.7201 261,-90.7201 255,-84.7201 255,-78.7201 255,-78.7201 255,-66.7201 255,-66.7201 255,-60.7201 261,-54.7201 267,-54.7201 267,-54.7201 279,-54.7201 279,-54.7201 285,-54.7201 291,-60.7201 291,-66.7201 291,-66.7201 291,-78.7201 291,-78.7201 291,-84.7201 285,-90.7201 279,-90.7201"/>
<text text-anchor="middle" x="273" y="-69.6201" font-family="Lato" font-size="12.00" fill="#000000">3</text>
</g>
<!-- 0&#45;&gt;3 -->
<g id="edge5" class="edge">
<title>0&#45;&gt;3</title>
<path fill="none" stroke="#000000" d="M82.3922,-44.9791C122.3941,-50.8009 205.8604,-62.9486 247.8021,-69.0528"/>
<polygon fill="#000000" stroke="#000000" points="254.8893,-70.0843 247.5086,-72.1932 251.4258,-69.5802 247.9623,-69.076 247.9623,-69.076 247.9623,-69.076 251.4258,-69.5802 248.416,-65.9589 254.8893,-70.0843 254.8893,-70.0843"/>
<text text-anchor="start" x="150" y="-63.1201" font-family="Lato" font-size="12.00" fill="#000000">!a &amp; !b</text>
</g>
<!-- 1&#45;&gt;0 -->
<g id="edge6" class="edge">
<title>1&#45;&gt;0</title>
<path fill="none" stroke="#000000" d="M152.1791,-117.6274C146.0172,-110.6714 138.5478,-102.9194 131,-96.7201 118.5124,-86.4636 112.9487,-87.3879 100,-77.7201 94.7221,-73.7795 89.3176,-69.2791 84.2564,-64.8261"/>
<polygon fill="#000000" stroke="#000000" points="78.9216,-60.0413 86.236,-62.3701 81.5272,-62.3782 84.1328,-64.7151 84.1328,-64.7151 84.1328,-64.7151 81.5272,-62.3782 82.0295,-67.0602 78.9216,-60.0413 78.9216,-60.0413"/>
<text text-anchor="start" x="101.5" y="-100.1201" font-family="Lato" font-size="12.00" fill="#000000">a &amp; b</text>
</g>
<!-- 1&#45;&gt;1 -->
<g id="edge7" class="edge">
<title>1&#45;&gt;1</title>
<path fill="none" stroke="#000000" d="M157.9546,-153.8728C156.563,-163.2592 159.5781,-171.7201 167,-171.7201 172.4504,-171.7201 175.5243,-167.1571 176.2216,-161.0155"/>
<polygon fill="#000000" stroke="#000000" points="176.0454,-153.8728 179.3671,-160.793 176.1318,-157.3718 176.2181,-160.8707 176.2181,-160.8707 176.2181,-160.8707 176.1318,-157.3718 173.0691,-160.9484 176.0454,-153.8728 176.0454,-153.8728"/>
<text text-anchor="start" x="151.5" y="-175.1201" font-family="Lato" font-size="12.00" fill="#000000">a &amp; !b</text>
</g>
<!-- 1&#45;&gt;2 -->
<g id="edge8" class="edge">
<title>1&#45;&gt;2</title>
<path fill="none" stroke="#000000" d="M177.6348,-153.921C183.8327,-162.7372 192.5009,-172.5196 203,-177.7201 258.7572,-205.3379 293.4307,-215.3298 343,-177.7201 355.8949,-167.9364 367.3681,-125.7795 373.733,-97.9492"/>
<polygon fill="#000000" stroke="#000000" points="375.3143,-90.8648 376.8636,-98.3829 374.5518,-94.2807 373.7892,-97.6967 373.7892,-97.6967 373.7892,-97.6967 374.5518,-94.2807 370.7149,-97.0104 375.3143,-90.8648 375.3143,-90.8648"/>
<text text-anchor="start" x="257.5" y="-205.1201" font-family="Lato" font-size="12.00" fill="#000000">!a &amp; b</text>
</g>
<!-- 1&#45;&gt;3 -->
<g id="edge9" class="edge">
<title>1&#45;&gt;3</title>
<path fill="none" stroke="#000000" d="M185.1288,-132.8326C199.992,-129.8334 221.096,-124.0804 237,-113.7201 243.9275,-109.2073 250.316,-103.0058 255.7277,-96.7917"/>
<polygon fill="#000000" stroke="#000000" points="260.4105,-91.1294 258.3768,-98.5312 258.1799,-93.8266 255.9493,-96.5237 255.9493,-96.5237 255.9493,-96.5237 258.1799,-93.8266 253.5219,-94.5162 260.4105,-91.1294 260.4105,-91.1294"/>
<text text-anchor="start" x="203" y="-131.1201" font-family="Lato" font-size="12.00" fill="#000000">!a &amp; !b</text>
</g>
<!-- 2&#45;&gt;0 -->
<g id="edge10" class="edge">
<title>2&#45;&gt;0</title>
<path fill="none" stroke="#000000" d="M366.859,-54.5344C360.6107,-46.4636 352.3432,-37.5032 343,-31.7201 301.5676,-6.0749 285.3213,-9.9946 237,-3.7201 176.1549,4.1805 158.1731,-1.2153 100,-20.7201 96.2818,-21.9668 92.4901,-23.5276 88.7955,-25.2322"/>
<polygon fill="#000000" stroke="#000000" points="82.287,-28.4191 87.1885,-22.5117 85.4304,-26.8799 88.5738,-25.3407 88.5738,-25.3407 88.5738,-25.3407 85.4304,-26.8799 89.959,-28.1698 82.287,-28.4191 82.287,-28.4191"/>
<text text-anchor="start" x="206" y="-7.1201" font-family="Lato" font-size="12.00" fill="#000000">a &amp; b</text>
</g>
<!-- 2&#45;&gt;1 -->
<g id="edge11" class="edge">
<title>2&#45;&gt;1</title>
<path fill="none" stroke="#000000" d="M360.8178,-87.3018C343.7104,-100.3692 316.9171,-119.2019 291,-130.7201 268.3433,-140.7893 261.5943,-141.5838 237,-144.7201 222.0103,-146.6316 217.9979,-146.5664 203,-144.7201 199.4153,-144.2788 195.6742,-143.5992 192.017,-142.8068"/>
<polygon fill="#000000" stroke="#000000" points="185.1509,-141.1769 192.6892,-139.7288 188.5563,-141.9853 191.9617,-142.7937 191.9617,-142.7937 191.9617,-142.7937 188.5563,-141.9853 191.2341,-145.8585 185.1509,-141.1769 185.1509,-141.1769"/>
<text text-anchor="start" x="257.5" y="-145.1201" font-family="Lato" font-size="12.00" fill="#000000">a &amp; !b</text>
</g>
<!-- 2&#45;&gt;2 -->
<g id="edge12" class="edge">
<title>2&#45;&gt;2</title>
<path fill="none" stroke="#000000" d="M369.5928,-90.8728C368.1455,-100.2592 371.2813,-108.7201 379,-108.7201 384.6685,-108.7201 387.8653,-104.1571 388.5904,-98.0155"/>
<polygon fill="#000000" stroke="#000000" points="388.4072,-90.8728 391.7358,-97.7897 388.497,-94.3717 388.5868,-97.8705 388.5868,-97.8705 388.5868,-97.8705 388.497,-94.3717 385.4378,-97.9513 388.4072,-90.8728 388.4072,-90.8728"/>
<text text-anchor="start" x="363.5" y="-112.1201" font-family="Lato" font-size="12.00" fill="#000000">!a &amp; b</text>
</g>
<!-- 2&#45;&gt;3 -->
<g id="edge13" class="edge">
<title>2&#45;&gt;3</title>
<path fill="none" stroke="#000000" d="M360.7478,-72.7201C343.5673,-72.7201 317.6767,-72.7201 298.4669,-72.7201"/>
<polygon fill="#000000" stroke="#000000" points="291.4638,-72.7201 298.4638,-69.5702 294.9638,-72.7202 298.4638,-72.7202 298.4638,-72.7202 298.4638,-72.7202 294.9638,-72.7202 298.4637,-75.8702 291.4638,-72.7201 291.4638,-72.7201"/>
<text text-anchor="start" x="309" y="-76.1201" font-family="Lato" font-size="12.00" fill="#000000">!a &amp; !b</text>
</g>
<!-- 3&#45;&gt;0 -->
<g id="edge14" class="edge">
<title>3&#45;&gt;0</title>
<path fill="none" stroke="#000000" d="M254.7388,-63.0798C237.3583,-54.4871 210.1912,-42.5459 185,-37.7201 152.7813,-31.5481 115.0533,-34.0545 89.541,-37.1455"/>
<polygon fill="#000000" stroke="#000000" points="82.3601,-38.0702 88.9004,-34.0519 85.8314,-37.6231 89.3027,-37.1761 89.3027,-37.1761 89.3027,-37.1761 85.8314,-37.6231 89.7051,-40.3003 82.3601,-38.0702 82.3601,-38.0702"/>
<text text-anchor="start" x="153" y="-41.1201" font-family="Lato" font-size="12.00" fill="#000000">a &amp; b</text>
</g>
<!-- 3&#45;&gt;1 -->
<g id="edge15" class="edge">
<title>3&#45;&gt;1</title>
<path fill="none" stroke="#000000" d="M254.9396,-76.3137C240.1171,-79.8495 219.0345,-86.2643 203,-96.7201 196.6323,-100.8724 190.6299,-106.3988 185.4188,-111.9823"/>
<polygon fill="#000000" stroke="#000000" points="180.4873,-117.5362 182.7797,-110.2103 182.8112,-114.919 185.1351,-112.3019 185.1351,-112.3019 185.1351,-112.3019 182.8112,-114.919 187.4905,-114.3934 180.4873,-117.5362 180.4873,-117.5362"/>
<text text-anchor="start" x="204.5" y="-100.1201" font-family="Lato" font-size="12.00" fill="#000000">a &amp; !b</text>
</g>
<!-- 3&#45;&gt;2 -->
<g id="edge16" class="edge">
<title>3&#45;&gt;2</title>
<path fill="none" stroke="#000000" d="M291.1235,-62.2631C296.6786,-59.5864 302.9301,-57.0812 309,-55.7201 323.7449,-52.4137 328.2551,-52.4137 343,-55.7201 346.7937,-56.5708 350.6583,-57.8684 354.3795,-59.3755"/>
<polygon fill="#000000" stroke="#000000" points="360.8765,-62.2631 353.2005,-62.2985 357.6782,-60.8415 354.4798,-59.42 354.4798,-59.42 354.4798,-59.42 357.6782,-60.8415 355.7592,-56.5415 360.8765,-62.2631 360.8765,-62.2631"/>
<text text-anchor="start" x="310.5" y="-59.1201" font-family="Lato" font-size="12.00" fill="#000000">!a &amp; b</text>
</g>
<!-- 3&#45;&gt;3 -->
<g id="edge17" class="edge">
<title>3&#45;&gt;3</title>
<path fill="none" stroke="#000000" d="M263.5928,-90.8728C262.1455,-100.2592 265.2813,-108.7201 273,-108.7201 278.6685,-108.7201 281.8653,-104.1571 282.5904,-98.0155"/>
<polygon fill="#000000" stroke="#000000" points="282.4072,-90.8728 285.7358,-97.7897 282.497,-94.3717 282.5868,-97.8705 282.5868,-97.8705 282.5868,-97.8705 282.497,-94.3717 279.4378,-97.9513 282.4072,-90.8728 282.4072,-90.8728"/>
<text text-anchor="start" x="256" y="-112.1201" font-family="Lato" font-size="12.00" fill="#000000">!a &amp; !b</text>
</g>
</g>
</svg>
