<?xml version="1.0" encoding="UTF-8" standalone="no"?>
<?xml-stylesheet href="spot.css" type="text/css"?>
<!DOCTYPE svg PUBLIC "-//W3C//DTD SVG 1.1//EN"
 "http://www.w3.org/Graphics/SVG/1.1/DTD/svg11.dtd">
<!-- Generated by graphviz version 2.40.1 (20161225.0304)
 -->
<!-- Pages: 1 -->
<svg width="270pt" height="192pt"
 viewBox="0.00 0.00 270.00 192.06" xmlns="http://www.w3.org/2000/svg" xmlns:xlink="http://www.w3.org/1999/xlink">
<g id="graph0" class="graph" transform="scale(1 1) rotate(0) translate(4 188.0619)">
<polygon fill="#ffffff" stroke="transparent" points="-4,4 -4,-188.0619 266,-188.0619 266,4 -4,4"/>
<text text-anchor="start" x="87.5" y="-171.4619" font-family="Lato" font-size="12.00" fill="#000000">Fin(</text>
<text text-anchor="start" x="107.5" y="-171.4619" font-family="Lato" font-size="12.00" fill="#1f78b4">⓿</text>
<text text-anchor="start" x="121.5" y="-171.4619" font-family="Lato" font-size="12.00" fill="#000000">) &amp; Inf(</text>
<text text-anchor="start" x="156.5" y="-171.4619" font-family="Lato" font-size="12.00" fill="#ff4da0">❶</text>
<text text-anchor="start" x="170.5" y="-171.4619" font-family="Lato" font-size="12.00" fill="#000000">)</text>
<text text-anchor="start" x="107" y="-159.4619" font-family="Lato" font-size="12.00" fill="#000000">[Rabin 1]</text>
<!-- I -->
<!-- 1 -->
<g id="node2" class="node">
<title>1</title>
<path fill="#ffffa0" stroke="#000000" d="M62,-78.0619C62,-78.0619 50,-78.0619 50,-78.0619 44,-78.0619 38,-72.0619 38,-66.0619 38,-66.0619 38,-54.0619 38,-54.0619 38,-48.0619 44,-42.0619 50,-42.0619 50,-42.0619 62,-42.0619 62,-42.0619 68,-42.0619 74,-48.0619 74,-54.0619 74,-54.0619 74,-66.0619 74,-66.0619 74,-72.0619 68,-78.0619 62,-78.0619"/>
<text text-anchor="middle" x="56" y="-56.9619" font-family="Lato" font-size="12.00" fill="#000000">1</text>
</g>
<!-- I&#45;&gt;1 -->
<g id="edge1" class="edge">
<title>I&#45;&gt;1</title>
<path fill="none" stroke="#000000" d="M1.1233,-60.0619C4.178,-60.0619 17.9448,-60.0619 30.9241,-60.0619"/>
<polygon fill="#000000" stroke="#000000" points="37.9807,-60.0619 30.9808,-63.212 34.4807,-60.0619 30.9807,-60.062 30.9807,-60.062 30.9807,-60.062 34.4807,-60.0619 30.9807,-56.912 37.9807,-60.0619 37.9807,-60.0619"/>
</g>
<!-- 1&#45;&gt;1 -->
<g id="edge4" class="edge">
<title>1&#45;&gt;1</title>
<path fill="none" stroke="#000000" d="M49.4873,-78.2146C48.4854,-87.6009 50.6563,-96.0619 56,-96.0619 59.9243,-96.0619 62.1375,-91.4988 62.6395,-85.3572"/>
<polygon fill="#000000" stroke="#000000" points="62.5127,-78.2146 65.7866,-85.1575 62.5749,-81.714 62.6371,-85.2135 62.6371,-85.2135 62.6371,-85.2135 62.5749,-81.714 59.4876,-85.2694 62.5127,-78.2146 62.5127,-78.2146"/>
<text text-anchor="start" x="40.5" y="-99.4619" font-family="Lato" font-size="12.00" fill="#000000">a &amp; !b</text>
</g>
<!-- 0 -->
<g id="node3" class="node">
<title>0</title>
<path fill="#ffffa0" stroke="#000000" d="M168,-121.0619C168,-121.0619 156,-121.0619 156,-121.0619 150,-121.0619 144,-115.0619 144,-109.0619 144,-109.0619 144,-97.0619 144,-97.0619 144,-91.0619 150,-85.0619 156,-85.0619 156,-85.0619 168,-85.0619 168,-85.0619 174,-85.0619 180,-91.0619 180,-97.0619 180,-97.0619 180,-109.0619 180,-109.0619 180,-115.0619 174,-121.0619 168,-121.0619"/>
<text text-anchor="middle" x="162" y="-99.9619" font-family="Lato" font-size="12.00" fill="#000000">0</text>
</g>
<!-- 1&#45;&gt;0 -->
<g id="edge3" class="edge">
<title>1&#45;&gt;0</title>
<path fill="none" stroke="#000000" d="M74.4638,-67.5519C91.7914,-74.581 117.8424,-85.1489 137.0216,-92.9291"/>
<polygon fill="#000000" stroke="#000000" points="143.7478,-95.6577 136.0771,-95.9452 140.5045,-94.342 137.2612,-93.0262 137.2612,-93.0262 137.2612,-93.0262 140.5045,-94.342 138.4453,-90.1073 143.7478,-95.6577 143.7478,-95.6577"/>
<text text-anchor="start" x="92" y="-90.4619" font-family="Lato" font-size="12.00" fill="#000000">!a &amp; !b</text>
</g>
<!-- 3 -->
<g id="node4" class="node">
<title>3</title>
<path fill="#ffffa0" stroke="#000000" d="M168,-36.0619C168,-36.0619 156,-36.0619 156,-36.0619 150,-36.0619 144,-30.0619 144,-24.0619 144,-24.0619 144,-12.0619 144,-12.0619 144,-6.0619 150,-.0619 156,-.0619 156,-.0619 168,-.0619 168,-.0619 174,-.0619 180,-6.0619 180,-12.0619 180,-12.0619 180,-24.0619 180,-24.0619 180,-30.0619 174,-36.0619 168,-36.0619"/>
<text text-anchor="start" x="158.5" y="-21.4619" font-family="Lato" font-size="12.00" fill="#000000">3</text>
<text text-anchor="start" x="155" y="-8.4619" font-family="Lato" font-size="12.00" fill="#ff4da0">❶</text>
</g>
<!-- 1&#45;&gt;3 -->
<g id="edge5" class="edge">
<title>1&#45;&gt;3</title>
<path fill="none" stroke="#000000" d="M74.4638,-52.746C91.7914,-45.8804 117.8424,-35.5583 137.0216,-27.959"/>
<polygon fill="#000000" stroke="#000000" points="143.7478,-25.2939 138.4004,-30.801 140.4939,-26.5832 137.24,-27.8725 137.24,-27.8725 137.24,-27.8725 140.4939,-26.5832 136.0796,-24.944 143.7478,-25.2939 143.7478,-25.2939"/>
<text text-anchor="start" x="105.5" y="-48.4619" font-family="Lato" font-size="12.00" fill="#000000">b</text>
</g>
<!-- 0&#45;&gt;0 -->
<g id="edge2" class="edge">
<title>0&#45;&gt;0</title>
<path fill="none" stroke="#000000" d="M154.7637,-121.2146C153.6504,-130.6009 156.0625,-139.0619 162,-139.0619 166.3604,-139.0619 168.8194,-134.4988 169.3773,-128.3572"/>
<polygon fill="#000000" stroke="#000000" points="169.2363,-121.2146 172.5239,-128.151 169.3054,-124.7139 169.3745,-128.2132 169.3745,-128.2132 169.3745,-128.2132 169.3054,-124.7139 166.2251,-128.2754 169.2363,-121.2146 169.2363,-121.2146"/>
<text text-anchor="middle" x="162" y="-142.4619" font-family="Lato" font-size="12.00" fill="#000000">1</text>
</g>
<!-- 3&#45;&gt;3 -->
<g id="edge9" class="edge">
<title>3&#45;&gt;3</title>
<path fill="none" stroke="#000000" d="M154.7637,-36.2146C153.6504,-45.6009 156.0625,-54.0619 162,-54.0619 166.3604,-54.0619 168.8194,-49.4988 169.3773,-43.3572"/>
<polygon fill="#000000" stroke="#000000" points="169.2363,-36.2146 172.5239,-43.151 169.3054,-39.7139 169.3745,-43.2132 169.3745,-43.2132 169.3745,-43.2132 169.3054,-39.7139 166.2251,-43.2754 169.2363,-36.2146 169.2363,-36.2146"/>
<text text-anchor="start" x="158.5" y="-57.4619" font-family="Lato" font-size="12.00" fill="#000000">b</text>
</g>
<!-- 2 -->
<g id="node5" class="node">
<title>2</title>
<path fill="#ffffa0" stroke="#000000" d="M250,-36.0619C250,-36.0619 238,-36.0619 238,-36.0619 232,-36.0619 226,-30.0619 226,-24.0619 226,-24.0619 226,-12.0619 226,-12.0619 226,-6.0619 232,-.0619 238,-.0619 238,-.0619 250,-.0619 250,-.0619 256,-.0619 262,-6.0619 262,-12.0619 262,-12.0619 262,-24.0619 262,-24.0619 262,-30.0619 256,-36.0619 250,-36.0619"/>
<text text-anchor="middle" x="244" y="-14.9619" font-family="Lato" font-size="12.00" fill="#000000">2</text>
</g>
<!-- 3&#45;&gt;2 -->
<g id="edge8" class="edge">
<title>3&#45;&gt;2</title>
<path fill="none" stroke="#000000" d="M180.1985,-18.0619C191.5578,-18.0619 206.3412,-18.0619 218.8169,-18.0619"/>
<polygon fill="#000000" stroke="#000000" points="225.8524,-18.0619 218.8525,-21.212 222.3524,-18.0619 218.8524,-18.062 218.8524,-18.062 218.8524,-18.062 222.3524,-18.0619 218.8524,-14.912 225.8524,-18.0619 225.8524,-18.0619"/>
<text text-anchor="start" x="198" y="-21.4619" font-family="Lato" font-size="12.00" fill="#000000">!b</text>
</g>
<!-- 2&#45;&gt;3 -->
<g id="edge7" class="edge">
<title>2&#45;&gt;3</title>
<path fill="none" stroke="#000000" d="M225.9835,-6.2126C217.6286,-2.077 207.4708,1.0619 198,-1.0619 194.2063,-1.9126 190.3417,-3.2102 186.6205,-4.7172"/>
<polygon fill="#000000" stroke="#000000" points="180.1235,-7.6048 185.2408,-1.8833 183.3218,-6.1833 186.5202,-4.7618 186.5202,-4.7618 186.5202,-4.7618 183.3218,-6.1833 187.7995,-7.6403 180.1235,-7.6048 180.1235,-7.6048"/>
<text text-anchor="start" x="199.5" y="-4.4619" font-family="Lato" font-size="12.00" fill="#000000">b</text>
</g>
<!-- 2&#45;&gt;2 -->
<g id="edge6" class="edge">
<title>2&#45;&gt;2</title>
<path fill="none" stroke="#000000" d="M236.7637,-36.2146C235.6504,-45.6009 238.0625,-54.0619 244,-54.0619 248.3604,-54.0619 250.8194,-49.4988 251.3773,-43.3572"/>
<polygon fill="#000000" stroke="#000000" points="251.2363,-36.2146 254.5239,-43.151 251.3054,-39.7139 251.3745,-43.2132 251.3745,-43.2132 251.3745,-43.2132 251.3054,-39.7139 248.2251,-43.2754 251.2363,-36.2146 251.2363,-36.2146"/>
<text text-anchor="start" x="239" y="-57.4619" font-family="Lato" font-size="12.00" fill="#000000">!b</text>
</g>
</g>
</svg>
