<?xml version="1.0" encoding="UTF-8" standalone="no"?>
<?xml-stylesheet href="spot.css" type="text/css"?>
<!DOCTYPE svg PUBLIC "-//W3C//DTD SVG 1.1//EN"
 "http://www.w3.org/Graphics/SVG/1.1/DTD/svg11.dtd">
<!-- Generated by graphviz version 2.40.1 (20161225.0304)
 -->
<!-- Pages: 1 -->
<svg width="429pt" height="257pt"
 viewBox="0.00 0.00 429.00 257.40" xmlns="http://www.w3.org/2000/svg" xmlns:xlink="http://www.w3.org/1999/xlink">
<g id="graph0" class="graph" transform="scale(1 1) rotate(0) translate(4 253.4049)">
<polygon fill="#ffffff" stroke="transparent" points="-4,4 -4,-253.4049 425,-253.4049 425,4 -4,4"/>
<text text-anchor="start" x="116" y="-236.8049" font-family="Lato" font-size="12.00" fill="#000000">(Fin(</text>
<text text-anchor="start" x="139" y="-236.8049" font-family="Lato" font-size="12.00" fill="#1f78b4">⓿</text>
<text text-anchor="start" x="153" y="-236.8049" font-family="Lato" font-size="12.00" fill="#000000">) | Inf(</text>
<text text-anchor="start" x="183" y="-236.8049" font-family="Lato" font-size="12.00" fill="#ff4da0">❶</text>
<text text-anchor="start" x="197" y="-236.8049" font-family="Lato" font-size="12.00" fill="#000000">)) &amp; (Fin(</text>
<text text-anchor="start" x="240" y="-236.8049" font-family="Lato" font-size="12.00" fill="#ff7f00">❷</text>
<text text-anchor="start" x="254" y="-236.8049" font-family="Lato" font-size="12.00" fill="#000000">) | Inf(</text>
<text text-anchor="start" x="284" y="-236.8049" font-family="Lato" font-size="12.00" fill="#6a3d9a">❸</text>
<text text-anchor="start" x="298" y="-236.8049" font-family="Lato" font-size="12.00" fill="#000000">))</text>
<text text-anchor="start" x="183.5" y="-224.8049" font-family="Lato" font-size="12.00" fill="#000000">[Streett 2]</text>
<!-- I -->
<!-- 0 -->
<g id="node2" class="node">
<title>0</title>
<path fill="#ffffa0" stroke="#000000" d="M70,-61.4049C70,-61.4049 50,-61.4049 50,-61.4049 44,-61.4049 38,-55.4049 38,-49.4049 38,-49.4049 38,-37.4049 38,-37.4049 38,-31.4049 44,-25.4049 50,-25.4049 50,-25.4049 70,-25.4049 70,-25.4049 76,-25.4049 82,-31.4049 82,-37.4049 82,-37.4049 82,-49.4049 82,-49.4049 82,-55.4049 76,-61.4049 70,-61.4049"/>
<text text-anchor="start" x="56.5" y="-46.8049" font-family="Lato" font-size="12.00" fill="#000000">0</text>
<text text-anchor="start" x="46" y="-34.8049" font-family="Lato" font-size="12.00" fill="#ff4da0">❶</text>
<text text-anchor="start" x="60" y="-34.8049" font-family="Lato" font-size="12.00" fill="#6a3d9a">❸</text>
</g>
<!-- I&#45;&gt;0 -->
<g id="edge1" class="edge">
<title>I&#45;&gt;0</title>
<path fill="none" stroke="#000000" d="M1.1682,-43.4049C4.2491,-43.4049 17.4946,-43.4049 30.6388,-43.4049"/>
<polygon fill="#000000" stroke="#000000" points="37.8655,-43.4049 30.8656,-46.5549 34.3655,-43.4049 30.8655,-43.4049 30.8655,-43.4049 30.8655,-43.4049 34.3655,-43.4049 30.8655,-40.2549 37.8655,-43.4049 37.8655,-43.4049"/>
</g>
<!-- 0&#45;&gt;0 -->
<g id="edge2" class="edge">
<title>0&#45;&gt;0</title>
<path fill="none" stroke="#000000" d="M52.7637,-61.5576C51.6504,-70.9439 54.0625,-79.4049 60,-79.4049 64.3604,-79.4049 66.8194,-74.8418 67.3773,-68.7002"/>
<polygon fill="#000000" stroke="#000000" points="67.2363,-61.5576 70.5239,-68.494 67.3054,-65.0569 67.3745,-68.5562 67.3745,-68.5562 67.3745,-68.5562 67.3054,-65.0569 64.2251,-68.6184 67.2363,-61.5576 67.2363,-61.5576"/>
<text text-anchor="start" x="46" y="-82.8049" font-family="Lato" font-size="12.00" fill="#000000">a &amp; b</text>
</g>
<!-- 1 -->
<g id="node3" class="node">
<title>1</title>
<path fill="#ffffa0" stroke="#000000" d="M181,-155.4049C181,-155.4049 161,-155.4049 161,-155.4049 155,-155.4049 149,-149.4049 149,-143.4049 149,-143.4049 149,-131.4049 149,-131.4049 149,-125.4049 155,-119.4049 161,-119.4049 161,-119.4049 181,-119.4049 181,-119.4049 187,-119.4049 193,-125.4049 193,-131.4049 193,-131.4049 193,-143.4049 193,-143.4049 193,-149.4049 187,-155.4049 181,-155.4049"/>
<text text-anchor="start" x="167.5" y="-140.8049" font-family="Lato" font-size="12.00" fill="#000000">1</text>
<text text-anchor="start" x="157" y="-128.8049" font-family="Lato" font-size="12.00" fill="#1f78b4">⓿</text>
<text text-anchor="start" x="171" y="-128.8049" font-family="Lato" font-size="12.00" fill="#6a3d9a">❸</text>
</g>
<!-- 0&#45;&gt;1 -->
<g id="edge3" class="edge">
<title>0&#45;&gt;1</title>
<path fill="none" stroke="#000000" d="M65.7315,-61.6584C71.7604,-77.9849 82.7949,-101.4322 100,-115.4049 111.8572,-125.0343 127.9284,-130.4623 141.7819,-133.5155"/>
<polygon fill="#000000" stroke="#000000" points="148.7902,-134.9053 141.3111,-136.6334 145.357,-134.2244 141.9239,-133.5435 141.9239,-133.5435 141.9239,-133.5435 145.357,-134.2244 142.5366,-130.4537 148.7902,-134.9053 148.7902,-134.9053"/>
<text text-anchor="start" x="100" y="-133.8049" font-family="Lato" font-size="12.00" fill="#000000">!a &amp; b</text>
</g>
<!-- 2 -->
<g id="node4" class="node">
<title>2</title>
<path fill="#ffffa0" stroke="#000000" d="M409,-92.4049C409,-92.4049 389,-92.4049 389,-92.4049 383,-92.4049 377,-86.4049 377,-80.4049 377,-80.4049 377,-68.4049 377,-68.4049 377,-62.4049 383,-56.4049 389,-56.4049 389,-56.4049 409,-56.4049 409,-56.4049 415,-56.4049 421,-62.4049 421,-68.4049 421,-68.4049 421,-80.4049 421,-80.4049 421,-86.4049 415,-92.4049 409,-92.4049"/>
<text text-anchor="start" x="395.5" y="-77.8049" font-family="Lato" font-size="12.00" fill="#000000">2</text>
<text text-anchor="start" x="385" y="-65.8049" font-family="Lato" font-size="12.00" fill="#ff4da0">❶</text>
<text text-anchor="start" x="399" y="-65.8049" font-family="Lato" font-size="12.00" fill="#ff7f00">❷</text>
</g>
<!-- 0&#45;&gt;2 -->
<g id="edge4" class="edge">
<title>0&#45;&gt;2</title>
<path fill="none" stroke="#000000" d="M82.1522,-35.0344C87.8875,-33.1928 94.1087,-31.4746 100,-30.4049 163.4453,-18.8844 180.8925,-18.4581 245,-25.4049 296.5688,-30.9929 310.794,-31.2541 359,-50.4049 362.8573,-51.9372 366.7732,-53.8179 370.5698,-55.8461"/>
<polygon fill="#000000" stroke="#000000" points="376.8151,-59.363 369.17,-58.6729 373.7654,-57.6456 370.7157,-55.9282 370.7157,-55.9282 370.7157,-55.9282 373.7654,-57.6456 372.2614,-53.1835 376.8151,-59.363 376.8151,-59.363"/>
<text text-anchor="start" x="212.5" y="-28.8049" font-family="Lato" font-size="12.00" fill="#000000">a &amp; !b</text>
</g>
<!-- 3 -->
<g id="node5" class="node">
<title>3</title>
<path fill="#ffffa0" stroke="#000000" d="M295,-92.4049C295,-92.4049 275,-92.4049 275,-92.4049 269,-92.4049 263,-86.4049 263,-80.4049 263,-80.4049 263,-68.4049 263,-68.4049 263,-62.4049 269,-56.4049 275,-56.4049 275,-56.4049 295,-56.4049 295,-56.4049 301,-56.4049 307,-62.4049 307,-68.4049 307,-68.4049 307,-80.4049 307,-80.4049 307,-86.4049 301,-92.4049 295,-92.4049"/>
<text text-anchor="start" x="281.5" y="-77.8049" font-family="Lato" font-size="12.00" fill="#000000">3</text>
<text text-anchor="start" x="271" y="-65.8049" font-family="Lato" font-size="12.00" fill="#1f78b4">⓿</text>
<text text-anchor="start" x="285" y="-65.8049" font-family="Lato" font-size="12.00" fill="#ff7f00">❷</text>
</g>
<!-- 0&#45;&gt;3 -->
<g id="edge5" class="edge">
<title>0&#45;&gt;3</title>
<path fill="none" stroke="#000000" d="M82.3964,-46.4906C123.3343,-52.1309 210.2108,-64.1006 255.7531,-70.3753"/>
<polygon fill="#000000" stroke="#000000" points="262.6941,-71.3316 255.3297,-73.4966 259.2269,-70.8538 255.7596,-70.3761 255.7596,-70.3761 255.7596,-70.3761 259.2269,-70.8538 256.1896,-67.2556 262.6941,-71.3316 262.6941,-71.3316"/>
<text text-anchor="start" x="154" y="-64.8049" font-family="Lato" font-size="12.00" fill="#000000">!a &amp; !b</text>
</g>
<!-- 1&#45;&gt;0 -->
<g id="edge6" class="edge">
<title>1&#45;&gt;0</title>
<path fill="none" stroke="#000000" d="M153.8601,-119.0365C147.0547,-112.1977 138.9605,-104.5996 131,-98.4049 118.2468,-88.4805 112.9487,-89.0726 100,-79.4049 94.7221,-75.4643 89.3176,-70.9639 84.2564,-66.5108"/>
<polygon fill="#000000" stroke="#000000" points="78.9216,-61.7261 86.236,-64.0548 81.5272,-64.063 84.1328,-66.3999 84.1328,-66.3999 84.1328,-66.3999 81.5272,-64.063 82.0295,-68.7449 78.9216,-61.7261 78.9216,-61.7261"/>
<text text-anchor="start" x="101.5" y="-101.8049" font-family="Lato" font-size="12.00" fill="#000000">a &amp; b</text>
</g>
<!-- 1&#45;&gt;1 -->
<g id="edge7" class="edge">
<title>1&#45;&gt;1</title>
<path fill="none" stroke="#000000" d="M161.231,-155.5576C159.728,-164.9439 162.9844,-173.4049 171,-173.4049 176.8865,-173.4049 180.2062,-168.8418 180.9593,-162.7002"/>
<polygon fill="#000000" stroke="#000000" points="180.769,-155.5576 184.1044,-162.4712 180.8623,-159.0563 180.9555,-162.5551 180.9555,-162.5551 180.9555,-162.5551 180.8623,-159.0563 177.8066,-162.639 180.769,-155.5576 180.769,-155.5576"/>
<text text-anchor="start" x="155.5" y="-176.8049" font-family="Lato" font-size="12.00" fill="#000000">!a &amp; b</text>
</g>
<!-- 1&#45;&gt;2 -->
<g id="edge8" class="edge">
<title>1&#45;&gt;2</title>
<path fill="none" stroke="#000000" d="M183.2426,-155.637C190.2457,-164.4617 199.8527,-174.2424 211,-179.4049 270.6877,-207.0471 305.936,-218.2755 359,-179.4049 372.2179,-169.7224 385.3127,-127.5339 392.7542,-99.6698"/>
<polygon fill="#000000" stroke="#000000" points="394.6098,-92.5764 395.8857,-100.1458 393.724,-95.9625 392.8382,-99.3486 392.8382,-99.3486 392.8382,-99.3486 393.724,-95.9625 389.7907,-98.5513 394.6098,-92.5764 394.6098,-92.5764"/>
<text text-anchor="start" x="269.5" y="-207.8049" font-family="Lato" font-size="12.00" fill="#000000">a &amp; !b</text>
</g>
<!-- 1&#45;&gt;3 -->
<g id="edge9" class="edge">
<title>1&#45;&gt;3</title>
<path fill="none" stroke="#000000" d="M193.2493,-133.8551C208.6072,-130.6951 229.0531,-125.0369 245,-115.4049 252.7142,-110.7454 259.9794,-104.2469 266.1468,-97.7952"/>
<polygon fill="#000000" stroke="#000000" points="271.055,-92.4282 268.6555,-99.7196 268.693,-95.011 266.331,-97.5938 266.331,-97.5938 266.331,-97.5938 268.693,-95.011 264.0064,-95.468 271.055,-92.4282 271.055,-92.4282"/>
<text text-anchor="start" x="211" y="-131.8049" font-family="Lato" font-size="12.00" fill="#000000">!a &amp; !b</text>
</g>
<!-- 2&#45;&gt;0 -->
<g id="edge10" class="edge">
<title>2&#45;&gt;0</title>
<path fill="none" stroke="#000000" d="M385.1599,-56.2039C378.1407,-48.1297 368.9911,-39.1709 359,-33.4049 313.7193,-7.2726 296.8754,-10.8996 245,-4.4049 180.6667,3.6496 161.2846,.7577 100,-20.4049 96.1194,-21.7449 92.1895,-23.4702 88.3854,-25.3728"/>
<polygon fill="#000000" stroke="#000000" points="82.1333,-28.7054 86.8288,-22.6329 85.2219,-27.059 88.3106,-25.4126 88.3106,-25.4126 88.3106,-25.4126 85.2219,-27.059 89.7923,-28.1924 82.1333,-28.7054 82.1333,-28.7054"/>
<text text-anchor="start" x="214" y="-7.8049" font-family="Lato" font-size="12.00" fill="#000000">a &amp; b</text>
</g>
<!-- 2&#45;&gt;1 -->
<g id="edge11" class="edge">
<title>2&#45;&gt;1</title>
<path fill="none" stroke="#000000" d="M376.7929,-91.5993C358.8833,-104.6519 332.5531,-122.0624 307,-132.4049 280.9019,-142.968 273.0046,-142.5005 245,-145.4049 229.9695,-146.9637 226.0376,-146.8939 211,-145.4049 207.5687,-145.0651 203.9958,-144.5652 200.4592,-143.9784"/>
<polygon fill="#000000" stroke="#000000" points="193.3079,-142.6752 200.7593,-140.8313 196.7512,-143.3027 200.1945,-143.9302 200.1945,-143.9302 200.1945,-143.9302 196.7512,-143.3027 199.6298,-147.0292 193.3079,-142.6752 193.3079,-142.6752"/>
<text text-anchor="start" x="269.5" y="-146.8049" font-family="Lato" font-size="12.00" fill="#000000">!a &amp; b</text>
</g>
<!-- 2&#45;&gt;2 -->
<g id="edge12" class="edge">
<title>2&#45;&gt;2</title>
<path fill="none" stroke="#000000" d="M388.8691,-92.5576C387.3105,-101.9439 390.6875,-110.4049 399,-110.4049 405.1045,-110.4049 408.5472,-105.8418 409.3282,-99.7002"/>
<polygon fill="#000000" stroke="#000000" points="409.1309,-92.5576 412.473,-99.4679 409.2275,-96.0562 409.3242,-99.5549 409.3242,-99.5549 409.3242,-99.5549 409.2275,-96.0562 406.1754,-99.6419 409.1309,-92.5576 409.1309,-92.5576"/>
<text text-anchor="start" x="383.5" y="-113.8049" font-family="Lato" font-size="12.00" fill="#000000">a &amp; !b</text>
</g>
<!-- 2&#45;&gt;3 -->
<g id="edge13" class="edge">
<title>2&#45;&gt;3</title>
<path fill="none" stroke="#000000" d="M376.8051,-74.4049C359.009,-74.4049 333.8787,-74.4049 314.4088,-74.4049"/>
<polygon fill="#000000" stroke="#000000" points="307.251,-74.4049 314.251,-71.2549 310.751,-74.4049 314.251,-74.4049 314.251,-74.4049 314.251,-74.4049 310.751,-74.4049 314.2509,-77.5549 307.251,-74.4049 307.251,-74.4049"/>
<text text-anchor="start" x="325" y="-77.8049" font-family="Lato" font-size="12.00" fill="#000000">!a &amp; !b</text>
</g>
<!-- 3&#45;&gt;0 -->
<g id="edge14" class="edge">
<title>3&#45;&gt;0</title>
<path fill="none" stroke="#000000" d="M262.6416,-62.9257C244.4328,-54.2559 217.7755,-43.0797 193,-38.4049 157.9247,-31.7866 116.7519,-34.9762 89.612,-38.5469"/>
<polygon fill="#000000" stroke="#000000" points="82.346,-39.5563 88.846,-35.4729 85.8127,-39.0746 89.2794,-38.593 89.2794,-38.593 89.2794,-38.593 85.8127,-39.0746 89.7129,-41.713 82.346,-39.5563 82.346,-39.5563"/>
<text text-anchor="start" x="157" y="-41.8049" font-family="Lato" font-size="12.00" fill="#000000">a &amp; b</text>
</g>
<!-- 3&#45;&gt;1 -->
<g id="edge15" class="edge">
<title>3&#45;&gt;1</title>
<path fill="none" stroke="#000000" d="M262.8286,-78.7814C247.5065,-82.4599 227.0713,-88.7016 211,-98.4049 204.0073,-102.6267 197.2865,-108.2917 191.4154,-113.9933"/>
<polygon fill="#000000" stroke="#000000" points="186.279,-119.1994 188.9529,-112.004 188.7371,-116.7079 191.1953,-114.2163 191.1953,-114.2163 191.1953,-114.2163 188.7371,-116.7079 193.4376,-116.4287 186.279,-119.1994 186.279,-119.1994"/>
<text text-anchor="start" x="212.5" y="-101.8049" font-family="Lato" font-size="12.00" fill="#000000">!a &amp; b</text>
</g>
<!-- 3&#45;&gt;2 -->
<g id="edge16" class="edge">
<title>3&#45;&gt;2</title>
<path fill="none" stroke="#000000" d="M307.3353,-63.0561C312.9606,-60.7216 319.085,-58.6096 325,-57.4049 339.8071,-54.3889 344.1929,-54.3889 359,-57.4049 362.6045,-58.139 366.2867,-59.2101 369.8863,-60.463"/>
<polygon fill="#000000" stroke="#000000" points="376.6647,-63.0561 369.0012,-63.497 373.3957,-61.8055 370.1267,-60.5549 370.1267,-60.5549 370.1267,-60.5549 373.3957,-61.8055 371.2522,-57.6129 376.6647,-63.0561 376.6647,-63.0561"/>
<text text-anchor="start" x="326.5" y="-60.8049" font-family="Lato" font-size="12.00" fill="#000000">a &amp; !b</text>
</g>
<!-- 3&#45;&gt;3 -->
<g id="edge17" class="edge">
<title>3&#45;&gt;3</title>
<path fill="none" stroke="#000000" d="M274.8691,-92.5576C273.3105,-101.9439 276.6875,-110.4049 285,-110.4049 291.1045,-110.4049 294.5472,-105.8418 295.3282,-99.7002"/>
<polygon fill="#000000" stroke="#000000" points="295.1309,-92.5576 298.473,-99.4679 295.2275,-96.0562 295.3242,-99.5549 295.3242,-99.5549 295.3242,-99.5549 295.2275,-96.0562 292.1754,-99.6419 295.1309,-92.5576 295.1309,-92.5576"/>
<text text-anchor="start" x="268" y="-113.8049" font-family="Lato" font-size="12.00" fill="#000000">!a &amp; !b</text>
</g>
</g>
</svg>
