<?xml version="1.0" encoding="UTF-8" standalone="no"?>
<?xml-stylesheet href="spot.css" type="text/css"?>
<!DOCTYPE svg PUBLIC "-//W3C//DTD SVG 1.1//EN"
 "http://www.w3.org/Graphics/SVG/1.1/DTD/svg11.dtd">
<!-- Generated by graphviz version 2.40.1 (20161225.0304)
 -->
<!-- Title: | G p0 X F p1 Pages: 1 -->
<svg width="500pt" height="340pt"
 viewBox="0.00 0.00 500.00 340.00" xmlns="http://www.w3.org/2000/svg" xmlns:xlink="http://www.w3.org/1999/xlink">
<g id="graph0" class="graph" transform="scale(1 1) rotate(0) translate(4 336)">
<title>| G p0 X F p1</title>
<polygon fill="#ffffff" stroke="transparent" points="-4,4 -4,-336 496,-336 496,4 -4,4"/>
<text text-anchor="start" x="205" y="-319.4" font-family="Lato" font-size="12.00" fill="#000000">Fin(</text>
<text text-anchor="start" x="225" y="-319.4" font-family="Lato" font-size="12.00" fill="#1f78b4">⓿</text>
<text text-anchor="start" x="239" y="-319.4" font-family="Lato" font-size="12.00" fill="#000000">) | Inf(</text>
<text text-anchor="start" x="269" y="-319.4" font-family="Lato" font-size="12.00" fill="#ff4da0">❶</text>
<text text-anchor="start" x="283" y="-319.4" font-family="Lato" font-size="12.00" fill="#000000">)</text>
<text text-anchor="start" x="219" y="-307.4" font-family="Lato" font-size="12.00" fill="#000000">[Streett 1]</text>
<!-- I -->
<!-- 2 -->
<g id="node2" class="node">
<title>2</title>
<path fill="#ffffa0" stroke="#000000" d="M62,-191C62,-191 50,-191 50,-191 44,-191 38,-185 38,-179 38,-179 38,-167 38,-167 38,-161 44,-155 50,-155 50,-155 62,-155 62,-155 68,-155 74,-161 74,-167 74,-167 74,-179 74,-179 74,-185 68,-191 62,-191"/>
<text text-anchor="start" x="52.5" y="-176.4" font-family="Lato" font-size="12.00" fill="#000000">2</text>
<text text-anchor="start" x="49" y="-163.4" font-family="Lato" font-size="12.00" fill="#ff4da0">❶</text>
</g>
<!-- I&#45;&gt;2 -->
<g id="edge1" class="edge">
<title>I&#45;&gt;2</title>
<path fill="none" stroke="#000000" d="M1.1233,-173C4.178,-173 17.9448,-173 30.9241,-173"/>
<polygon fill="#000000" stroke="#000000" points="37.9807,-173 30.9808,-176.1501 34.4807,-173 30.9807,-173.0001 30.9807,-173.0001 30.9807,-173.0001 34.4807,-173 30.9807,-169.8501 37.9807,-173 37.9807,-173"/>
</g>
<!-- 1 -->
<g id="node4" class="node">
<title>1</title>
<path fill="#ffffa0" stroke="#000000" d="M165,-242C165,-242 153,-242 153,-242 147,-242 141,-236 141,-230 141,-230 141,-218 141,-218 141,-212 147,-206 153,-206 153,-206 165,-206 165,-206 171,-206 177,-212 177,-218 177,-218 177,-230 177,-230 177,-236 171,-242 165,-242"/>
<text text-anchor="start" x="155.5" y="-227.4" font-family="Lato" font-size="12.00" fill="#000000">1</text>
<text text-anchor="start" x="152" y="-214.4" font-family="Lato" font-size="12.00" fill="#ff4da0">❶</text>
</g>
<!-- 2&#45;&gt;1 -->
<g id="edge11" class="edge">
<title>2&#45;&gt;1</title>
<path fill="none" stroke="#000000" d="M73.9356,-191.0292C79.3882,-195.7656 85.6321,-200.5171 92,-204 105.0298,-211.1267 120.908,-216.0095 133.9361,-219.1654"/>
<polygon fill="#000000" stroke="#000000" points="140.8445,-220.7443 133.3186,-222.2554 137.4325,-219.9645 134.0204,-219.1846 134.0204,-219.1846 134.0204,-219.1846 137.4325,-219.9645 134.7223,-216.1138 140.8445,-220.7443 140.8445,-220.7443"/>
<text text-anchor="start" x="92" y="-218.4" font-family="Lato" font-size="12.00" fill="#000000">a &amp; !b</text>
</g>
<!-- 2&#45;&gt;1 -->
<g id="edge13" class="edge">
<title>2&#45;&gt;1</title>
<path fill="none" stroke="#000000" d="M74.0586,-173.9046C88.1416,-175.2651 107.7957,-178.6435 123,-187 129.362,-190.4966 135.3021,-195.4847 140.4504,-200.6704"/>
<polygon fill="#000000" stroke="#000000" points="145.321,-205.874 138.2377,-202.916 142.9293,-203.3187 140.5375,-200.7634 140.5375,-200.7634 140.5375,-200.7634 142.9293,-203.3187 142.8372,-198.6108 145.321,-205.874 145.321,-205.874"/>
<text text-anchor="start" x="93.5" y="-190.4" font-family="Lato" font-size="12.00" fill="#000000">a &amp; b</text>
</g>
<!-- 3 -->
<g id="node5" class="node">
<title>3</title>
<path fill="#ffffa0" stroke="#000000" d="M271,-152C271,-152 259,-152 259,-152 253,-152 247,-146 247,-140 247,-140 247,-128 247,-128 247,-122 253,-116 259,-116 259,-116 271,-116 271,-116 277,-116 283,-122 283,-128 283,-128 283,-140 283,-140 283,-146 277,-152 271,-152"/>
<text text-anchor="start" x="261.5" y="-137.4" font-family="Lato" font-size="12.00" fill="#000000">3</text>
<text text-anchor="start" x="258" y="-124.4" font-family="Lato" font-size="12.00" fill="#ff4da0">❶</text>
</g>
<!-- 2&#45;&gt;3 -->
<g id="edge10" class="edge">
<title>2&#45;&gt;3</title>
<path fill="none" stroke="#000000" d="M74.1818,-169.6072C111.5468,-162.6348 197.0356,-146.6823 239.746,-138.7125"/>
<polygon fill="#000000" stroke="#000000" points="246.7114,-137.4127 240.4081,-141.7934 243.2708,-138.0548 239.8302,-138.6968 239.8302,-138.6968 239.8302,-138.6968 243.2708,-138.0548 239.2524,-135.6003 246.7114,-137.4127 246.7114,-137.4127"/>
<text text-anchor="start" x="142" y="-159.4" font-family="Lato" font-size="12.00" fill="#000000">!a &amp; !b</text>
</g>
<!-- 2&#45;&gt;3 -->
<g id="edge12" class="edge">
<title>2&#45;&gt;3</title>
<path fill="none" stroke="#000000" d="M74.0539,-161.6137C90.7058,-151.8317 116.4859,-138.4671 141,-133 174.4678,-125.536 214.2907,-127.747 239.6052,-130.4832"/>
<polygon fill="#000000" stroke="#000000" points="246.6576,-131.3 239.3416,-133.6236 243.1809,-130.8973 239.7041,-130.4945 239.7041,-130.4945 239.7041,-130.4945 243.1809,-130.8973 240.0666,-127.3654 246.6576,-131.3 246.6576,-131.3"/>
<text text-anchor="start" x="143.5" y="-136.4" font-family="Lato" font-size="12.00" fill="#000000">!a &amp; b</text>
</g>
<!-- 0 -->
<g id="node3" class="node">
<title>0</title>
<path fill="#ffffa0" stroke="#000000" d="M480,-176C480,-176 468,-176 468,-176 462,-176 456,-170 456,-164 456,-164 456,-152 456,-152 456,-146 462,-140 468,-140 468,-140 480,-140 480,-140 486,-140 492,-146 492,-152 492,-152 492,-164 492,-164 492,-170 486,-176 480,-176"/>
<text text-anchor="start" x="470.5" y="-161.4" font-family="Lato" font-size="12.00" fill="#000000">0</text>
<text text-anchor="start" x="467" y="-148.4" font-family="Lato" font-size="12.00" fill="#ff4da0">❶</text>
</g>
<!-- 0&#45;&gt;0 -->
<g id="edge2" class="edge">
<title>0&#45;&gt;0</title>
<path fill="none" stroke="#000000" d="M471.7386,-176.1527C471.3907,-185.5391 472.1445,-194 474,-194 475.3626,-194 476.1311,-189.437 476.3054,-183.2953"/>
<polygon fill="#000000" stroke="#000000" points="476.2614,-176.1527 479.4545,-183.1331 476.283,-179.6526 476.3046,-183.1526 476.3046,-183.1526 476.3046,-183.1526 476.283,-179.6526 473.1547,-183.172 476.2614,-176.1527 476.2614,-176.1527"/>
<text text-anchor="start" x="457" y="-197.4" font-family="Lato" font-size="12.00" fill="#000000">!a &amp; !b</text>
</g>
<!-- 0&#45;&gt;0 -->
<g id="edge3" class="edge">
<title>0&#45;&gt;0</title>
<path fill="none" stroke="#000000" d="M470.2097,-176.2576C468.2444,-193.4023 469.5078,-212 474,-212 477.8605,-212 479.3364,-198.2652 478.4279,-183.521"/>
<polygon fill="#000000" stroke="#000000" points="477.7903,-176.2576 481.5404,-182.9553 478.0964,-179.7442 478.4025,-183.2308 478.4025,-183.2308 478.4025,-183.2308 478.0964,-179.7442 475.2645,-183.5063 477.7903,-176.2576 477.7903,-176.2576"/>
<text text-anchor="start" x="458.5" y="-215.4" font-family="Lato" font-size="12.00" fill="#000000">a &amp; !b</text>
</g>
<!-- 0&#45;&gt;0 -->
<g id="edge4" class="edge">
<title>0&#45;&gt;0</title>
<path fill="none" stroke="#000000" d="M469.2557,-176.0781C465.0577,-200.4094 466.6392,-230 474,-230 480.6708,-230 482.595,-205.6976 479.7726,-183.0312"/>
<polygon fill="#000000" stroke="#000000" points="478.7443,-176.0781 482.8846,-182.5419 479.2564,-179.5405 479.7685,-183.0028 479.7685,-183.0028 479.7685,-183.0028 479.2564,-179.5405 476.6524,-183.4637 478.7443,-176.0781 478.7443,-176.0781"/>
<text text-anchor="start" x="458.5" y="-233.4" font-family="Lato" font-size="12.00" fill="#000000">!a &amp; b</text>
</g>
<!-- 0&#45;&gt;0 -->
<g id="edge5" class="edge">
<title>0&#45;&gt;0</title>
<path fill="none" stroke="#000000" d="M468.5669,-176.1124C461.8862,-207.2398 463.6973,-248 474,-248 483.5381,-248 485.7982,-213.0656 480.7802,-183.1817"/>
<polygon fill="#000000" stroke="#000000" points="479.4331,-176.1124 483.8379,-182.3989 480.0883,-179.5505 480.7435,-182.9887 480.7435,-182.9887 480.7435,-182.9887 480.0883,-179.5505 477.6492,-183.5784 479.4331,-176.1124 479.4331,-176.1124"/>
<text text-anchor="start" x="460" y="-251.4" font-family="Lato" font-size="12.00" fill="#000000">a &amp; b</text>
</g>
<!-- 1&#45;&gt;0 -->
<g id="edge8" class="edge">
<title>1&#45;&gt;0</title>
<path fill="none" stroke="#000000" d="M177.2311,-231.6945C224.7764,-250.4419 354.6337,-293.0584 438,-238 456.4,-225.8479 465.5023,-201.8532 469.9383,-183.2979"/>
<polygon fill="#000000" stroke="#000000" points="471.469,-176.2366 473.0644,-183.7451 470.7274,-179.6572 469.9859,-183.0777 469.9859,-183.0777 469.9859,-183.0777 470.7274,-179.6572 466.9074,-182.4103 471.469,-176.2366 471.469,-176.2366"/>
<text text-anchor="start" x="302.5" y="-268.4" font-family="Lato" font-size="12.00" fill="#000000">!a &amp; b</text>
</g>
<!-- 1&#45;&gt;0 -->
<g id="edge9" class="edge">
<title>1&#45;&gt;0</title>
<path fill="none" stroke="#000000" d="M177.2662,-222.0335C222.2909,-216.8925 341.9176,-201.4417 438,-173 441.7331,-171.8949 445.6054,-170.5296 449.366,-169.0766"/>
<polygon fill="#000000" stroke="#000000" points="455.9604,-166.4038 450.6563,-171.9526 452.7167,-167.7185 449.473,-169.0333 449.473,-169.0333 449.473,-169.0333 452.7167,-167.7185 448.2897,-166.1139 455.9604,-166.4038 455.9604,-166.4038"/>
<text text-anchor="start" x="304" y="-206.4" font-family="Lato" font-size="12.00" fill="#000000">a &amp; b</text>
</g>
<!-- 1&#45;&gt;1 -->
<g id="edge7" class="edge">
<title>1&#45;&gt;1</title>
<path fill="none" stroke="#000000" d="M149.9546,-242.1527C148.563,-251.5391 151.5781,-260 159,-260 164.4504,-260 167.5243,-255.437 168.2216,-249.2953"/>
<polygon fill="#000000" stroke="#000000" points="168.0454,-242.1527 171.3671,-249.0729 168.1318,-245.6516 168.2181,-249.1506 168.2181,-249.1506 168.2181,-249.1506 168.1318,-245.6516 165.0691,-249.2283 168.0454,-242.1527 168.0454,-242.1527"/>
<text text-anchor="start" x="143.5" y="-263.4" font-family="Lato" font-size="12.00" fill="#000000">a &amp; !b</text>
</g>
<!-- 1&#45;&gt;3 -->
<g id="edge6" class="edge">
<title>1&#45;&gt;3</title>
<path fill="none" stroke="#000000" d="M177.2774,-210.2688C197.2042,-195.2822 226.601,-173.1193 229,-171 233.7312,-166.8204 238.5842,-162.1397 243.1339,-157.5501"/>
<polygon fill="#000000" stroke="#000000" points="248.31,-152.2396 245.6798,-159.451 245.867,-154.746 243.424,-157.2524 243.424,-157.2524 243.424,-157.2524 245.867,-154.746 241.1683,-155.0537 248.31,-152.2396 248.31,-152.2396"/>
<text text-anchor="start" x="195" y="-198.4" font-family="Lato" font-size="12.00" fill="#000000">!a &amp; !b</text>
</g>
<!-- 3&#45;&gt;0 -->
<g id="edge16" class="edge">
<title>3&#45;&gt;0</title>
<path fill="none" stroke="#000000" d="M283.3412,-142.4065C288.9025,-144.605 295.1027,-146.7164 301,-148 352.5164,-159.2129 414.5717,-159.7603 448.5955,-158.9899"/>
<polygon fill="#000000" stroke="#000000" points="455.8176,-158.7965 448.9044,-162.1328 452.3188,-158.8902 448.8201,-158.9839 448.8201,-158.9839 448.8201,-158.9839 452.3188,-158.8902 448.7357,-155.8351 455.8176,-158.7965 455.8176,-158.7965"/>
<text text-anchor="start" x="355.5" y="-161.4" font-family="Lato" font-size="12.00" fill="#000000">!a &amp; b</text>
</g>
<!-- 3&#45;&gt;0 -->
<g id="edge17" class="edge">
<title>3&#45;&gt;0</title>
<path fill="none" stroke="#000000" d="M283.1635,-133.4617C307.4085,-132.9992 351.6331,-133.0513 389,-138 409.5142,-140.7168 432.3179,-146.2225 449.1373,-150.7706"/>
<polygon fill="#000000" stroke="#000000" points="455.9551,-152.6502 448.3696,-153.8264 452.5809,-151.72 449.2068,-150.7897 449.2068,-150.7897 449.2068,-150.7897 452.5809,-151.72 450.0441,-147.753 455.9551,-152.6502 455.9551,-152.6502"/>
<text text-anchor="start" x="357" y="-141.4" font-family="Lato" font-size="12.00" fill="#000000">a &amp; b</text>
</g>
<!-- 4 -->
<g id="node6" class="node">
<title>4</title>
<path fill="#ffffa0" stroke="#000000" d="M377,-36C377,-36 365,-36 365,-36 359,-36 353,-30 353,-24 353,-24 353,-12 353,-12 353,-6 359,0 365,0 365,0 377,0 377,0 383,0 389,-6 389,-12 389,-12 389,-24 389,-24 389,-30 383,-36 377,-36"/>
<text text-anchor="start" x="367.5" y="-21.4" font-family="Lato" font-size="12.00" fill="#000000">4</text>
<text text-anchor="start" x="364" y="-8.4" font-family="Lato" font-size="12.00" fill="#1f78b4">⓿</text>
</g>
<!-- 3&#45;&gt;4 -->
<g id="edge14" class="edge">
<title>3&#45;&gt;4</title>
<path fill="none" stroke="#000000" d="M281.5625,-115.875C299.8132,-95.9025 329.2366,-63.7033 349.3136,-41.7323"/>
<polygon fill="#000000" stroke="#000000" points="354.204,-36.3805 351.8073,-43.673 351.843,-38.9643 349.482,-41.548 349.482,-41.548 349.482,-41.548 351.843,-38.9643 347.1566,-39.4231 354.204,-36.3805 354.204,-36.3805"/>
<text text-anchor="start" x="301" y="-97.4" font-family="Lato" font-size="12.00" fill="#000000">!a &amp; !b</text>
</g>
<!-- 3&#45;&gt;4 -->
<g id="edge15" class="edge">
<title>3&#45;&gt;4</title>
<path fill="none" stroke="#000000" d="M267.4619,-115.9276C271.1925,-95.3267 280.1948,-61.9354 301,-42 313.117,-30.3895 331.0937,-24.379 345.7953,-21.2766"/>
<polygon fill="#000000" stroke="#000000" points="352.7094,-19.9753 346.4128,-24.3657 349.2698,-20.6227 345.8302,-21.2701 345.8302,-21.2701 345.8302,-21.2701 349.2698,-20.6227 345.2476,-18.1744 352.7094,-19.9753 352.7094,-19.9753"/>
<text text-anchor="start" x="302.5" y="-45.4" font-family="Lato" font-size="12.00" fill="#000000">a &amp; !b</text>
</g>
<!-- 4&#45;&gt;0 -->
<g id="edge20" class="edge">
<title>4&#45;&gt;0</title>
<path fill="none" stroke="#000000" d="M385.0238,-36.2865C398.6952,-54.1934 419.9976,-82.3082 438,-107 444.4328,-115.8231 451.3781,-125.6006 457.4362,-134.2147"/>
<polygon fill="#000000" stroke="#000000" points="461.4714,-139.9664 454.8724,-136.0451 459.4613,-137.1012 457.4511,-134.236 457.4511,-134.236 457.4511,-134.236 459.4613,-137.1012 460.0298,-132.4269 461.4714,-139.9664 461.4714,-139.9664"/>
<text text-anchor="start" x="407" y="-110.4" font-family="Lato" font-size="12.00" fill="#000000">!a &amp; b</text>
</g>
<!-- 4&#45;&gt;0 -->
<g id="edge21" class="edge">
<title>4&#45;&gt;0</title>
<path fill="none" stroke="#000000" d="M389.0674,-22.0773C404.1237,-26.3656 425.1196,-34.5555 438,-49 459.0352,-72.5896 467.8239,-108.7843 471.4666,-132.9128"/>
<polygon fill="#000000" stroke="#000000" points="472.4397,-139.9863 468.365,-133.481 471.9627,-136.519 471.4856,-133.0516 471.4856,-133.0516 471.4856,-133.0516 471.9627,-136.519 474.6062,-132.6223 472.4397,-139.9863 472.4397,-139.9863"/>
<text text-anchor="start" x="408.5" y="-52.4" font-family="Lato" font-size="12.00" fill="#000000">a &amp; b</text>
</g>
<!-- 4&#45;&gt;4 -->
<g id="edge18" class="edge">
<title>4&#45;&gt;4</title>
<path fill="none" stroke="#000000" d="M366.4773,-36.1527C365.7815,-45.5391 367.2891,-54 371,-54 373.7252,-54 375.2621,-49.437 375.6108,-43.2953"/>
<polygon fill="#000000" stroke="#000000" points="375.5227,-36.1527 378.7589,-43.1133 375.5659,-39.6524 375.6091,-43.1522 375.6091,-43.1522 375.6091,-43.1522 375.5659,-39.6524 372.4594,-43.1911 375.5227,-36.1527 375.5227,-36.1527"/>
<text text-anchor="start" x="354" y="-57.4" font-family="Lato" font-size="12.00" fill="#000000">!a &amp; !b</text>
</g>
<!-- 4&#45;&gt;4 -->
<g id="edge19" class="edge">
<title>4&#45;&gt;4</title>
<path fill="none" stroke="#000000" d="M363.4194,-36.2576C359.4888,-53.4023 362.0156,-72 371,-72 378.7209,-72 381.6729,-58.2652 379.8557,-43.521"/>
<polygon fill="#000000" stroke="#000000" points="378.5806,-36.2576 382.8936,-42.6075 379.1858,-39.7049 379.791,-43.1522 379.791,-43.1522 379.791,-43.1522 379.1858,-39.7049 376.6885,-43.6969 378.5806,-36.2576 378.5806,-36.2576"/>
<text text-anchor="start" x="355.5" y="-75.4" font-family="Lato" font-size="12.00" fill="#000000">a &amp; !b</text>
</g>
</g>
</svg>
