<?xml version="1.0" encoding="UTF-8" standalone="no"?>
<?xml-stylesheet href="spot.css" type="text/css"?>
<!DOCTYPE svg PUBLIC "-//W3C//DTD SVG 1.1//EN"
 "http://www.w3.org/Graphics/SVG/1.1/DTD/svg11.dtd">
<!-- Generated by graphviz version 2.40.1 (20161225.0304)
 -->
<!-- Pages: 1 -->
<svg width="625pt" height="529pt"
 viewBox="0.00 0.00 624.89 529.26" xmlns="http://www.w3.org/2000/svg" xmlns:xlink="http://www.w3.org/1999/xlink">
<g id="graph0" class="graph" transform="scale(1 1) rotate(0) translate(4 525.2578)">
<polygon fill="#ffffff" stroke="transparent" points="-4,4 -4,-525.2578 620.8857,-525.2578 620.8857,4 -4,4"/>
<!-- I -->
<!-- 0 -->
<g id="node2" class="node">
<title>0</title>
<path fill="#ffffa0" stroke="#000000" d="M128.5,-278.6289C128.5,-278.6289 52.5,-278.6289 52.5,-278.6289 46.5,-278.6289 40.5,-272.6289 40.5,-266.6289 40.5,-266.6289 40.5,-254.6289 40.5,-254.6289 40.5,-248.6289 46.5,-242.6289 52.5,-242.6289 52.5,-242.6289 128.5,-242.6289 128.5,-242.6289 134.5,-242.6289 140.5,-248.6289 140.5,-254.6289 140.5,-254.6289 140.5,-266.6289 140.5,-266.6289 140.5,-272.6289 134.5,-278.6289 128.5,-278.6289"/>
<text text-anchor="start" x="58.5" y="-264.0289" font-family="Lato" font-size="12.00" fill="#000000">(x = 0, y = 0)</text>
<text text-anchor="start" x="48.5" y="-251.0289" font-family="Lato" font-size="12.00" fill="#000000">!odd_x &amp; !odd_y</text>
</g>
<!-- I&#45;&gt;0 -->
<g id="edge1" class="edge">
<title>I&#45;&gt;0</title>
<path fill="none" stroke="#000000" d="M1.0747,-260.6289C3.9568,-260.6289 17.3146,-260.6289 32.8627,-260.6289"/>
<polygon fill="#000000" stroke="#000000" points="40.1308,-260.6289 33.1309,-263.779 36.6308,-260.629 33.1308,-260.629 33.1308,-260.629 33.1308,-260.629 36.6308,-260.629 33.1308,-257.479 40.1308,-260.6289 40.1308,-260.6289"/>
</g>
<!-- 1 -->
<g id="node3" class="node">
<title>1</title>
<path fill="#ffffa0" stroke="#000000" d="M604.8857,-362.893C604.8857,-362.893 531.8857,-362.893 531.8857,-362.893 525.8857,-362.893 519.8857,-356.893 519.8857,-350.893 519.8857,-350.893 519.8857,-338.893 519.8857,-338.893 519.8857,-332.893 525.8857,-326.893 531.8857,-326.893 531.8857,-326.893 604.8857,-326.893 604.8857,-326.893 610.8857,-326.893 616.8857,-332.893 616.8857,-338.893 616.8857,-338.893 616.8857,-350.893 616.8857,-350.893 616.8857,-356.893 610.8857,-362.893 604.8857,-362.893"/>
<text text-anchor="start" x="536.3857" y="-348.293" font-family="Lato" font-size="12.00" fill="#000000">(x = 1, y = 0)</text>
<text text-anchor="start" x="527.8857" y="-335.293" font-family="Lato" font-size="12.00" fill="#000000">odd_x &amp; !odd_y</text>
</g>
<!-- 0&#45;&gt;1 -->
<g id="edge2" class="edge">
<title>0&#45;&gt;1</title>
<path fill="none" stroke="#e31a1c" stroke-width="2" d="M140.7389,-269.4874C230.6575,-285.3425 418.463,-318.4576 512.3866,-335.0189"/>
<polygon fill="#e31a1c" stroke="#e31a1c" stroke-width="2" points="519.5328,-336.279 512.0921,-338.1655 515.9991,-336.1636 512.5523,-335.5558 512.6391,-335.0633 512.726,-334.5709 516.1728,-335.1788 513.1861,-331.9612 519.5328,-336.279 519.5328,-336.279"/>
</g>
<!-- 2 -->
<g id="node4" class="node">
<title>2</title>
<path fill="#ffffa0" stroke="#000000" d="M330.5898,-521.2578C330.5898,-521.2578 257.5898,-521.2578 257.5898,-521.2578 251.5898,-521.2578 245.5898,-515.2578 245.5898,-509.2578 245.5898,-509.2578 245.5898,-497.2578 245.5898,-497.2578 245.5898,-491.2578 251.5898,-485.2578 257.5898,-485.2578 257.5898,-485.2578 330.5898,-485.2578 330.5898,-485.2578 336.5898,-485.2578 342.5898,-491.2578 342.5898,-497.2578 342.5898,-497.2578 342.5898,-509.2578 342.5898,-509.2578 342.5898,-515.2578 336.5898,-521.2578 330.5898,-521.2578"/>
<text text-anchor="start" x="262.0898" y="-506.6578" font-family="Lato" font-size="12.00" fill="#000000">(x = 0, y = 1)</text>
<text text-anchor="start" x="253.5898" y="-493.6578" font-family="Lato" font-size="12.00" fill="#000000">!odd_x &amp; odd_y</text>
</g>
<!-- 0&#45;&gt;2 -->
<g id="edge3" class="edge">
<title>0&#45;&gt;2</title>
<path fill="none" stroke="#000000" d="M105.8023,-278.8655C142.1471,-322.1796 233.6414,-431.2182 274.201,-479.5552"/>
<polygon fill="#000000" stroke="#000000" points="278.8877,-485.1406 271.9751,-481.803 276.6379,-482.4594 274.3881,-479.7782 274.3881,-479.7782 274.3881,-479.7782 276.6379,-482.4594 276.8012,-477.7534 278.8877,-485.1406 278.8877,-485.1406"/>
</g>
<!-- 3 -->
<g id="node5" class="node">
<title>3</title>
<path fill="#ffffa0" stroke="#000000" d="M186.1401,-120.2641C186.1401,-120.2641 110.1401,-120.2641 110.1401,-120.2641 104.1401,-120.2641 98.1401,-114.2641 98.1401,-108.2641 98.1401,-108.2641 98.1401,-96.2641 98.1401,-96.2641 98.1401,-90.2641 104.1401,-84.2641 110.1401,-84.2641 110.1401,-84.2641 186.1401,-84.2641 186.1401,-84.2641 192.1401,-84.2641 198.1401,-90.2641 198.1401,-96.2641 198.1401,-96.2641 198.1401,-108.2641 198.1401,-108.2641 198.1401,-114.2641 192.1401,-120.2641 186.1401,-120.2641"/>
<text text-anchor="start" x="116.1401" y="-105.6641" font-family="Lato" font-size="12.00" fill="#000000">(x = 2, y = 0)</text>
<text text-anchor="start" x="106.1401" y="-92.6641" font-family="Lato" font-size="12.00" fill="#000000">!odd_x &amp; !odd_y</text>
</g>
<!-- 1&#45;&gt;3 -->
<g id="edge4" class="edge">
<title>1&#45;&gt;3</title>
<path fill="none" stroke="#000000" d="M537.1423,-326.8547C461.3174,-283.0772 267.7717,-171.3335 185.7671,-123.9881"/>
<polygon fill="#000000" stroke="#000000" points="179.5891,-120.4213 187.2263,-121.1933 182.6202,-122.1713 185.6513,-123.9213 185.6513,-123.9213 185.6513,-123.9213 182.6202,-122.1713 184.0763,-126.6493 179.5891,-120.4213 179.5891,-120.4213"/>
</g>
<!-- 4 -->
<g id="node6" class="node">
<title>4</title>
<path fill="#ffffa0" stroke="#000000" d="M495.0578,-491.9932C495.0578,-491.9932 425.0578,-491.9932 425.0578,-491.9932 419.0578,-491.9932 413.0578,-485.9932 413.0578,-479.9932 413.0578,-479.9932 413.0578,-467.9932 413.0578,-467.9932 413.0578,-461.9932 419.0578,-455.9932 425.0578,-455.9932 425.0578,-455.9932 495.0578,-455.9932 495.0578,-455.9932 501.0578,-455.9932 507.0578,-461.9932 507.0578,-467.9932 507.0578,-467.9932 507.0578,-479.9932 507.0578,-479.9932 507.0578,-485.9932 501.0578,-491.9932 495.0578,-491.9932"/>
<text text-anchor="start" x="428.0578" y="-477.3932" font-family="Lato" font-size="12.00" fill="#000000">(x = 1, y = 1)</text>
<text text-anchor="start" x="421.0578" y="-464.3932" font-family="Lato" font-size="12.00" fill="#000000">odd_x &amp; odd_y</text>
</g>
<!-- 1&#45;&gt;4 -->
<g id="edge5" class="edge">
<title>1&#45;&gt;4</title>
<path fill="none" stroke="#e31a1c" stroke-width="2" d="M553.0947,-363.1161C533.9005,-385.9909 500.9409,-425.2705 479.8432,-450.4138"/>
<polygon fill="#e31a1c" stroke="#e31a1c" stroke-width="2" points="475.271,-455.8628 477.3575,-448.4757 477.1377,-452.8602 479.3875,-450.1791 479.7705,-450.5005 480.1535,-450.8219 477.9038,-453.503 482.1836,-452.5253 475.271,-455.8628 475.271,-455.8628"/>
</g>
<!-- 2&#45;&gt;4 -->
<g id="edge6" class="edge">
<title>2&#45;&gt;4</title>
<path fill="none" stroke="#000000" d="M342.988,-494.6357C362.7462,-491.1518 385.6247,-487.1177 405.8867,-483.545"/>
<polygon fill="#000000" stroke="#000000" points="412.935,-482.3022 406.5884,-486.62 409.4882,-482.91 406.0414,-483.5178 406.0414,-483.5178 406.0414,-483.5178 409.4882,-482.91 405.4944,-480.4157 412.935,-482.3022 412.935,-482.3022"/>
</g>
<!-- 5 -->
<g id="node7" class="node">
<title>5</title>
<path fill="#ffffa0" stroke="#000000" d="M186.1401,-436.9937C186.1401,-436.9937 110.1401,-436.9937 110.1401,-436.9937 104.1401,-436.9937 98.1401,-430.9937 98.1401,-424.9937 98.1401,-424.9937 98.1401,-412.9937 98.1401,-412.9937 98.1401,-406.9937 104.1401,-400.9937 110.1401,-400.9937 110.1401,-400.9937 186.1401,-400.9937 186.1401,-400.9937 192.1401,-400.9937 198.1401,-406.9937 198.1401,-412.9937 198.1401,-412.9937 198.1401,-424.9937 198.1401,-424.9937 198.1401,-430.9937 192.1401,-436.9937 186.1401,-436.9937"/>
<text text-anchor="start" x="116.1401" y="-422.3937" font-family="Lato" font-size="12.00" fill="#000000">(x = 0, y = 2)</text>
<text text-anchor="start" x="106.1401" y="-409.3937" font-family="Lato" font-size="12.00" fill="#000000">!odd_x &amp; !odd_y</text>
</g>
<!-- 2&#45;&gt;5 -->
<g id="edge7" class="edge">
<title>2&#45;&gt;5</title>
<path fill="none" stroke="#000000" d="M262.7799,-485.181C240.1747,-472.1299 209.5479,-454.4475 185.6369,-440.6425"/>
<polygon fill="#000000" stroke="#000000" points="179.3982,-437.0406 187.0354,-437.8126 182.4293,-438.7906 185.4604,-440.5406 185.4604,-440.5406 185.4604,-440.5406 182.4293,-438.7906 183.8853,-443.2686 179.3982,-437.0406 179.3982,-437.0406"/>
</g>
<!-- 3&#45;&gt;0 -->
<g id="edge8" class="edge">
<title>3&#45;&gt;0</title>
<path fill="none" stroke="#000000" d="M141.528,-120.4306C131.2462,-148.6796 111.3958,-203.2181 99.7149,-235.3111"/>
<polygon fill="#000000" stroke="#000000" points="97.2125,-242.1865 96.6467,-234.5313 98.4096,-238.8976 99.6067,-235.6087 99.6067,-235.6087 99.6067,-235.6087 98.4096,-238.8976 102.5667,-236.6861 97.2125,-242.1865 97.2125,-242.1865"/>
</g>
<!-- 6 -->
<g id="node8" class="node">
<title>6</title>
<path fill="#ffffa0" stroke="#000000" d="M330.5898,-36C330.5898,-36 257.5898,-36 257.5898,-36 251.5898,-36 245.5898,-30 245.5898,-24 245.5898,-24 245.5898,-12 245.5898,-12 245.5898,-6 251.5898,0 257.5898,0 257.5898,0 330.5898,0 330.5898,0 336.5898,0 342.5898,-6 342.5898,-12 342.5898,-12 342.5898,-24 342.5898,-24 342.5898,-30 336.5898,-36 330.5898,-36"/>
<text text-anchor="start" x="262.0898" y="-21.4" font-family="Lato" font-size="12.00" fill="#000000">(x = 2, y = 1)</text>
<text text-anchor="start" x="253.5898" y="-8.4" font-family="Lato" font-size="12.00" fill="#000000">!odd_x &amp; odd_y</text>
</g>
<!-- 3&#45;&gt;6 -->
<g id="edge9" class="edge">
<title>3&#45;&gt;6</title>
<path fill="none" stroke="#000000" d="M179.45,-84.1874C202.0552,-71.1362 232.682,-53.4538 256.593,-39.6488"/>
<polygon fill="#000000" stroke="#000000" points="262.8317,-36.0469 258.3446,-42.2749 259.8006,-37.7969 256.7695,-39.5469 256.7695,-39.5469 256.7695,-39.5469 259.8006,-37.7969 255.1945,-36.8189 262.8317,-36.0469 262.8317,-36.0469"/>
</g>
<!-- 4&#45;&gt;6 -->
<g id="edge10" class="edge">
<title>4&#45;&gt;6</title>
<path fill="none" stroke="#000000" d="M453.4492,-455.8363C427.5821,-384.767 333.1613,-125.348 303.246,-43.1563"/>
<polygon fill="#000000" stroke="#000000" points="300.7173,-36.2087 306.0715,-41.7092 301.9144,-39.4977 303.1115,-42.7866 303.1115,-42.7866 303.1115,-42.7866 301.9144,-39.4977 300.1514,-43.864 300.7173,-36.2087 300.7173,-36.2087"/>
</g>
<!-- 7 -->
<g id="node9" class="node">
<title>7</title>
<path fill="#ffffa0" stroke="#000000" d="M604.8857,-194.3648C604.8857,-194.3648 531.8857,-194.3648 531.8857,-194.3648 525.8857,-194.3648 519.8857,-188.3648 519.8857,-182.3648 519.8857,-182.3648 519.8857,-170.3648 519.8857,-170.3648 519.8857,-164.3648 525.8857,-158.3648 531.8857,-158.3648 531.8857,-158.3648 604.8857,-158.3648 604.8857,-158.3648 610.8857,-158.3648 616.8857,-164.3648 616.8857,-170.3648 616.8857,-170.3648 616.8857,-182.3648 616.8857,-182.3648 616.8857,-188.3648 610.8857,-194.3648 604.8857,-194.3648"/>
<text text-anchor="start" x="536.3857" y="-179.7648" font-family="Lato" font-size="12.00" fill="#000000">(x = 1, y = 2)</text>
<text text-anchor="start" x="527.8857" y="-166.7648" font-family="Lato" font-size="12.00" fill="#000000">odd_x &amp; !odd_y</text>
</g>
<!-- 4&#45;&gt;7 -->
<g id="edge11" class="edge">
<title>4&#45;&gt;7</title>
<path fill="none" stroke="#e31a1c" stroke-width="2" d="M466.6711,-455.8232C485.255,-404.7644 537.9744,-259.919 559.2828,-201.3747"/>
<polygon fill="#e31a1c" stroke="#e31a1c" stroke-width="2" points="561.7212,-194.6751 562.2871,-202.3304 560.994,-198.135 559.7969,-201.424 559.327,-201.253 558.8572,-201.0819 560.0543,-197.793 556.367,-200.1756 561.7212,-194.6751 561.7212,-194.6751"/>
</g>
<!-- 5&#45;&gt;0 -->
<g id="edge13" class="edge">
<title>5&#45;&gt;0</title>
<path fill="none" stroke="#000000" d="M141.528,-400.8272C131.2462,-372.5782 111.3958,-318.0398 99.7149,-285.9467"/>
<polygon fill="#000000" stroke="#000000" points="97.2125,-279.0713 102.5667,-284.5718 98.4096,-282.3602 99.6067,-285.6492 99.6067,-285.6492 99.6067,-285.6492 98.4096,-282.3602 96.6467,-286.7265 97.2125,-279.0713 97.2125,-279.0713"/>
</g>
<!-- 5&#45;&gt;7 -->
<g id="edge12" class="edge">
<title>5&#45;&gt;7</title>
<path fill="none" stroke="#e31a1c" stroke-width="2" d="M179.3835,-400.9553C255.2083,-357.1778 448.754,-245.4341 530.7586,-198.0888"/>
<polygon fill="#e31a1c" stroke="#e31a1c" stroke-width="2" points="536.9366,-194.5219 532.4494,-200.7499 534.1555,-196.7049 531.1244,-198.455 530.8744,-198.0219 530.6244,-197.5889 533.6555,-195.8389 529.2994,-195.294 536.9366,-194.5219 536.9366,-194.5219"/>
</g>
<!-- 6&#45;&gt;2 -->
<g id="edge14" class="edge">
<title>6&#45;&gt;2</title>
<path fill="none" stroke="#000000" d="M294.0898,-36.137C294.0898,-110.4512 294.0898,-391.7997 294.0898,-477.9999"/>
<polygon fill="#000000" stroke="#000000" points="294.0898,-485.0297 290.9399,-478.0297 294.0899,-481.5297 294.0899,-478.0297 294.0899,-478.0297 294.0899,-478.0297 294.0899,-481.5297 297.2399,-478.0297 294.0898,-485.0297 294.0898,-485.0297"/>
</g>
<!-- 8 -->
<g id="node10" class="node">
<title>8</title>
<path fill="#ffffa0" stroke="#000000" d="M498.0578,-65.2646C498.0578,-65.2646 422.0578,-65.2646 422.0578,-65.2646 416.0578,-65.2646 410.0578,-59.2646 410.0578,-53.2646 410.0578,-53.2646 410.0578,-41.2646 410.0578,-41.2646 410.0578,-35.2646 416.0578,-29.2646 422.0578,-29.2646 422.0578,-29.2646 498.0578,-29.2646 498.0578,-29.2646 504.0578,-29.2646 510.0578,-35.2646 510.0578,-41.2646 510.0578,-41.2646 510.0578,-53.2646 510.0578,-53.2646 510.0578,-59.2646 504.0578,-65.2646 498.0578,-65.2646"/>
<text text-anchor="start" x="428.0578" y="-50.6646" font-family="Lato" font-size="12.00" fill="#000000">(x = 2, y = 2)</text>
<text text-anchor="start" x="418.0578" y="-37.6646" font-family="Lato" font-size="12.00" fill="#000000">!odd_x &amp; !odd_y</text>
</g>
<!-- 6&#45;&gt;8 -->
<g id="edge15" class="edge">
<title>6&#45;&gt;8</title>
<path fill="none" stroke="#000000" d="M342.988,-26.6221C361.7232,-29.9256 383.2639,-33.7238 402.7191,-37.1543"/>
<polygon fill="#000000" stroke="#000000" points="409.7833,-38.3999 402.3427,-40.2864 406.3365,-37.7921 402.8897,-37.1843 402.8897,-37.1843 402.8897,-37.1843 406.3365,-37.7921 403.4367,-34.0821 409.7833,-38.3999 409.7833,-38.3999"/>
</g>
<!-- 7&#45;&gt;1 -->
<g id="edge17" class="edge">
<title>7&#45;&gt;1</title>
<path fill="none" stroke="#000000" d="M568.3857,-194.4003C568.3857,-224.4775 568.3857,-284.9665 568.3857,-319.3931"/>
<polygon fill="#000000" stroke="#000000" points="568.3857,-326.7325 565.2358,-319.7325 568.3857,-323.2325 568.3858,-319.7325 568.3858,-319.7325 568.3858,-319.7325 568.3857,-323.2325 571.5358,-319.7326 568.3857,-326.7325 568.3857,-326.7325"/>
</g>
<!-- 7&#45;&gt;8 -->
<g id="edge16" class="edge">
<title>7&#45;&gt;8</title>
<path fill="none" stroke="#e31a1c" stroke-width="2" d="M553.0947,-158.1417C533.9005,-135.267 500.9409,-95.9873 479.8432,-70.844"/>
<polygon fill="#e31a1c" stroke="#e31a1c" stroke-width="2" points="475.271,-65.395 482.1836,-68.7325 477.9038,-67.7548 480.1535,-70.4359 479.7705,-70.7573 479.3875,-71.0787 477.1377,-68.3976 477.3575,-72.7821 475.271,-65.395 475.271,-65.395"/>
</g>
<!-- 8&#45;&gt;3 -->
<g id="edge19" class="edge">
<title>8&#45;&gt;3</title>
<path fill="none" stroke="#000000" d="M409.9428,-56.1012C354.092,-65.9492 263.9522,-81.8433 205.372,-92.1726"/>
<polygon fill="#000000" stroke="#000000" points="198.389,-93.4039 204.7356,-89.0861 201.8358,-92.7961 205.2827,-92.1883 205.2827,-92.1883 205.2827,-92.1883 201.8358,-92.7961 205.8297,-95.2904 198.389,-93.4039 198.389,-93.4039"/>
</g>
<!-- 8&#45;&gt;5 -->
<g id="edge18" class="edge">
<title>8&#45;&gt;5</title>
<path fill="none" stroke="#e31a1c" stroke-width="2" d="M444.8022,-65.4455C393.2894,-126.8361 225.7912,-326.4527 167.9771,-395.3528"/>
<polygon fill="#e31a1c" stroke="#e31a1c" stroke-width="2" points="163.3663,-400.8478 165.4528,-393.4606 165.233,-397.8452 167.4828,-395.164 167.8658,-395.4854 168.2489,-395.8068 165.9991,-398.488 170.2789,-397.5102 163.3663,-400.8478 163.3663,-400.8478"/>
</g>
</g>
</svg>
