<?xml version="1.0" encoding="UTF-8" standalone="no"?>
<?xml-stylesheet href="spot.css" type="text/css"?>
<!DOCTYPE svg PUBLIC "-//W3C//DTD SVG 1.1//EN"
 "http://www.w3.org/Graphics/SVG/1.1/DTD/svg11.dtd">
<!-- Generated by graphviz version 2.40.1 (20161225.0304)
 -->
<!-- Title: G(Fa &amp; Fb) Pages: 1 -->
<svg width="285pt" height="156pt"
 viewBox="0.00 0.00 285.00 156.03" xmlns="http://www.w3.org/2000/svg" xmlns:xlink="http://www.w3.org/1999/xlink">
<g id="graph0" class="graph" transform="scale(1 1) rotate(0) translate(4 152.0299)">
<title>G(Fa &amp; Fb)</title>
<polygon fill="#ffffff" stroke="transparent" points="-4,4 -4,-152.0299 281,-152.0299 281,4 -4,4"/>
<text text-anchor="start" x="70" y="-135.4299" font-family="Lato" font-size="12.00" fill="#000000">Inf(</text>
<text text-anchor="start" x="88" y="-135.4299" font-family="Lato" font-size="12.00" fill="#ff7f00">❷</text>
<text text-anchor="start" x="102" y="-135.4299" font-family="Lato" font-size="12.00" fill="#000000">) | (Fin(</text>
<text text-anchor="start" x="137" y="-135.4299" font-family="Lato" font-size="12.00" fill="#ff4da0">❶</text>
<text text-anchor="start" x="151" y="-135.4299" font-family="Lato" font-size="12.00" fill="#000000">) &amp; Inf(</text>
<text text-anchor="start" x="186" y="-135.4299" font-family="Lato" font-size="12.00" fill="#1f78b4">⓿</text>
<text text-anchor="start" x="200" y="-135.4299" font-family="Lato" font-size="12.00" fill="#000000">))</text>
<text text-anchor="start" x="88" y="-123.4299" font-family="Lato" font-size="12.00" fill="#000000">[parity max even 3]</text>
<!-- I -->
<!-- 2 -->
<g id="node2" class="node">
<title>2</title>
<path fill="#ffffa0" stroke="#000000" d="M62,-71.0299C62,-71.0299 50,-71.0299 50,-71.0299 44,-71.0299 38,-65.0299 38,-59.0299 38,-59.0299 38,-47.0299 38,-47.0299 38,-41.0299 44,-35.0299 50,-35.0299 50,-35.0299 62,-35.0299 62,-35.0299 68,-35.0299 74,-41.0299 74,-47.0299 74,-47.0299 74,-59.0299 74,-59.0299 74,-65.0299 68,-71.0299 62,-71.0299"/>
<text text-anchor="start" x="52.5" y="-56.4299" font-family="Lato" font-size="12.00" fill="#000000">2</text>
<text text-anchor="start" x="49" y="-43.4299" font-family="Lato" font-size="12.00" fill="#ff7f00">❷</text>
</g>
<!-- I&#45;&gt;2 -->
<g id="edge1" class="edge">
<title>I&#45;&gt;2</title>
<path fill="none" stroke="#000000" d="M1.1233,-53.0299C4.178,-53.0299 17.9448,-53.0299 30.9241,-53.0299"/>
<polygon fill="#000000" stroke="#000000" points="37.9807,-53.0299 30.9808,-56.18 34.4807,-53.0299 30.9807,-53.03 30.9807,-53.03 30.9807,-53.03 34.4807,-53.0299 30.9807,-49.88 37.9807,-53.0299 37.9807,-53.0299"/>
</g>
<!-- 2&#45;&gt;2 -->
<g id="edge9" class="edge">
<title>2&#45;&gt;2</title>
<path fill="none" stroke="#000000" d="M49.4873,-71.1826C48.4854,-80.5689 50.6563,-89.0299 56,-89.0299 59.9243,-89.0299 62.1375,-84.4668 62.6395,-78.3252"/>
<polygon fill="#000000" stroke="#000000" points="62.5127,-71.1826 65.7866,-78.1255 62.5749,-74.682 62.6371,-78.1815 62.6371,-78.1815 62.6371,-78.1815 62.5749,-74.682 59.4876,-78.2374 62.5127,-71.1826 62.5127,-71.1826"/>
<text text-anchor="start" x="42" y="-92.4299" font-family="Lato" font-size="12.00" fill="#000000">a &amp; b</text>
</g>
<!-- 0 -->
<g id="node3" class="node">
<title>0</title>
<path fill="#ffffa0" stroke="#000000" d="M265,-61.0299C265,-61.0299 253,-61.0299 253,-61.0299 247,-61.0299 241,-55.0299 241,-49.0299 241,-49.0299 241,-37.0299 241,-37.0299 241,-31.0299 247,-25.0299 253,-25.0299 253,-25.0299 265,-25.0299 265,-25.0299 271,-25.0299 277,-31.0299 277,-37.0299 277,-37.0299 277,-49.0299 277,-49.0299 277,-55.0299 271,-61.0299 265,-61.0299"/>
<text text-anchor="start" x="255.5" y="-46.4299" font-family="Lato" font-size="12.00" fill="#000000">0</text>
<text text-anchor="start" x="252" y="-33.4299" font-family="Lato" font-size="12.00" fill="#ff4da0">❶</text>
</g>
<!-- 2&#45;&gt;0 -->
<g id="edge7" class="edge">
<title>2&#45;&gt;0</title>
<path fill="none" stroke="#000000" d="M74.0362,-68.7661C96.8798,-86.7246 137.6523,-112.2493 174,-101.0299 196.957,-93.9437 219.2515,-78.2964 235.2442,-65.0383"/>
<polygon fill="#000000" stroke="#000000" points="240.8407,-60.2821 237.5466,-67.2155 238.1737,-62.5487 235.5067,-64.8152 235.5067,-64.8152 235.5067,-64.8152 238.1737,-62.5487 233.4668,-62.415 240.8407,-60.2821 240.8407,-60.2821"/>
<text text-anchor="start" x="140.5" y="-106.4299" font-family="Lato" font-size="12.00" fill="#000000">a &amp; !b</text>
</g>
<!-- 1 -->
<g id="node4" class="node">
<title>1</title>
<path fill="#ffffa0" stroke="#000000" d="M162,-61.0299C162,-61.0299 150,-61.0299 150,-61.0299 144,-61.0299 138,-55.0299 138,-49.0299 138,-49.0299 138,-37.0299 138,-37.0299 138,-31.0299 144,-25.0299 150,-25.0299 150,-25.0299 162,-25.0299 162,-25.0299 168,-25.0299 174,-31.0299 174,-37.0299 174,-37.0299 174,-49.0299 174,-49.0299 174,-55.0299 168,-61.0299 162,-61.0299"/>
<text text-anchor="start" x="152.5" y="-46.4299" font-family="Lato" font-size="12.00" fill="#000000">1</text>
<text text-anchor="start" x="149" y="-33.4299" font-family="Lato" font-size="12.00" fill="#ff4da0">❶</text>
</g>
<!-- 2&#45;&gt;1 -->
<g id="edge8" class="edge">
<title>2&#45;&gt;1</title>
<path fill="none" stroke="#000000" d="M74.251,-52.388C87.0786,-51.8151 104.6255,-50.7868 120,-49.0299 123.4388,-48.6369 127.0491,-48.1384 130.6013,-47.5974"/>
<polygon fill="#000000" stroke="#000000" points="137.7371,-46.4472 131.3276,-50.6711 134.2817,-47.0042 130.8263,-47.5612 130.8263,-47.5612 130.8263,-47.5612 134.2817,-47.0042 130.325,-44.4514 137.7371,-46.4472 137.7371,-46.4472"/>
<text text-anchor="start" x="101" y="-54.4299" font-family="Lato" font-size="12.00" fill="#000000">!a</text>
</g>
<!-- 0&#45;&gt;2 -->
<g id="edge3" class="edge">
<title>0&#45;&gt;2</title>
<path fill="none" stroke="#000000" d="M240.7379,-29.9763C217.2092,-14.7873 174.9363,7.0093 138,-3.0299 116.6931,-8.821 95.4883,-21.9995 79.9811,-33.3733"/>
<polygon fill="#000000" stroke="#000000" points="74.12,-37.7858 77.8178,-31.059 76.9162,-35.6807 79.7124,-33.5756 79.7124,-33.5756 79.7124,-33.5756 76.9162,-35.6807 81.607,-36.0922 74.12,-37.7858 74.12,-37.7858"/>
<text text-anchor="start" x="152.5" y="-6.4299" font-family="Lato" font-size="12.00" fill="#000000">b</text>
</g>
<!-- 0&#45;&gt;0 -->
<g id="edge2" class="edge">
<title>0&#45;&gt;0</title>
<path fill="none" stroke="#000000" d="M249.9546,-61.1826C248.563,-70.5689 251.5781,-79.0299 259,-79.0299 264.4504,-79.0299 267.5243,-74.4668 268.2216,-68.3252"/>
<polygon fill="#000000" stroke="#000000" points="268.0454,-61.1826 271.3671,-68.1027 268.1318,-64.6815 268.2181,-68.1804 268.2181,-68.1804 268.2181,-68.1804 268.1318,-64.6815 265.0691,-68.2582 268.0454,-61.1826 268.0454,-61.1826"/>
<text text-anchor="start" x="254" y="-82.4299" font-family="Lato" font-size="12.00" fill="#000000">!b</text>
</g>
<!-- 1&#45;&gt;2 -->
<g id="edge6" class="edge">
<title>1&#45;&gt;2</title>
<path fill="none" stroke="#000000" d="M137.8921,-37.9116C124.9783,-35.0204 107.2691,-32.6059 92,-36.0299 88.2063,-36.8806 84.3417,-38.1782 80.6205,-39.6852"/>
<polygon fill="#000000" stroke="#000000" points="74.1235,-42.5728 79.2408,-36.8513 77.3218,-41.1513 80.5202,-39.7298 80.5202,-39.7298 80.5202,-39.7298 77.3218,-41.1513 81.7995,-42.6083 74.1235,-42.5728 74.1235,-42.5728"/>
<text text-anchor="start" x="92" y="-39.4299" font-family="Lato" font-size="12.00" fill="#000000">a &amp; b</text>
</g>
<!-- 1&#45;&gt;0 -->
<g id="edge4" class="edge">
<title>1&#45;&gt;0</title>
<path fill="none" stroke="#000000" d="M174.4143,-43.0299C190.8188,-43.0299 214.9902,-43.0299 233.2978,-43.0299"/>
<polygon fill="#000000" stroke="#000000" points="240.7451,-43.0299 233.7451,-46.18 237.2451,-43.0299 233.7451,-43.03 233.7451,-43.03 233.7451,-43.03 237.2451,-43.0299 233.745,-39.88 240.7451,-43.0299 240.7451,-43.0299"/>
<text text-anchor="start" x="192" y="-46.4299" font-family="Lato" font-size="12.00" fill="#000000">a &amp; !b</text>
</g>
<!-- 1&#45;&gt;1 -->
<g id="edge5" class="edge">
<title>1&#45;&gt;1</title>
<path fill="none" stroke="#000000" d="M146.9546,-61.1826C145.563,-70.5689 148.5781,-79.0299 156,-79.0299 161.4504,-79.0299 164.5243,-74.4668 165.2216,-68.3252"/>
<polygon fill="#000000" stroke="#000000" points="165.0454,-61.1826 168.3671,-68.1027 165.1318,-64.6815 165.2181,-68.1804 165.2181,-68.1804 165.2181,-68.1804 165.1318,-64.6815 162.0691,-68.2582 165.0454,-61.1826 165.0454,-61.1826"/>
<text text-anchor="start" x="151" y="-82.4299" font-family="Lato" font-size="12.00" fill="#000000">!a</text>
</g>
</g>
</svg>
