<?xml version="1.0" encoding="UTF-8" standalone="no"?>
<?xml-stylesheet href="spot.css" type="text/css"?>
<!DOCTYPE svg PUBLIC "-//W3C//DTD SVG 1.1//EN"
 "http://www.w3.org/Graphics/SVG/1.1/DTD/svg11.dtd">
<!-- Generated by graphviz version 2.40.1 (20161225.0304)
 -->
<!-- Pages: 1 -->
<svg width="590pt" height="266pt"
 viewBox="0.00 0.00 589.50 266.00" xmlns="http://www.w3.org/2000/svg" xmlns:xlink="http://www.w3.org/1999/xlink">
<g id="graph0" class="graph" transform="scale(1 1) rotate(0) translate(4 262)">
<polygon fill="#ffffff" stroke="transparent" points="-4,4 -4,-262 585.5,-262 585.5,4 -4,4"/>
<text text-anchor="start" x="196.25" y="-245.4" font-family="Lato" font-size="12.00" fill="#000000">(Fin(</text>
<text text-anchor="start" x="219.25" y="-245.4" font-family="Lato" font-size="12.00" fill="#1f78b4">⓿</text>
<text text-anchor="start" x="233.25" y="-245.4" font-family="Lato" font-size="12.00" fill="#000000">) | Inf(</text>
<text text-anchor="start" x="263.25" y="-245.4" font-family="Lato" font-size="12.00" fill="#ff4da0">❶</text>
<text text-anchor="start" x="277.25" y="-245.4" font-family="Lato" font-size="12.00" fill="#000000">)) &amp; (Fin(</text>
<text text-anchor="start" x="320.25" y="-245.4" font-family="Lato" font-size="12.00" fill="#ff7f00">❷</text>
<text text-anchor="start" x="334.25" y="-245.4" font-family="Lato" font-size="12.00" fill="#000000">) | Inf(</text>
<text text-anchor="start" x="364.25" y="-245.4" font-family="Lato" font-size="12.00" fill="#6a3d9a">❸</text>
<text text-anchor="start" x="378.25" y="-245.4" font-family="Lato" font-size="12.00" fill="#000000">))</text>
<text text-anchor="start" x="263.75" y="-233.4" font-family="Lato" font-size="12.00" fill="#000000">[Streett 2]</text>
<!-- I -->
<!-- 0 -->
<g id="node2" class="node">
<title>0</title>
<path fill="#ffffa0" stroke="#000000" d="M62,-81C62,-81 50,-81 50,-81 44,-81 38,-75 38,-69 38,-69 38,-57 38,-57 38,-51 44,-45 50,-45 50,-45 62,-45 62,-45 68,-45 74,-51 74,-57 74,-57 74,-69 74,-69 74,-75 68,-81 62,-81"/>
<text text-anchor="middle" x="56" y="-59.9" font-family="Lato" font-size="12.00" fill="#000000">0</text>
</g>
<!-- I&#45;&gt;0 -->
<g id="edge1" class="edge">
<title>I&#45;&gt;0</title>
<path fill="none" stroke="#000000" d="M1.1233,-63C4.178,-63 17.9448,-63 30.9241,-63"/>
<polygon fill="#000000" stroke="#000000" points="37.9807,-63 30.9808,-66.1501 34.4807,-63 30.9807,-63.0001 30.9807,-63.0001 30.9807,-63.0001 34.4807,-63 30.9807,-59.8501 37.9807,-63 37.9807,-63"/>
</g>
<!-- 2 -->
<g id="node3" class="node">
<title>2</title>
<path fill="#ffffa0" stroke="#000000" d="M192,-116C192,-116 172,-116 172,-116 166,-116 160,-110 160,-104 160,-104 160,-92 160,-92 160,-86 166,-80 172,-80 172,-80 192,-80 192,-80 198,-80 204,-86 204,-92 204,-92 204,-104 204,-104 204,-110 198,-116 192,-116"/>
<text text-anchor="start" x="178.5" y="-101.4" font-family="Lato" font-size="12.00" fill="#000000">2</text>
<text text-anchor="start" x="168" y="-89.4" font-family="Lato" font-size="12.00" fill="#1f78b4">⓿</text>
<text text-anchor="start" x="182" y="-89.4" font-family="Lato" font-size="12.00" fill="#ff7f00">❷</text>
</g>
<!-- 0&#45;&gt;2 -->
<g id="edge2" class="edge">
<title>0&#45;&gt;2</title>
<path fill="none" stroke="#000000" d="M74.0527,-68.0146C94.6147,-73.7263 128.5054,-83.1404 152.8303,-89.8973"/>
<polygon fill="#000000" stroke="#000000" points="159.7321,-91.8145 152.1444,-92.976 156.3598,-90.8777 152.9875,-89.9409 152.9875,-89.9409 152.9875,-89.9409 156.3598,-90.8777 153.8306,-86.9058 159.7321,-91.8145 159.7321,-91.8145"/>
<text text-anchor="start" x="92" y="-88.4" font-family="Lato" font-size="12.00" fill="#000000">!p0 &amp; !p1</text>
</g>
<!-- 1 -->
<g id="node4" class="node">
<title>1</title>
<path fill="#ffffa0" stroke="#000000" d="M317,-90C317,-90 305,-90 305,-90 299,-90 293,-84 293,-78 293,-78 293,-66 293,-66 293,-60 299,-54 305,-54 305,-54 317,-54 317,-54 323,-54 329,-60 329,-66 329,-66 329,-78 329,-78 329,-84 323,-90 317,-90"/>
<text text-anchor="middle" x="311" y="-68.9" font-family="Lato" font-size="12.00" fill="#000000">1</text>
</g>
<!-- 0&#45;&gt;1 -->
<g id="edge3" class="edge">
<title>0&#45;&gt;1</title>
<path fill="none" stroke="#000000" d="M74.1635,-56.6491C111.5651,-44.5691 199.4999,-21.3371 269,-43 275.2125,-44.9364 281.3169,-48.1483 286.8641,-51.7445"/>
<polygon fill="#000000" stroke="#000000" points="292.6433,-55.7555 285.0966,-54.3521 289.768,-53.7599 286.8926,-51.7643 286.8926,-51.7643 286.8926,-51.7643 289.768,-53.7599 288.6887,-49.1765 292.6433,-55.7555 292.6433,-55.7555"/>
<text text-anchor="start" x="158" y="-39.4" font-family="Lato" font-size="12.00" fill="#000000">!p0 &amp; !p1</text>
</g>
<!-- 3 -->
<g id="node5" class="node">
<title>3</title>
<path fill="#ffffa0" stroke="#000000" d="M565,-185C565,-185 553,-185 553,-185 547,-185 541,-179 541,-173 541,-173 541,-161 541,-161 541,-155 547,-149 553,-149 553,-149 565,-149 565,-149 571,-149 577,-155 577,-161 577,-161 577,-173 577,-173 577,-179 571,-185 565,-185"/>
<text text-anchor="middle" x="559" y="-163.9" font-family="Lato" font-size="12.00" fill="#000000">3</text>
</g>
<!-- 0&#45;&gt;3 -->
<g id="edge4" class="edge">
<title>0&#45;&gt;3</title>
<path fill="none" stroke="#000000" d="M61.5835,-81.0935C75.1439,-120.9889 113.8098,-213 182,-213 182,-213 182,-213 441,-213 475.1668,-213 511.3317,-196.0516 534.4805,-182.7301"/>
<polygon fill="#000000" stroke="#000000" points="540.652,-179.086 536.226,-185.3576 537.6382,-180.8656 534.6244,-182.6452 534.6244,-182.6452 534.6244,-182.6452 537.6382,-180.8656 533.0227,-179.9327 540.652,-179.086 540.652,-179.086"/>
<text text-anchor="start" x="287" y="-216.4" font-family="Lato" font-size="12.00" fill="#000000">!p0 &amp; !p1</text>
</g>
<!-- 2&#45;&gt;2 -->
<g id="edge7" class="edge">
<title>2&#45;&gt;2</title>
<path fill="none" stroke="#000000" d="M170.4219,-116.1527C168.6406,-125.5391 172.5,-134 182,-134 188.9766,-134 192.9111,-129.437 193.8036,-123.2953"/>
<polygon fill="#000000" stroke="#000000" points="193.5781,-116.1527 196.9475,-123.0498 193.6886,-119.651 193.7991,-123.1492 193.7991,-123.1492 193.7991,-123.1492 193.6886,-119.651 190.6507,-123.2487 193.5781,-116.1527 193.5781,-116.1527"/>
<text text-anchor="start" x="158" y="-137.4" font-family="Lato" font-size="12.00" fill="#000000">!p0 &amp; !p1</text>
</g>
<!-- 2&#45;&gt;1 -->
<g id="edge6" class="edge">
<title>2&#45;&gt;1</title>
<path fill="none" stroke="#000000" d="M204.1759,-93.5304C226.8946,-88.9515 262.156,-81.8445 285.8886,-77.0612"/>
<polygon fill="#000000" stroke="#000000" points="292.8571,-75.6567 286.6175,-80.1277 289.4261,-76.3483 285.9951,-77.0398 285.9951,-77.0398 285.9951,-77.0398 289.4261,-76.3483 285.3727,-73.9519 292.8571,-75.6567 292.8571,-75.6567"/>
<text text-anchor="start" x="224" y="-91.4" font-family="Lato" font-size="12.00" fill="#000000">!p0 &amp; p1</text>
</g>
<!-- 4 -->
<g id="node7" class="node">
<title>4</title>
<path fill="#ffffa0" stroke="#000000" d="M317,-36C317,-36 305,-36 305,-36 299,-36 293,-30 293,-24 293,-24 293,-12 293,-12 293,-6 299,0 305,0 305,0 317,0 317,0 323,0 329,-6 329,-12 329,-12 329,-24 329,-24 329,-30 323,-36 317,-36"/>
<text text-anchor="middle" x="311" y="-14.9" font-family="Lato" font-size="12.00" fill="#000000">4</text>
</g>
<!-- 2&#45;&gt;4 -->
<g id="edge8" class="edge">
<title>2&#45;&gt;4</title>
<path fill="none" stroke="#000000" d="M202.7573,-79.8713C209.3467,-74.4832 216.7969,-68.7548 224,-64 244.015,-50.788 268.2371,-38.235 286.0354,-29.5903"/>
<polygon fill="#000000" stroke="#000000" points="292.7588,-26.362 287.812,-32.2316 289.6036,-27.877 286.4485,-29.392 286.4485,-29.392 286.4485,-29.392 289.6036,-27.877 285.085,-26.5524 292.7588,-26.362 292.7588,-26.362"/>
<text text-anchor="start" x="225.5" y="-67.4" font-family="Lato" font-size="12.00" fill="#000000">p0 &amp; p1</text>
</g>
<!-- 5 -->
<g id="node6" class="node">
<title>5</title>
<path fill="#ffffa0" stroke="#000000" d="M451,-116C451,-116 431,-116 431,-116 425,-116 419,-110 419,-104 419,-104 419,-92 419,-92 419,-86 425,-80 431,-80 431,-80 451,-80 451,-80 457,-80 463,-86 463,-92 463,-92 463,-104 463,-104 463,-110 457,-116 451,-116"/>
<text text-anchor="start" x="437.5" y="-101.4" font-family="Lato" font-size="12.00" fill="#000000">5</text>
<text text-anchor="start" x="427" y="-89.4" font-family="Lato" font-size="12.00" fill="#ff4da0">❶</text>
<text text-anchor="start" x="441" y="-89.4" font-family="Lato" font-size="12.00" fill="#ff7f00">❷</text>
</g>
<!-- 1&#45;&gt;5 -->
<g id="edge5" class="edge">
<title>1&#45;&gt;5</title>
<path fill="none" stroke="#000000" d="M329.2059,-65.528C347.8381,-59.96 377.3337,-54.1077 401,-63 407.9967,-65.6289 414.5704,-70.0982 420.2882,-74.98"/>
<polygon fill="#000000" stroke="#000000" points="425.7047,-79.9465 418.4163,-77.5374 423.1249,-77.5811 420.5452,-75.2157 420.5452,-75.2157 420.5452,-75.2157 423.1249,-77.5811 422.6741,-72.8939 425.7047,-79.9465 425.7047,-79.9465"/>
<text text-anchor="start" x="354.5" y="-66.4" font-family="Lato" font-size="12.00" fill="#000000">!p0 &amp; p1</text>
</g>
<!-- 3&#45;&gt;2 -->
<g id="edge9" class="edge">
<title>3&#45;&gt;2</title>
<path fill="none" stroke="#000000" d="M540.7207,-166.6157C489.4783,-165.0799 340.5783,-157.4655 224,-120 219.4719,-118.5448 214.8482,-116.6257 210.4027,-114.5263"/>
<polygon fill="#000000" stroke="#000000" points="204.049,-111.3544 211.7189,-111.6627 207.1805,-112.9177 210.312,-114.481 210.312,-114.481 210.312,-114.481 207.1805,-112.9177 208.905,-117.2993 204.049,-111.3544 204.049,-111.3544"/>
<text text-anchor="start" x="353" y="-159.4" font-family="Lato" font-size="12.00" fill="#000000">!p0 &amp; !p1</text>
</g>
<!-- 3&#45;&gt;3 -->
<g id="edge10" class="edge">
<title>3&#45;&gt;3</title>
<path fill="none" stroke="#000000" d="M548.8691,-185.1527C547.3105,-194.5391 550.6875,-203 559,-203 565.1045,-203 568.5472,-198.437 569.3282,-192.2953"/>
<polygon fill="#000000" stroke="#000000" points="569.1309,-185.1527 572.473,-192.063 569.2275,-188.6514 569.3242,-192.15 569.3242,-192.15 569.3242,-192.15 569.2275,-188.6514 566.1754,-192.2371 569.1309,-185.1527 569.1309,-185.1527"/>
<text text-anchor="start" x="536.5" y="-206.4" font-family="Lato" font-size="12.00" fill="#000000">!p0 &amp; p1</text>
</g>
<!-- 5&#45;&gt;2 -->
<g id="edge14" class="edge">
<title>5&#45;&gt;2</title>
<path fill="none" stroke="#000000" d="M418.6921,-103.2704C412.9598,-104.4013 406.779,-105.4278 401,-106 322.7149,-113.7517 302.3741,-111.7924 224,-105 219.8482,-104.6402 215.4882,-104.0994 211.213,-103.4747"/>
<polygon fill="#000000" stroke="#000000" points="204.1501,-102.3615 211.5552,-100.3399 207.6074,-102.9065 211.0647,-103.4514 211.0647,-103.4514 211.0647,-103.4514 207.6074,-102.9065 210.5743,-106.563 204.1501,-102.3615 204.1501,-102.3615"/>
<text text-anchor="start" x="287" y="-114.4" font-family="Lato" font-size="12.00" fill="#000000">!p0 &amp; !p1</text>
</g>
<!-- 5&#45;&gt;1 -->
<g id="edge13" class="edge">
<title>5&#45;&gt;1</title>
<path fill="none" stroke="#000000" d="M418.7261,-93.5452C395.7686,-88.9537 360.0452,-81.809 336.1014,-77.0203"/>
<polygon fill="#000000" stroke="#000000" points="329.0759,-75.6152 336.5578,-73.8993 332.508,-76.3016 335.94,-76.9881 335.94,-76.9881 335.94,-76.9881 332.508,-76.3016 335.3222,-80.0769 329.0759,-75.6152 329.0759,-75.6152"/>
<text text-anchor="start" x="356" y="-92.4" font-family="Lato" font-size="12.00" fill="#000000">p0 &amp; p1</text>
</g>
<!-- 5&#45;&gt;3 -->
<g id="edge15" class="edge">
<title>5&#45;&gt;3</title>
<path fill="none" stroke="#000000" d="M463.1359,-108.0753C479.9627,-116.0325 503.4663,-127.7961 523,-140 527.0065,-142.5031 531.1288,-145.3301 535.0887,-148.1884"/>
<polygon fill="#000000" stroke="#000000" points="540.7418,-152.3643 533.2398,-150.7388 537.9266,-150.2847 535.1114,-148.2051 535.1114,-148.2051 535.1114,-148.2051 537.9266,-150.2847 536.9831,-145.6714 540.7418,-152.3643 540.7418,-152.3643"/>
<text text-anchor="start" x="481" y="-143.4" font-family="Lato" font-size="12.00" fill="#000000">p0 &amp; p1</text>
</g>
<!-- 4&#45;&gt;0 -->
<g id="edge11" class="edge">
<title>4&#45;&gt;0</title>
<path fill="none" stroke="#000000" d="M292.7824,-15.1695C253.6471,-9.9791 159.6196,-2.3378 92,-36 87.9611,-38.0106 83.9124,-40.4882 80.0639,-43.1196"/>
<polygon fill="#000000" stroke="#000000" points="74.2112,-47.3363 78.0493,-40.6886 77.0509,-45.2903 79.8907,-43.2443 79.8907,-43.2443 79.8907,-43.2443 77.0509,-45.2903 81.7321,-45.8001 74.2112,-47.3363 74.2112,-47.3363"/>
<text text-anchor="start" x="158" y="-18.4" font-family="Lato" font-size="12.00" fill="#000000">!p0 &amp; !p1</text>
</g>
<!-- 4&#45;&gt;5 -->
<g id="edge12" class="edge">
<title>4&#45;&gt;5</title>
<path fill="none" stroke="#000000" d="M329.0849,-18.9518C348.4234,-20.7558 379.2392,-25.9669 401,-41 412.9173,-49.2329 422.4412,-62.2448 429.2017,-73.7591"/>
<polygon fill="#000000" stroke="#000000" points="432.6708,-79.962 426.5046,-75.3901 430.9623,-76.9072 429.2539,-73.8525 429.2539,-73.8525 429.2539,-73.8525 430.9623,-76.9072 432.0031,-72.3149 432.6708,-79.962 432.6708,-79.962"/>
<text text-anchor="start" x="354.5" y="-44.4" font-family="Lato" font-size="12.00" fill="#000000">!p0 &amp; p1</text>
</g>
</g>
</svg>
