<?xml version="1.0" encoding="UTF-8" standalone="no"?>
<?xml-stylesheet href="spot.css" type="text/css"?>
<!DOCTYPE svg PUBLIC "-//W3C//DTD SVG 1.1//EN"
 "http://www.w3.org/Graphics/SVG/1.1/DTD/svg11.dtd">
<!-- Generated by graphviz version 2.40.1 (20161225.0304)
 -->
<!-- Pages: 1 -->
<svg width="1087pt" height="360pt"
 viewBox="0.00 0.00 1087.00 360.00" xmlns="http://www.w3.org/2000/svg" xmlns:xlink="http://www.w3.org/1999/xlink">
<g id="graph0" class="graph" transform="scale(1 1) rotate(0) translate(4 356)">
<polygon fill="#ffffff" stroke="transparent" points="-4,4 -4,-356 1083,-356 1083,4 -4,4"/>
<text text-anchor="start" x="445" y="-339.4" font-family="Lato" font-size="12.00" fill="#000000">Inf(</text>
<text text-anchor="start" x="463" y="-339.4" font-family="Lato" font-size="12.00" fill="#1f78b4">⓿</text>
<text text-anchor="start" x="477" y="-339.4" font-family="Lato" font-size="12.00" fill="#000000">) | (Fin(</text>
<text text-anchor="start" x="512" y="-339.4" font-family="Lato" font-size="12.00" fill="#ff4da0">❶</text>
<text text-anchor="start" x="526" y="-339.4" font-family="Lato" font-size="12.00" fill="#000000">) &amp; (Inf(</text>
<text text-anchor="start" x="564" y="-339.4" font-family="Lato" font-size="12.00" fill="#ff7f00">❷</text>
<text text-anchor="start" x="578" y="-339.4" font-family="Lato" font-size="12.00" fill="#000000">) | Fin(</text>
<text text-anchor="start" x="610" y="-339.4" font-family="Lato" font-size="12.00" fill="#6a3d9a">❸</text>
<text text-anchor="start" x="624" y="-339.4" font-family="Lato" font-size="12.00" fill="#000000">)))</text>
<text text-anchor="start" x="490" y="-327.4" font-family="Lato" font-size="12.00" fill="#000000">[parity min even 4]</text>
<!-- I -->
<!-- 0 -->
<g id="node2" class="node">
<title>0</title>
<path fill="#ffffa0" stroke="#000000" d="M62,-139C62,-139 50,-139 50,-139 44,-139 38,-133 38,-127 38,-127 38,-115 38,-115 38,-109 44,-103 50,-103 50,-103 62,-103 62,-103 68,-103 74,-109 74,-115 74,-115 74,-127 74,-127 74,-133 68,-139 62,-139"/>
<text text-anchor="start" x="52.5" y="-124.4" font-family="Lato" font-size="12.00" fill="#000000">0</text>
<text text-anchor="start" x="49" y="-111.4" font-family="Lato" font-size="12.00" fill="#ff4da0">❶</text>
</g>
<!-- I&#45;&gt;0 -->
<g id="edge1" class="edge">
<title>I&#45;&gt;0</title>
<path fill="none" stroke="#000000" d="M1.1233,-121C4.178,-121 17.9448,-121 30.9241,-121"/>
<polygon fill="#000000" stroke="#000000" points="37.9807,-121 30.9808,-124.1501 34.4807,-121 30.9807,-121.0001 30.9807,-121.0001 30.9807,-121.0001 34.4807,-121 30.9807,-117.8501 37.9807,-121 37.9807,-121"/>
</g>
<!-- 0&#45;&gt;0 -->
<g id="edge4" class="edge">
<title>0&#45;&gt;0</title>
<path fill="none" stroke="#000000" d="M49.4873,-139.1527C48.4854,-148.5391 50.6563,-157 56,-157 59.9243,-157 62.1375,-152.437 62.6395,-146.2953"/>
<polygon fill="#000000" stroke="#000000" points="62.5127,-139.1527 65.7866,-146.0956 62.5749,-142.6522 62.6371,-146.1516 62.6371,-146.1516 62.6371,-146.1516 62.5749,-142.6522 59.4876,-146.2076 62.5127,-139.1527 62.5127,-139.1527"/>
<text text-anchor="start" x="33.5" y="-160.4" font-family="Lato" font-size="12.00" fill="#000000">p0 &amp; !p1</text>
</g>
<!-- 2 -->
<g id="node3" class="node">
<title>2</title>
<path fill="#ffffa0" stroke="#000000" d="M188,-171C188,-171 176,-171 176,-171 170,-171 164,-165 164,-159 164,-159 164,-147 164,-147 164,-141 170,-135 176,-135 176,-135 188,-135 188,-135 194,-135 200,-141 200,-147 200,-147 200,-159 200,-159 200,-165 194,-171 188,-171"/>
<text text-anchor="start" x="178.5" y="-156.4" font-family="Lato" font-size="12.00" fill="#000000">2</text>
<text text-anchor="start" x="175" y="-143.4" font-family="Lato" font-size="12.00" fill="#ff7f00">❷</text>
</g>
<!-- 0&#45;&gt;2 -->
<g id="edge2" class="edge">
<title>0&#45;&gt;2</title>
<path fill="none" stroke="#000000" d="M74.0527,-125.5848C95.8533,-131.1215 132.637,-140.4634 157.1172,-146.6806"/>
<polygon fill="#000000" stroke="#000000" points="163.9808,-148.4237 156.4207,-149.7536 160.5885,-147.5621 157.1961,-146.7005 157.1961,-146.7005 157.1961,-146.7005 160.5885,-147.5621 157.9716,-143.6475 163.9808,-148.4237 163.9808,-148.4237"/>
<text text-anchor="start" x="92" y="-144.4" font-family="Lato" font-size="12.00" fill="#000000">!p0 &amp; !p1</text>
</g>
<!-- 8 -->
<g id="node4" class="node">
<title>8</title>
<path fill="#ffffa0" stroke="#000000" d="M446,-297C446,-297 434,-297 434,-297 428,-297 422,-291 422,-285 422,-285 422,-273 422,-273 422,-267 428,-261 434,-261 434,-261 446,-261 446,-261 452,-261 458,-267 458,-273 458,-273 458,-285 458,-285 458,-291 452,-297 446,-297"/>
<text text-anchor="start" x="436.5" y="-282.4" font-family="Lato" font-size="12.00" fill="#000000">8</text>
<text text-anchor="start" x="433" y="-269.4" font-family="Lato" font-size="12.00" fill="#1f78b4">⓿</text>
</g>
<!-- 0&#45;&gt;8 -->
<g id="edge3" class="edge">
<title>0&#45;&gt;8</title>
<path fill="none" stroke="#000000" d="M72.5013,-139.1206C107.8755,-176.2495 195.5083,-259.3009 290,-281 332.8224,-290.8337 384.3466,-286.8381 414.507,-282.9696"/>
<polygon fill="#000000" stroke="#000000" points="421.6963,-281.9973 415.1816,-286.0571 418.2279,-282.4664 414.7594,-282.9355 414.7594,-282.9355 414.7594,-282.9355 418.2279,-282.4664 414.3372,-279.8139 421.6963,-281.9973 421.6963,-281.9973"/>
<text text-anchor="start" x="224" y="-278.4" font-family="Lato" font-size="12.00" fill="#000000">!p0 &amp; !p1</text>
</g>
<!-- 6 -->
<g id="node5" class="node">
<title>6</title>
<path fill="#ffffa0" stroke="#000000" d="M947,-110C947,-110 935,-110 935,-110 929,-110 923,-104 923,-98 923,-98 923,-86 923,-86 923,-80 929,-74 935,-74 935,-74 947,-74 947,-74 953,-74 959,-80 959,-86 959,-86 959,-98 959,-98 959,-104 953,-110 947,-110"/>
<text text-anchor="start" x="937.5" y="-95.4" font-family="Lato" font-size="12.00" fill="#000000">6</text>
<text text-anchor="start" x="934" y="-82.4" font-family="Lato" font-size="12.00" fill="#1f78b4">⓿</text>
</g>
<!-- 0&#45;&gt;6 -->
<g id="edge5" class="edge">
<title>0&#45;&gt;6</title>
<path fill="none" stroke="#000000" d="M62.1942,-102.835C68.0304,-87.8099 77.9804,-66.6362 92,-52 123.9556,-18.6389 135.8034,0 182,0 182,0 182,0 819.5,0 864.5148,0 903.3603,-40.6335 924.3549,-67.8919"/>
<polygon fill="#000000" stroke="#000000" points="928.807,-73.8238 922.0857,-70.1161 926.706,-71.0245 924.605,-68.2252 924.605,-68.2252 924.605,-68.2252 926.706,-71.0245 927.1244,-66.3343 928.807,-73.8238 928.807,-73.8238"/>
<text text-anchor="start" x="483.5" y="-3.4" font-family="Lato" font-size="12.00" fill="#000000">!p0 &amp; p1</text>
</g>
<!-- 5 -->
<g id="node7" class="node">
<title>5</title>
<path fill="#ffffa0" stroke="#000000" d="M318.5,-171C318.5,-171 306.5,-171 306.5,-171 300.5,-171 294.5,-165 294.5,-159 294.5,-159 294.5,-147 294.5,-147 294.5,-141 300.5,-135 306.5,-135 306.5,-135 318.5,-135 318.5,-135 324.5,-135 330.5,-141 330.5,-147 330.5,-147 330.5,-159 330.5,-159 330.5,-165 324.5,-171 318.5,-171"/>
<text text-anchor="start" x="309" y="-156.4" font-family="Lato" font-size="12.00" fill="#000000">5</text>
<text text-anchor="start" x="305.5" y="-143.4" font-family="Lato" font-size="12.00" fill="#1f78b4">⓿</text>
</g>
<!-- 2&#45;&gt;5 -->
<g id="edge9" class="edge">
<title>2&#45;&gt;5</title>
<path fill="none" stroke="#000000" d="M200.1455,-153C222.7104,-153 261.3684,-153 286.9293,-153"/>
<polygon fill="#000000" stroke="#000000" points="294.0879,-153 287.088,-156.1501 290.5879,-153 287.0879,-153.0001 287.0879,-153.0001 287.0879,-153.0001 290.5879,-153 287.0879,-149.8501 294.0879,-153 294.0879,-153"/>
<text text-anchor="start" x="224" y="-156.4" font-family="Lato" font-size="12.00" fill="#000000">!p0 &amp; !p1</text>
</g>
<!-- 4 -->
<g id="node9" class="node">
<title>4</title>
<path fill="#ffffa0" stroke="#000000" d="M578,-255C578,-255 566,-255 566,-255 560,-255 554,-249 554,-243 554,-243 554,-231 554,-231 554,-225 560,-219 566,-219 566,-219 578,-219 578,-219 584,-219 590,-225 590,-231 590,-231 590,-243 590,-243 590,-249 584,-255 578,-255"/>
<text text-anchor="start" x="568.5" y="-240.4" font-family="Lato" font-size="12.00" fill="#000000">4</text>
<text text-anchor="start" x="565" y="-227.4" font-family="Lato" font-size="12.00" fill="#1f78b4">⓿</text>
</g>
<!-- 2&#45;&gt;4 -->
<g id="edge8" class="edge">
<title>2&#45;&gt;4</title>
<path fill="none" stroke="#000000" d="M200.2117,-160.9589C207.5273,-164.0009 216.088,-167.3679 224,-170 280.2598,-188.716 294.9338,-192.0096 353,-204 422.6578,-218.3839 505.9976,-229.2112 546.874,-234.1113"/>
<polygon fill="#000000" stroke="#000000" points="553.9995,-234.9568 546.6771,-237.26 550.5239,-234.5444 547.0483,-234.1319 547.0483,-234.1319 547.0483,-234.1319 550.5239,-234.5444 547.4195,-231.0039 553.9995,-234.9568 553.9995,-234.9568"/>
<text text-anchor="start" x="354.5" y="-215.4" font-family="Lato" font-size="12.00" fill="#000000">p0 &amp; p1</text>
</g>
<!-- 8&#45;&gt;0 -->
<g id="edge24" class="edge">
<title>8&#45;&gt;0</title>
<path fill="none" stroke="#000000" d="M421.89,-290.3583C414.7304,-294.221 406.2516,-298.0521 398,-300 322.6559,-317.7863 296.7952,-318.3427 224,-292 155.2928,-267.1366 138.2579,-250.5604 92,-194 80.208,-179.5817 71.0151,-160.6578 64.871,-145.6906"/>
<polygon fill="#000000" stroke="#000000" points="62.2642,-139.1226 67.7744,-144.4668 63.5554,-142.3757 64.8466,-145.6289 64.8466,-145.6289 64.8466,-145.6289 63.5554,-142.3757 61.9188,-146.7909 62.2642,-139.1226 62.2642,-139.1226"/>
<text text-anchor="start" x="225.5" y="-310.4" font-family="Lato" font-size="12.00" fill="#000000">!p0 &amp; p1</text>
</g>
<!-- 8&#45;&gt;2 -->
<g id="edge23" class="edge">
<title>8&#45;&gt;2</title>
<path fill="none" stroke="#000000" d="M421.8436,-278.6452C382.0675,-276.9958 285.859,-268.1537 224,-222 209.0867,-210.8731 198.3502,-192.7455 191.4668,-177.8627"/>
<polygon fill="#000000" stroke="#000000" points="188.5742,-171.2898 194.277,-176.428 189.984,-174.4933 191.3939,-177.6968 191.3939,-177.6968 191.3939,-177.6968 189.984,-174.4933 188.5107,-178.9657 188.5742,-171.2898 188.5742,-171.2898"/>
<text text-anchor="start" x="290" y="-270.4" font-family="Lato" font-size="12.00" fill="#000000">p0 &amp; !p1</text>
</g>
<!-- 8&#45;&gt;4 -->
<g id="edge22" class="edge">
<title>8&#45;&gt;4</title>
<path fill="none" stroke="#000000" d="M458.1162,-269.9683C465.4188,-266.5495 473.9954,-262.8092 482,-260 503.4944,-252.4567 528.6687,-246.2355 546.9184,-242.1739"/>
<polygon fill="#000000" stroke="#000000" points="553.7951,-240.6726 547.6281,-245.2432 550.3756,-241.4191 546.9562,-242.1657 546.9562,-242.1657 546.9562,-242.1657 550.3756,-241.4191 546.2843,-239.0882 553.7951,-240.6726 553.7951,-240.6726"/>
<text text-anchor="start" x="483.5" y="-263.4" font-family="Lato" font-size="12.00" fill="#000000">p0 &amp; !p1</text>
</g>
<!-- 3 -->
<g id="node10" class="node">
<title>3</title>
<path fill="#ffffa0" stroke="#000000" d="M1067,-177C1067,-177 1055,-177 1055,-177 1049,-177 1043,-171 1043,-165 1043,-165 1043,-153 1043,-153 1043,-147 1049,-141 1055,-141 1055,-141 1067,-141 1067,-141 1073,-141 1079,-147 1079,-153 1079,-153 1079,-165 1079,-165 1079,-171 1073,-177 1067,-177"/>
<text text-anchor="start" x="1057.5" y="-162.4" font-family="Lato" font-size="12.00" fill="#000000">3</text>
<text text-anchor="start" x="1054" y="-149.4" font-family="Lato" font-size="12.00" fill="#1f78b4">⓿</text>
</g>
<!-- 8&#45;&gt;3 -->
<g id="edge21" class="edge">
<title>8&#45;&gt;3</title>
<path fill="none" stroke="#000000" d="M458.3433,-280.8153C483.8178,-283.1757 531.3631,-287 572,-287 572,-287 572,-287 941,-287 997.0614,-287 1034.5373,-220.8427 1051.1754,-183.6525"/>
<polygon fill="#000000" stroke="#000000" points="1054.0393,-177.0678 1054.1359,-184.7433 1052.6433,-180.2773 1051.2473,-183.4869 1051.2473,-183.4869 1051.2473,-183.4869 1052.6433,-180.2773 1048.3587,-182.2305 1054.0393,-177.0678 1054.0393,-177.0678"/>
<text text-anchor="start" x="732.5" y="-290.4" font-family="Lato" font-size="12.00" fill="#000000">!p0 &amp; p1</text>
</g>
<!-- 6&#45;&gt;2 -->
<g id="edge17" class="edge">
<title>6&#45;&gt;2</title>
<path fill="none" stroke="#000000" d="M922.8855,-92C899.1429,-92 856.2031,-92 819.5,-92 636.5,-92 636.5,-92 636.5,-92 481.7604,-92 442.4723,-99.6081 290,-126 261.2557,-130.9754 228.8628,-139.4698 207.1161,-145.604"/>
<polygon fill="#000000" stroke="#000000" points="200.17,-147.5853 206.0374,-142.6359 203.5357,-146.6252 206.9015,-145.6651 206.9015,-145.6651 206.9015,-145.6651 203.5357,-146.6252 207.7655,-148.6943 200.17,-147.5853 200.17,-147.5853"/>
<text text-anchor="start" x="548" y="-96.4" font-family="Lato" font-size="12.00" fill="#000000">!p0 &amp; !p1</text>
</g>
<!-- 6&#45;&gt;3 -->
<g id="edge18" class="edge">
<title>6&#45;&gt;3</title>
<path fill="none" stroke="#000000" d="M959.2141,-100.6183C983.4524,-112.0949 1023.4624,-131.07 1025,-132 1029.0423,-134.4449 1033.1835,-137.2412 1037.1514,-140.0865"/>
<polygon fill="#000000" stroke="#000000" points="1042.809,-144.255 1035.305,-142.6387 1039.9913,-142.1789 1037.1735,-140.1028 1037.1735,-140.1028 1037.1735,-140.1028 1039.9913,-142.1789 1039.042,-137.5668 1042.809,-144.255 1042.809,-144.255"/>
<text text-anchor="start" x="977" y="-135.4" font-family="Lato" font-size="12.00" fill="#000000">!p0 &amp; !p1</text>
</g>
<!-- 1 -->
<g id="node6" class="node">
<title>1</title>
<path fill="#ffffa0" stroke="#000000" d="M701,-177C701,-177 689,-177 689,-177 683,-177 677,-171 677,-165 677,-165 677,-153 677,-153 677,-147 683,-141 689,-141 689,-141 701,-141 701,-141 707,-141 713,-147 713,-153 713,-153 713,-165 713,-165 713,-171 707,-177 701,-177"/>
<text text-anchor="start" x="691.5" y="-162.4" font-family="Lato" font-size="12.00" fill="#000000">1</text>
<text text-anchor="start" x="688" y="-149.4" font-family="Lato" font-size="12.00" fill="#6a3d9a">❸</text>
</g>
<!-- 1&#45;&gt;5 -->
<g id="edge6" class="edge">
<title>1&#45;&gt;5</title>
<path fill="none" stroke="#000000" d="M676.7852,-154.7538C671.12,-153.6236 664.8307,-152.5616 659,-152 539.2296,-140.4637 395.0906,-147.5651 337.779,-151.2225"/>
<polygon fill="#000000" stroke="#000000" points="330.5946,-151.6923 337.3741,-148.0922 334.0871,-151.4639 337.5797,-151.2355 337.5797,-151.2355 337.5797,-151.2355 334.0871,-151.4639 337.7853,-154.3787 330.5946,-151.6923 330.5946,-151.6923"/>
<text text-anchor="start" x="482" y="-148.4" font-family="Lato" font-size="12.00" fill="#000000">!p0 &amp; !p1</text>
</g>
<!-- 9 -->
<g id="node8" class="node">
<title>9</title>
<path fill="#ffffa0" stroke="#000000" d="M825.5,-64C825.5,-64 813.5,-64 813.5,-64 807.5,-64 801.5,-58 801.5,-52 801.5,-52 801.5,-40 801.5,-40 801.5,-34 807.5,-28 813.5,-28 813.5,-28 825.5,-28 825.5,-28 831.5,-28 837.5,-34 837.5,-40 837.5,-40 837.5,-52 837.5,-52 837.5,-58 831.5,-64 825.5,-64"/>
<text text-anchor="start" x="816" y="-49.4" font-family="Lato" font-size="12.00" fill="#000000">9</text>
<text text-anchor="start" x="812.5" y="-36.4" font-family="Lato" font-size="12.00" fill="#ff4da0">❶</text>
</g>
<!-- 1&#45;&gt;9 -->
<g id="edge7" class="edge">
<title>1&#45;&gt;9</title>
<path fill="none" stroke="#000000" d="M713.1034,-142.5688C735.048,-122.6512 772.073,-89.0462 796.147,-67.1959"/>
<polygon fill="#000000" stroke="#000000" points="801.3748,-62.451 798.3085,-69.4881 798.7831,-64.8033 796.1914,-67.1556 796.1914,-67.1556 796.1914,-67.1556 798.7831,-64.8033 794.0743,-64.8231 801.3748,-62.451 801.3748,-62.451"/>
<text text-anchor="start" x="732.5" y="-128.4" font-family="Lato" font-size="12.00" fill="#000000">!p0 &amp; p1</text>
</g>
<!-- 5&#45;&gt;0 -->
<g id="edge14" class="edge">
<title>5&#45;&gt;0</title>
<path fill="none" stroke="#000000" d="M294.2273,-143.8167C273.462,-133.9379 238.2585,-118.8582 206,-113 162.7124,-105.139 111.3361,-111.1129 81.3307,-116.1013"/>
<polygon fill="#000000" stroke="#000000" points="74.1806,-117.3393 80.5406,-113.0412 77.6293,-116.7422 81.078,-116.145 81.078,-116.145 81.078,-116.145 77.6293,-116.7422 81.6154,-119.2488 74.1806,-117.3393 74.1806,-117.3393"/>
<text text-anchor="start" x="158" y="-116.4" font-family="Lato" font-size="12.00" fill="#000000">!p0 &amp; !p1</text>
</g>
<!-- 5&#45;&gt;8 -->
<g id="edge15" class="edge">
<title>5&#45;&gt;8</title>
<path fill="none" stroke="#000000" d="M330.8298,-160.353C354.3867,-169.9234 392.8782,-186.015 398,-191 415.8273,-208.3511 427.0273,-234.7794 433.3342,-254.1461"/>
<polygon fill="#000000" stroke="#000000" points="435.4397,-260.9318 430.3567,-255.1797 434.4025,-257.589 433.3652,-254.2462 433.3652,-254.2462 433.3652,-254.2462 434.4025,-257.589 436.3738,-253.3128 435.4397,-260.9318 435.4397,-260.9318"/>
<text text-anchor="start" x="353" y="-194.4" font-family="Lato" font-size="12.00" fill="#000000">p0 &amp; !p1</text>
</g>
<!-- 7 -->
<g id="node11" class="node">
<title>7</title>
<path fill="#ffffa0" stroke="#000000" d="M578,-197C578,-197 566,-197 566,-197 560,-197 554,-191 554,-185 554,-185 554,-173 554,-173 554,-167 560,-161 566,-161 566,-161 578,-161 578,-161 584,-161 590,-167 590,-173 590,-173 590,-185 590,-185 590,-191 584,-197 578,-197"/>
<text text-anchor="start" x="568.5" y="-182.4" font-family="Lato" font-size="12.00" fill="#000000">7</text>
<text text-anchor="start" x="565" y="-169.4" font-family="Lato" font-size="12.00" fill="#ff7f00">❷</text>
</g>
<!-- 5&#45;&gt;7 -->
<g id="edge16" class="edge">
<title>5&#45;&gt;7</title>
<path fill="none" stroke="#000000" d="M330.7475,-154.8283C376.1605,-159.3783 494.3478,-171.2198 546.5638,-176.4515"/>
<polygon fill="#000000" stroke="#000000" points="553.7726,-177.1738 546.4934,-179.6101 550.2901,-176.8248 546.8075,-176.4758 546.8075,-176.4758 546.8075,-176.4758 550.2901,-176.8248 547.1216,-173.3415 553.7726,-177.1738 553.7726,-177.1738"/>
<text text-anchor="start" x="416" y="-171.4" font-family="Lato" font-size="12.00" fill="#000000">!p0 &amp; !p1</text>
</g>
<!-- 9&#45;&gt;0 -->
<g id="edge25" class="edge">
<title>9&#45;&gt;0</title>
<path fill="none" stroke="#000000" d="M801.3557,-46C777.1154,-46 732.8255,-46 695,-46 182,-46 182,-46 182,-46 140.9924,-46 101.7031,-75.6959 78.2064,-97.7159"/>
<polygon fill="#000000" stroke="#000000" points="72.867,-102.8446 75.7333,-95.7236 75.3912,-100.42 77.9154,-97.9954 77.9154,-97.9954 77.9154,-97.9954 75.3912,-100.42 80.0975,-100.2672 72.867,-102.8446 72.867,-102.8446"/>
<text text-anchor="start" x="419" y="-49.4" font-family="Lato" font-size="12.00" fill="#000000">p0 &amp; p1</text>
</g>
<!-- 9&#45;&gt;6 -->
<g id="edge26" class="edge">
<title>9&#45;&gt;6</title>
<path fill="none" stroke="#000000" d="M837.5627,-47.765C855.3721,-50.0147 883.0346,-54.8974 905,-65 909.099,-66.8853 913.1806,-69.2939 917.0441,-71.894"/>
<polygon fill="#000000" stroke="#000000" points="922.907,-76.0895 915.3812,-74.5774 920.0607,-74.0526 917.2144,-72.0158 917.2144,-72.0158 917.2144,-72.0158 920.0607,-74.0526 919.0475,-69.4541 922.907,-76.0895 922.907,-76.0895"/>
<text text-anchor="start" x="860" y="-68.4" font-family="Lato" font-size="12.00" fill="#000000">p0 &amp; !p1</text>
</g>
<!-- 4&#45;&gt;6 -->
<g id="edge12" class="edge">
<title>4&#45;&gt;6</title>
<path fill="none" stroke="#000000" d="M590.1243,-239.9123C634.7036,-246.2991 752.5629,-258.4417 842,-225 875.2254,-212.5766 883.3266,-204.0808 905,-176 918.6931,-158.2588 928.2354,-134.5226 934.0386,-116.808"/>
<polygon fill="#000000" stroke="#000000" points="936.153,-110.1 937.0529,-117.7232 935.1008,-113.4381 934.0486,-116.7762 934.0486,-116.7762 934.0486,-116.7762 935.1008,-113.4381 931.0443,-115.8293 936.153,-110.1 936.153,-110.1"/>
<text text-anchor="start" x="731" y="-249.4" font-family="Lato" font-size="12.00" fill="#000000">!p0 &amp; !p1</text>
</g>
<!-- 4&#45;&gt;1 -->
<g id="edge13" class="edge">
<title>4&#45;&gt;1</title>
<path fill="none" stroke="#000000" d="M590.1491,-225.4908C611.4966,-211.9534 647.0228,-189.4245 670.7243,-174.3943"/>
<polygon fill="#000000" stroke="#000000" points="676.7765,-170.5564 672.5519,-176.9654 673.8207,-172.4308 670.8649,-174.3052 670.8649,-174.3052 670.8649,-174.3052 673.8207,-172.4308 669.1779,-171.645 676.7765,-170.5564 676.7765,-170.5564"/>
<text text-anchor="start" x="615.5" y="-212.4" font-family="Lato" font-size="12.00" fill="#000000">p0 &amp; p1</text>
</g>
<!-- 3&#45;&gt;6 -->
<g id="edge10" class="edge">
<title>3&#45;&gt;6</title>
<path fill="none" stroke="#000000" d="M1055.9855,-140.9135C1050.8308,-126.0695 1041.2204,-105.9363 1025,-96 1007.5705,-85.3231 984.0824,-85.1277 966.375,-87.1429"/>
<polygon fill="#000000" stroke="#000000" points="959.1746,-88.1178 965.6886,-84.057 962.643,-87.6482 966.1113,-87.1786 966.1113,-87.1786 966.1113,-87.1786 962.643,-87.6482 966.534,-90.3001 959.1746,-88.1178 959.1746,-88.1178"/>
<text text-anchor="start" x="978.5" y="-99.4" font-family="Lato" font-size="12.00" fill="#000000">p0 &amp; !p1</text>
</g>
<!-- 3&#45;&gt;1 -->
<g id="edge11" class="edge">
<title>3&#45;&gt;1</title>
<path fill="none" stroke="#000000" d="M1042.7405,-159C982.4583,-159 789.6861,-159 720.2379,-159"/>
<polygon fill="#000000" stroke="#000000" points="713.15,-159 720.15,-155.8501 716.65,-159 720.15,-159.0001 720.15,-159.0001 720.15,-159.0001 716.65,-159 720.15,-162.1501 713.15,-159 713.15,-159"/>
<text text-anchor="start" x="860" y="-162.4" font-family="Lato" font-size="12.00" fill="#000000">!p0 &amp; p1</text>
</g>
<!-- 7&#45;&gt;1 -->
<g id="edge20" class="edge">
<title>7&#45;&gt;1</title>
<path fill="none" stroke="#000000" d="M590.3118,-169.3582C597.4961,-166.0589 605.9392,-162.7585 614,-161 632.3541,-156.996 653.6018,-156.6252 669.7293,-157.1867"/>
<polygon fill="#000000" stroke="#000000" points="676.7501,-157.5005 669.6164,-160.3347 673.2536,-157.3442 669.7571,-157.1878 669.7571,-157.1878 669.7571,-157.1878 673.2536,-157.3442 669.8978,-154.0409 676.7501,-157.5005 676.7501,-157.5005"/>
<text text-anchor="start" x="614" y="-164.4" font-family="Lato" font-size="12.00" fill="#000000">!p0 &amp; p1</text>
</g>
<!-- 7&#45;&gt;3 -->
<g id="edge19" class="edge">
<title>7&#45;&gt;3</title>
<path fill="none" stroke="#000000" d="M590.1906,-196.3489C597.0996,-201.8171 605.3914,-207.1671 614,-210 632.9978,-216.2518 639.0254,-211.0071 659,-210 822.2884,-201.7673 866.0293,-211.1994 1025,-173 1028.7492,-172.0991 1032.6304,-170.8966 1036.3951,-169.5734"/>
<polygon fill="#000000" stroke="#000000" points="1042.9921,-167.1005 1037.5432,-172.5072 1039.7148,-168.3291 1036.4375,-169.5576 1036.4375,-169.5576 1036.4375,-169.5576 1039.7148,-168.3291 1035.3318,-166.608 1042.9921,-167.1005 1042.9921,-167.1005"/>
<text text-anchor="start" x="797" y="-208.4" font-family="Lato" font-size="12.00" fill="#000000">!p0 &amp; p1</text>
</g>
</g>
</svg>
