<?xml version="1.0" encoding="UTF-8" standalone="no"?>
<?xml-stylesheet href="spot.css" type="text/css"?>
<!DOCTYPE svg PUBLIC "-//W3C//DTD SVG 1.1//EN"
 "http://www.w3.org/Graphics/SVG/1.1/DTD/svg11.dtd">
<!-- Generated by graphviz version 2.40.1 (20161225.0304)
 -->
<!-- Title: F ^ X p1 X X p1 Pages: 1 -->
<svg width="492pt" height="205pt"
 viewBox="0.00 0.00 492.00 205.27" xmlns="http://www.w3.org/2000/svg" xmlns:xlink="http://www.w3.org/1999/xlink">
<g id="graph0" class="graph" transform="scale(1 1) rotate(0) translate(4 201.2735)">
<title>F ^ X p1 X X p1</title>
<polygon fill="#ffffff" stroke="transparent" points="-4,4 -4,-201.2735 488,-201.2735 488,4 -4,4"/>
<text text-anchor="start" x="94.5" y="-184.6735" font-family="Lato" font-size="12.00" fill="#000000">(Fin(</text>
<text text-anchor="start" x="117.5" y="-184.6735" font-family="Lato" font-size="12.00" fill="#1f78b4">⓿</text>
<text text-anchor="start" x="131.5" y="-184.6735" font-family="Lato" font-size="12.00" fill="#000000">) &amp; Inf(</text>
<text text-anchor="start" x="166.5" y="-184.6735" font-family="Lato" font-size="12.00" fill="#ff4da0">❶</text>
<text text-anchor="start" x="180.5" y="-184.6735" font-family="Lato" font-size="12.00" fill="#000000">)) | (Fin(</text>
<text text-anchor="start" x="218.5" y="-184.6735" font-family="Lato" font-size="12.00" fill="#ff7f00">❷</text>
<text text-anchor="start" x="232.5" y="-184.6735" font-family="Lato" font-size="12.00" fill="#000000">) &amp; Inf(</text>
<text text-anchor="start" x="267.5" y="-184.6735" font-family="Lato" font-size="12.00" fill="#6a3d9a">❸</text>
<text text-anchor="start" x="281.5" y="-184.6735" font-family="Lato" font-size="12.00" fill="#000000">)) | (Fin(</text>
<text text-anchor="start" x="319.5" y="-184.6735" font-family="Lato" font-size="12.00" fill="#33a02c">❹</text>
<text text-anchor="start" x="333.5" y="-184.6735" font-family="Lato" font-size="12.00" fill="#000000">) &amp; Inf(</text>
<text text-anchor="start" x="368.5" y="-184.6735" font-family="Lato" font-size="12.00" fill="#e31a1c">❺</text>
<text text-anchor="start" x="382.5" y="-184.6735" font-family="Lato" font-size="12.00" fill="#000000">))</text>
<text text-anchor="start" x="218" y="-172.6735" font-family="Lato" font-size="12.00" fill="#000000">[Rabin 3]</text>
<!-- I -->
<!-- 6 -->
<g id="node2" class="node">
<title>6</title>
<path fill="#ffffa0" stroke="#000000" d="M70,-97.2735C70,-97.2735 50,-97.2735 50,-97.2735 44,-97.2735 38,-91.2735 38,-85.2735 38,-85.2735 38,-73.2735 38,-73.2735 38,-67.2735 44,-61.2735 50,-61.2735 50,-61.2735 70,-61.2735 70,-61.2735 76,-61.2735 82,-67.2735 82,-73.2735 82,-73.2735 82,-85.2735 82,-85.2735 82,-91.2735 76,-97.2735 70,-97.2735"/>
<text text-anchor="start" x="56.5" y="-82.6735" font-family="Lato" font-size="12.00" fill="#000000">6</text>
<text text-anchor="start" x="46" y="-70.6735" font-family="Lato" font-size="12.00" fill="#ff7f00">❷</text>
<text text-anchor="start" x="60" y="-70.6735" font-family="Lato" font-size="12.00" fill="#33a02c">❹</text>
</g>
<!-- I&#45;&gt;6 -->
<g id="edge1" class="edge">
<title>I&#45;&gt;6</title>
<path fill="none" stroke="#000000" d="M1.1682,-79.2735C4.2491,-79.2735 17.4946,-79.2735 30.6388,-79.2735"/>
<polygon fill="#000000" stroke="#000000" points="37.8655,-79.2735 30.8656,-82.4236 34.3655,-79.2735 30.8655,-79.2736 30.8655,-79.2736 30.8655,-79.2736 34.3655,-79.2735 30.8655,-76.1236 37.8655,-79.2735 37.8655,-79.2735"/>
</g>
<!-- 5 -->
<g id="node8" class="node">
<title>5</title>
<path fill="#ffffa0" stroke="#000000" d="M167,-97.2735C167,-97.2735 147,-97.2735 147,-97.2735 141,-97.2735 135,-91.2735 135,-85.2735 135,-85.2735 135,-73.2735 135,-73.2735 135,-67.2735 141,-61.2735 147,-61.2735 147,-61.2735 167,-61.2735 167,-61.2735 173,-61.2735 179,-67.2735 179,-73.2735 179,-73.2735 179,-85.2735 179,-85.2735 179,-91.2735 173,-97.2735 167,-97.2735"/>
<text text-anchor="start" x="153.5" y="-82.6735" font-family="Lato" font-size="12.00" fill="#000000">5</text>
<text text-anchor="start" x="143" y="-70.6735" font-family="Lato" font-size="12.00" fill="#ff7f00">❷</text>
<text text-anchor="start" x="157" y="-70.6735" font-family="Lato" font-size="12.00" fill="#33a02c">❹</text>
</g>
<!-- 6&#45;&gt;5 -->
<g id="edge14" class="edge">
<title>6&#45;&gt;5</title>
<path fill="none" stroke="#000000" d="M82.0108,-79.2735C95.4338,-79.2735 112.7618,-79.2735 127.3789,-79.2735"/>
<polygon fill="#000000" stroke="#000000" points="134.7405,-79.2735 127.7406,-82.4236 131.2405,-79.2735 127.7405,-79.2736 127.7405,-79.2736 127.7405,-79.2736 131.2405,-79.2735 127.7405,-76.1236 134.7405,-79.2735 134.7405,-79.2735"/>
<text text-anchor="start" x="100" y="-82.6735" font-family="Lato" font-size="12.00" fill="#000000">!p1</text>
</g>
<!-- 6&#45;&gt;5 -->
<g id="edge15" class="edge">
<title>6&#45;&gt;5</title>
<path fill="none" stroke="#000000" d="M82.3353,-67.9247C87.9606,-65.5902 94.085,-63.4783 100,-62.2735 109.2729,-60.3847 119.2112,-62.0267 128.1501,-64.9135"/>
<polygon fill="#000000" stroke="#000000" points="134.7634,-67.326 127.1077,-67.8863 131.4753,-66.1265 128.1873,-64.927 128.1873,-64.927 128.1873,-64.927 131.4753,-66.1265 129.2668,-61.9678 134.7634,-67.326 134.7634,-67.326"/>
<text text-anchor="start" x="101.5" y="-65.6735" font-family="Lato" font-size="12.00" fill="#000000">p1</text>
</g>
<!-- 0 -->
<g id="node3" class="node">
<title>0</title>
<path fill="#ffffa0" stroke="#000000" d="M361,-165.2735C361,-165.2735 341,-165.2735 341,-165.2735 335,-165.2735 329,-159.2735 329,-153.2735 329,-153.2735 329,-141.2735 329,-141.2735 329,-135.2735 335,-129.2735 341,-129.2735 341,-129.2735 361,-129.2735 361,-129.2735 367,-129.2735 373,-135.2735 373,-141.2735 373,-141.2735 373,-153.2735 373,-153.2735 373,-159.2735 367,-165.2735 361,-165.2735"/>
<text text-anchor="start" x="347.5" y="-150.6735" font-family="Lato" font-size="12.00" fill="#000000">0</text>
<text text-anchor="start" x="337" y="-138.6735" font-family="Lato" font-size="12.00" fill="#ff7f00">❷</text>
<text text-anchor="start" x="351" y="-138.6735" font-family="Lato" font-size="12.00" fill="#e31a1c">❺</text>
</g>
<!-- 2 -->
<g id="node4" class="node">
<title>2</title>
<path fill="#ffffa0" stroke="#000000" d="M264,-130.2735C264,-130.2735 244,-130.2735 244,-130.2735 238,-130.2735 232,-124.2735 232,-118.2735 232,-118.2735 232,-106.2735 232,-106.2735 232,-100.2735 238,-94.2735 244,-94.2735 244,-94.2735 264,-94.2735 264,-94.2735 270,-94.2735 276,-100.2735 276,-106.2735 276,-106.2735 276,-118.2735 276,-118.2735 276,-124.2735 270,-130.2735 264,-130.2735"/>
<text text-anchor="start" x="250.5" y="-115.6735" font-family="Lato" font-size="12.00" fill="#000000">2</text>
<text text-anchor="start" x="240" y="-103.6735" font-family="Lato" font-size="12.00" fill="#6a3d9a">❸</text>
<text text-anchor="start" x="254" y="-103.6735" font-family="Lato" font-size="12.00" fill="#33a02c">❹</text>
</g>
<!-- 0&#45;&gt;2 -->
<g id="edge2" class="edge">
<title>0&#45;&gt;2</title>
<path fill="none" stroke="#000000" d="M328.6061,-138.7798C322.8754,-136.6327 316.7169,-134.3481 311,-132.2735 301.8873,-128.9666 291.9237,-125.4401 282.9119,-122.2839"/>
<polygon fill="#000000" stroke="#000000" points="276.2359,-119.9523 283.8831,-119.2866 279.5401,-121.1064 282.8444,-122.2604 282.8444,-122.2604 282.8444,-122.2604 279.5401,-121.1064 281.8057,-125.2343 276.2359,-119.9523 276.2359,-119.9523"/>
<text text-anchor="start" x="294" y="-135.6735" font-family="Lato" font-size="12.00" fill="#000000">!p1</text>
</g>
<!-- 4 -->
<g id="node5" class="node">
<title>4</title>
<path fill="#ffffa0" stroke="#000000" d="M472,-102.2735C472,-102.2735 438,-102.2735 438,-102.2735 432,-102.2735 426,-96.2735 426,-90.2735 426,-90.2735 426,-78.2735 426,-78.2735 426,-72.2735 432,-66.2735 438,-66.2735 438,-66.2735 472,-66.2735 472,-66.2735 478,-66.2735 484,-72.2735 484,-78.2735 484,-78.2735 484,-90.2735 484,-90.2735 484,-96.2735 478,-102.2735 472,-102.2735"/>
<text text-anchor="start" x="451.5" y="-87.6735" font-family="Lato" font-size="12.00" fill="#000000">4</text>
<text text-anchor="start" x="434" y="-75.6735" font-family="Lato" font-size="12.00" fill="#ff4da0">❶</text>
<text text-anchor="start" x="448" y="-75.6735" font-family="Lato" font-size="12.00" fill="#ff7f00">❷</text>
<text text-anchor="start" x="462" y="-75.6735" font-family="Lato" font-size="12.00" fill="#33a02c">❹</text>
</g>
<!-- 0&#45;&gt;4 -->
<g id="edge3" class="edge">
<title>0&#45;&gt;4</title>
<path fill="none" stroke="#000000" d="M373.0557,-133.9128C386.6364,-125.6861 404.3506,-114.9553 419.8332,-105.5765"/>
<polygon fill="#000000" stroke="#000000" points="425.866,-101.922 421.5109,-108.2431 422.8724,-103.7354 419.8788,-105.5489 419.8788,-105.5489 419.8788,-105.5489 422.8724,-103.7354 418.2467,-102.8547 425.866,-101.922 425.866,-101.922"/>
<text text-anchor="start" x="392.5" y="-124.6735" font-family="Lato" font-size="12.00" fill="#000000">p1</text>
</g>
<!-- 2&#45;&gt;0 -->
<g id="edge6" class="edge">
<title>2&#45;&gt;0</title>
<path fill="none" stroke="#000000" d="M271.0802,-130.5453C277.6372,-136.3479 285.5822,-142.0815 294,-145.2735 302.6937,-148.57 312.6784,-149.7174 321.8374,-149.8486"/>
<polygon fill="#000000" stroke="#000000" points="328.9653,-149.7577 322.0061,-152.9968 325.4656,-149.8024 321.9659,-149.8471 321.9659,-149.8471 321.9659,-149.8471 325.4656,-149.8024 321.9257,-146.6973 328.9653,-149.7577 328.9653,-149.7577"/>
<text text-anchor="start" x="294" y="-151.6735" font-family="Lato" font-size="12.00" fill="#000000">!p1</text>
</g>
<!-- 2&#45;&gt;4 -->
<g id="edge7" class="edge">
<title>2&#45;&gt;4</title>
<path fill="none" stroke="#000000" d="M276.2785,-109.17C310.7016,-104.3748 377.1659,-95.116 418.6262,-89.3405"/>
<polygon fill="#000000" stroke="#000000" points="425.8115,-88.3396 419.3131,-92.4253 422.345,-88.8225 418.8784,-89.3054 418.8784,-89.3054 418.8784,-89.3054 422.345,-88.8225 418.4438,-86.1856 425.8115,-88.3396 425.8115,-88.3396"/>
<text text-anchor="start" x="344" y="-104.6735" font-family="Lato" font-size="12.00" fill="#000000">p1</text>
</g>
<!-- 4&#45;&gt;4 -->
<g id="edge10" class="edge">
<title>4&#45;&gt;4</title>
<path fill="none" stroke="#000000" d="M450.1155,-102.4262C449.364,-111.8126 450.9922,-120.2735 455,-120.2735 457.9432,-120.2735 459.6031,-115.7105 459.9796,-109.5688"/>
<polygon fill="#000000" stroke="#000000" points="459.8845,-102.4262 463.1276,-109.3836 459.9312,-105.9259 459.9778,-109.4256 459.9778,-109.4256 459.9778,-109.4256 459.9312,-105.9259 456.8281,-109.4676 459.8845,-102.4262 459.8845,-102.4262"/>
<text text-anchor="start" x="446.5" y="-123.6735" font-family="Lato" font-size="12.00" fill="#000000">!p1</text>
</g>
<!-- 4&#45;&gt;4 -->
<g id="edge11" class="edge">
<title>4&#45;&gt;4</title>
<path fill="none" stroke="#000000" d="M446.813,-102.5311C442.5679,-119.6758 445.2969,-138.2735 455,-138.2735 463.3386,-138.2735 466.5267,-124.5386 464.5642,-109.7945"/>
<polygon fill="#000000" stroke="#000000" points="463.187,-102.5311 467.5859,-108.8218 463.839,-105.9699 464.4911,-109.4086 464.4911,-109.4086 464.4911,-109.4086 463.839,-105.9699 461.3962,-109.9954 463.187,-102.5311 463.187,-102.5311"/>
<text text-anchor="start" x="448" y="-141.6735" font-family="Lato" font-size="12.00" fill="#000000">p1</text>
</g>
<!-- 1 -->
<g id="node6" class="node">
<title>1</title>
<path fill="#ffffa0" stroke="#000000" d="M361,-62.2735C361,-62.2735 341,-62.2735 341,-62.2735 335,-62.2735 329,-56.2735 329,-50.2735 329,-50.2735 329,-38.2735 329,-38.2735 329,-32.2735 335,-26.2735 341,-26.2735 341,-26.2735 361,-26.2735 361,-26.2735 367,-26.2735 373,-32.2735 373,-38.2735 373,-38.2735 373,-50.2735 373,-50.2735 373,-56.2735 367,-62.2735 361,-62.2735"/>
<text text-anchor="start" x="347.5" y="-47.6735" font-family="Lato" font-size="12.00" fill="#000000">1</text>
<text text-anchor="start" x="337" y="-35.6735" font-family="Lato" font-size="12.00" fill="#ff7f00">❷</text>
<text text-anchor="start" x="351" y="-35.6735" font-family="Lato" font-size="12.00" fill="#e31a1c">❺</text>
</g>
<!-- 1&#45;&gt;4 -->
<g id="edge4" class="edge">
<title>1&#45;&gt;4</title>
<path fill="none" stroke="#000000" d="M373.0557,-52.7565C386.396,-57.8873 403.7248,-64.5523 419.009,-70.4308"/>
<polygon fill="#000000" stroke="#000000" points="425.866,-73.0681 418.2017,-73.4952 422.5992,-71.8116 419.3325,-70.5552 419.3325,-70.5552 419.3325,-70.5552 422.5992,-71.8116 420.4633,-67.6151 425.866,-73.0681 425.866,-73.0681"/>
<text text-anchor="start" x="391" y="-68.6735" font-family="Lato" font-size="12.00" fill="#000000">!p1</text>
</g>
<!-- 3 -->
<g id="node7" class="node">
<title>3</title>
<path fill="#ffffa0" stroke="#000000" d="M264,-70.2735C264,-70.2735 244,-70.2735 244,-70.2735 238,-70.2735 232,-64.2735 232,-58.2735 232,-58.2735 232,-46.2735 232,-46.2735 232,-40.2735 238,-34.2735 244,-34.2735 244,-34.2735 264,-34.2735 264,-34.2735 270,-34.2735 276,-40.2735 276,-46.2735 276,-46.2735 276,-58.2735 276,-58.2735 276,-64.2735 270,-70.2735 264,-70.2735"/>
<text text-anchor="start" x="250.5" y="-55.6735" font-family="Lato" font-size="12.00" fill="#000000">3</text>
<text text-anchor="start" x="240" y="-43.6735" font-family="Lato" font-size="12.00" fill="#6a3d9a">❸</text>
<text text-anchor="start" x="254" y="-43.6735" font-family="Lato" font-size="12.00" fill="#33a02c">❹</text>
</g>
<!-- 1&#45;&gt;3 -->
<g id="edge5" class="edge">
<title>1&#45;&gt;3</title>
<path fill="none" stroke="#000000" d="M328.7474,-35.014C318.1907,-31.7895 305.417,-29.5783 294,-32.2735 290.2218,-33.1654 286.3936,-34.4719 282.679,-35.9969"/>
<polygon fill="#000000" stroke="#000000" points="276.1508,-38.9357 281.2408,-33.1898 279.3424,-37.4989 282.5339,-36.0622 282.5339,-36.0622 282.5339,-36.0622 279.3424,-37.4989 283.827,-38.9345 276.1508,-38.9357 276.1508,-38.9357"/>
<text text-anchor="start" x="295.5" y="-35.6735" font-family="Lato" font-size="12.00" fill="#000000">p1</text>
</g>
<!-- 3&#45;&gt;4 -->
<g id="edge8" class="edge">
<title>3&#45;&gt;4</title>
<path fill="none" stroke="#000000" d="M274.229,-34.156C297.9192,-15.2458 338.3356,9.8349 373,-4.2735 400.713,-15.5527 424.172,-41.2018 438.8066,-60.4369"/>
<polygon fill="#000000" stroke="#000000" points="443.0601,-66.1775 436.3618,-62.4284 440.9764,-63.3653 438.8927,-60.5531 438.8927,-60.5531 438.8927,-60.5531 440.9764,-63.3653 441.4237,-58.6778 443.0601,-66.1775 443.0601,-66.1775"/>
<text text-anchor="start" x="342.5" y="-7.6735" font-family="Lato" font-size="12.00" fill="#000000">!p1</text>
</g>
<!-- 3&#45;&gt;1 -->
<g id="edge9" class="edge">
<title>3&#45;&gt;1</title>
<path fill="none" stroke="#000000" d="M276.0108,-50.4582C289.4338,-49.3511 306.7618,-47.922 321.3789,-46.7165"/>
<polygon fill="#000000" stroke="#000000" points="328.7405,-46.1093 322.0232,-49.8241 325.2524,-46.397 321.7642,-46.6848 321.7642,-46.6848 321.7642,-46.6848 325.2524,-46.397 321.5053,-43.5454 328.7405,-46.1093 328.7405,-46.1093"/>
<text text-anchor="start" x="295.5" y="-52.6735" font-family="Lato" font-size="12.00" fill="#000000">p1</text>
</g>
<!-- 5&#45;&gt;2 -->
<g id="edge12" class="edge">
<title>5&#45;&gt;2</title>
<path fill="none" stroke="#000000" d="M179.0108,-86.7617C192.557,-91.3702 210.0801,-97.3317 224.7805,-102.3328"/>
<polygon fill="#000000" stroke="#000000" points="231.7405,-104.7007 224.099,-105.4282 228.427,-103.5734 225.1135,-102.4461 225.1135,-102.4461 225.1135,-102.4461 228.427,-103.5734 226.1281,-99.4639 231.7405,-104.7007 231.7405,-104.7007"/>
<text text-anchor="start" x="197" y="-100.6735" font-family="Lato" font-size="12.00" fill="#000000">!p1</text>
</g>
<!-- 5&#45;&gt;3 -->
<g id="edge13" class="edge">
<title>5&#45;&gt;3</title>
<path fill="none" stroke="#000000" d="M179.0108,-73.1468C192.557,-69.3762 210.0801,-64.4986 224.7805,-60.4067"/>
<polygon fill="#000000" stroke="#000000" points="231.7405,-58.4694 225.8416,-63.3812 228.3687,-59.408 224.9969,-60.3466 224.9969,-60.3466 224.9969,-60.3466 228.3687,-59.408 224.1522,-57.312 231.7405,-58.4694 231.7405,-58.4694"/>
<text text-anchor="start" x="198.5" y="-70.6735" font-family="Lato" font-size="12.00" fill="#000000">p1</text>
</g>
</g>
</svg>
